M48
; DRILL file KiCad 10.0.5 date 2026-08-09T14:18:47
; FORMAT={-:-/ absolute / metric / decimal}
; #@! TF.CreationDate,2026-08-09T14:18:47+01:00
; #@! TF.GenerationSoftware,Kicad,Pcbnew,10.0.5
; #@! TF.FileFunction,Plated,1,2,PTH
FMAT,2
METRIC
; #@! TA.AperFunction,Plated,PTH,ComponentDrill
T1C0.200
; #@! TA.AperFunction,Plated,PTH,ViaDrill
T2C0.250
; #@! TA.AperFunction,Plated,PTH,ViaDrill
T3C0.300
; #@! TA.AperFunction,Plated,PTH,ComponentDrill
T4C0.600
; #@! TA.AperFunction,Plated,PTH,ComponentDrill
T5C0.711
%
G90
G05
T1
X46.63Y-47.66
X46.63Y-49.06
X47.33Y-46.96
X47.33Y-48.36
X47.33Y-49.76
X48.03Y-47.66
X48.03Y-49.06
X48.73Y-46.96
X48.73Y-48.36
X48.73Y-49.76
X49.43Y-47.66
X49.43Y-49.06
T2
X53.8Y-64.45
X53.8Y-65.45
X54.95Y-63.95
X54.95Y-64.95
X55.0Y-62.25
X55.15Y-67.15
T3
X36.2Y-41.5
X36.2Y-58.5
X36.2Y-81.6
X37.35Y-64.5
X37.55Y-59.35
X37.6Y-72.7
X39.5Y-69.3
X41.4Y-67.4
X41.5Y-63.0
X41.9Y-70.9
X42.3Y-57.15
X42.9Y-61.35
X43.15Y-58.85
X43.7Y-70.6
X44.4Y-41.3
X44.9Y-72.6
X45.3Y-45.35
X45.847Y-67.0
X45.85Y-59.975
X46.15Y-46.0
X46.9Y-41.3
X47.0Y-65.15
X47.2Y-64.25
X47.35Y-66.5
X47.5Y-55.0
X49.2Y-65.4
X49.25Y-62.1
X49.25Y-67.7
X49.5Y-56.3
X49.5Y-72.65
X50.15Y-61.7
X50.75Y-61.35
X50.8Y-65.4
X51.25Y-61.9
X52.5Y-81.5
X53.0Y-69.5
X53.15Y-56.3
X54.6Y-70.6
X55.0Y-73.0
X57.65Y-57.15
X59.15Y-44.45
X59.9Y-45.72
X60.1Y-53.9
X60.8Y-73.3
X62.8Y-41.5
X63.2Y-57.0
T5
X45.847Y-74.353
X47.847Y-74.353
X49.847Y-74.353
X51.847Y-74.353
X53.847Y-74.353
T4
X56.68Y-60.38G85X57.78Y-60.38
G05
X56.68Y-69.02G85X57.78Y-69.02
G05
X61.11Y-60.38G85X61.71Y-60.38
G05
X61.11Y-69.02G85X61.71Y-69.02
G05
M30
