%TF.GenerationSoftware,KiCad,Pcbnew,10.0.5*%
%TF.CreationDate,2026-08-09T14:18:47+01:00*%
%TF.ProjectId,toshiba_hvac_esp32_integrated,746f7368-6962-4615-9f68-7661635f6573,rev?*%
%TF.SameCoordinates,Original*%
%TF.FileFunction,Legend,Bot*%
%TF.FilePolarity,Positive*%
%FSLAX46Y46*%
G04 Gerber Fmt 4.6, Leading zero omitted, Abs format (unit mm)*
G04 Created by KiCad (PCBNEW 10.0.5) date 2026-08-09 14:18:47*
%MOMM*%
%LPD*%
G01*
G04 APERTURE LIST*
%ADD10C,0.150000*%
%ADD11C,0.508000*%
%ADD12C,0.120000*%
G04 APERTURE END LIST*
D10*
X40833332Y-48657200D02*
X40690475Y-48704819D01*
X40690475Y-48704819D02*
X40452380Y-48704819D01*
X40452380Y-48704819D02*
X40357142Y-48657200D01*
X40357142Y-48657200D02*
X40309523Y-48609580D01*
X40309523Y-48609580D02*
X40261904Y-48514342D01*
X40261904Y-48514342D02*
X40261904Y-48419104D01*
X40261904Y-48419104D02*
X40309523Y-48323866D01*
X40309523Y-48323866D02*
X40357142Y-48276247D01*
X40357142Y-48276247D02*
X40452380Y-48228628D01*
X40452380Y-48228628D02*
X40642856Y-48181009D01*
X40642856Y-48181009D02*
X40738094Y-48133390D01*
X40738094Y-48133390D02*
X40785713Y-48085771D01*
X40785713Y-48085771D02*
X40833332Y-47990533D01*
X40833332Y-47990533D02*
X40833332Y-47895295D01*
X40833332Y-47895295D02*
X40785713Y-47800057D01*
X40785713Y-47800057D02*
X40738094Y-47752438D01*
X40738094Y-47752438D02*
X40642856Y-47704819D01*
X40642856Y-47704819D02*
X40404761Y-47704819D01*
X40404761Y-47704819D02*
X40261904Y-47752438D01*
X39928570Y-47704819D02*
X39690475Y-48704819D01*
X39690475Y-48704819D02*
X39499999Y-47990533D01*
X39499999Y-47990533D02*
X39309523Y-48704819D01*
X39309523Y-48704819D02*
X39071428Y-47704819D01*
X38166666Y-48704819D02*
X38738094Y-48704819D01*
X38452380Y-48704819D02*
X38452380Y-47704819D01*
X38452380Y-47704819D02*
X38547618Y-47847676D01*
X38547618Y-47847676D02*
X38642856Y-47942914D01*
X38642856Y-47942914D02*
X38738094Y-47990533D01*
X40833332Y-55657200D02*
X40690475Y-55704819D01*
X40690475Y-55704819D02*
X40452380Y-55704819D01*
X40452380Y-55704819D02*
X40357142Y-55657200D01*
X40357142Y-55657200D02*
X40309523Y-55609580D01*
X40309523Y-55609580D02*
X40261904Y-55514342D01*
X40261904Y-55514342D02*
X40261904Y-55419104D01*
X40261904Y-55419104D02*
X40309523Y-55323866D01*
X40309523Y-55323866D02*
X40357142Y-55276247D01*
X40357142Y-55276247D02*
X40452380Y-55228628D01*
X40452380Y-55228628D02*
X40642856Y-55181009D01*
X40642856Y-55181009D02*
X40738094Y-55133390D01*
X40738094Y-55133390D02*
X40785713Y-55085771D01*
X40785713Y-55085771D02*
X40833332Y-54990533D01*
X40833332Y-54990533D02*
X40833332Y-54895295D01*
X40833332Y-54895295D02*
X40785713Y-54800057D01*
X40785713Y-54800057D02*
X40738094Y-54752438D01*
X40738094Y-54752438D02*
X40642856Y-54704819D01*
X40642856Y-54704819D02*
X40404761Y-54704819D01*
X40404761Y-54704819D02*
X40261904Y-54752438D01*
X39928570Y-54704819D02*
X39690475Y-55704819D01*
X39690475Y-55704819D02*
X39499999Y-54990533D01*
X39499999Y-54990533D02*
X39309523Y-55704819D01*
X39309523Y-55704819D02*
X39071428Y-54704819D01*
X38738094Y-54800057D02*
X38690475Y-54752438D01*
X38690475Y-54752438D02*
X38595237Y-54704819D01*
X38595237Y-54704819D02*
X38357142Y-54704819D01*
X38357142Y-54704819D02*
X38261904Y-54752438D01*
X38261904Y-54752438D02*
X38214285Y-54800057D01*
X38214285Y-54800057D02*
X38166666Y-54895295D01*
X38166666Y-54895295D02*
X38166666Y-54990533D01*
X38166666Y-54990533D02*
X38214285Y-55133390D01*
X38214285Y-55133390D02*
X38785713Y-55704819D01*
X38785713Y-55704819D02*
X38166666Y-55704819D01*
%TO.C,J1*%
D11*
X42328600Y-74353000D02*
G75*
G02*
X41566600Y-74353000I-381000J0D01*
G01*
X41566600Y-74353000D02*
G75*
G02*
X42328600Y-74353000I381000J0D01*
G01*
%TO.C,R7*%
D12*
X52437258Y-69877500D02*
X51962742Y-69877500D01*
X52437258Y-70922500D02*
X51962742Y-70922500D01*
%TO.C,R2*%
X55977500Y-55262742D02*
X55977500Y-55737258D01*
X57022500Y-55262742D02*
X57022500Y-55737258D01*
%TO.C,C12*%
X61865000Y-78261252D02*
X61865000Y-77738748D01*
X63335000Y-78261252D02*
X63335000Y-77738748D01*
%TO.C,Q2*%
X51990000Y-57640000D02*
X51990000Y-58640000D01*
X51990000Y-59760000D02*
X51990000Y-60760000D01*
X51990000Y-60760000D02*
X53510000Y-60760000D01*
X53510000Y-57640000D02*
X51990000Y-57640000D01*
X53510000Y-57690000D02*
X53510000Y-57640000D01*
X53510000Y-59590000D02*
X53510000Y-58810000D01*
X53510000Y-60760000D02*
X53510000Y-60710000D01*
X54050000Y-58820000D02*
X53810000Y-59150000D01*
X54290000Y-59150000D01*
X54050000Y-58820000D01*
G36*
X54290000Y-59150000D02*
G01*
X53810000Y-59150000D01*
X54050000Y-58820000D01*
X54290000Y-59150000D01*
G37*
%TO.C,SW1*%
X36750000Y-45500000D02*
X36750000Y-43500000D01*
X37750000Y-42200000D02*
X38200000Y-41750000D01*
X37750000Y-46800000D02*
X38200000Y-47250000D01*
X38200000Y-41750000D02*
X40800000Y-41750000D01*
X38200000Y-47250000D02*
X40800000Y-47250000D01*
X41250000Y-42200000D02*
X40800000Y-41750000D01*
X41250000Y-46800000D02*
X40800000Y-47250000D01*
X42250000Y-45500000D02*
X42250000Y-43500000D01*
%TO.C,C5*%
X43490000Y-55740580D02*
X43490000Y-55459420D01*
X44510000Y-55740580D02*
X44510000Y-55459420D01*
%TO.C,C6*%
X60759420Y-74990000D02*
X61040580Y-74990000D01*
X60759420Y-76010000D02*
X61040580Y-76010000D01*
%TO.C,Q1*%
X45940000Y-54240000D02*
X45940000Y-55760000D01*
X45940000Y-55760000D02*
X46940000Y-55760000D01*
X45990000Y-54240000D02*
X45940000Y-54240000D01*
X47890000Y-54240000D02*
X47110000Y-54240000D01*
X48060000Y-55760000D02*
X49060000Y-55760000D01*
X49060000Y-54240000D02*
X49010000Y-54240000D01*
X49060000Y-55760000D02*
X49060000Y-54240000D01*
X47120000Y-53700000D02*
X47450000Y-53940000D01*
X47450000Y-53460000D01*
X47120000Y-53700000D01*
G36*
X47450000Y-53940000D02*
G01*
X47120000Y-53700000D01*
X47450000Y-53460000D01*
X47450000Y-53940000D01*
G37*
%TO.C,C9*%
X43565000Y-48861252D02*
X43565000Y-48338748D01*
X45035000Y-48861252D02*
X45035000Y-48338748D01*
%TO.C,SW2*%
X36750000Y-52500000D02*
X36750000Y-50500000D01*
X37750000Y-49200000D02*
X38200000Y-48750000D01*
X37750000Y-53800000D02*
X38200000Y-54250000D01*
X38200000Y-48750000D02*
X40800000Y-48750000D01*
X38200000Y-54250000D02*
X40800000Y-54250000D01*
X41250000Y-49200000D02*
X40800000Y-48750000D01*
X41250000Y-53800000D02*
X40800000Y-54250000D01*
X42250000Y-52500000D02*
X42250000Y-50500000D01*
%TO.C,R4*%
X48077500Y-58937258D02*
X48077500Y-58462742D01*
X49122500Y-58937258D02*
X49122500Y-58462742D01*
%TO.C,C11*%
X44165000Y-70561252D02*
X44165000Y-70038748D01*
X45635000Y-70561252D02*
X45635000Y-70038748D01*
%TO.C,R10*%
X48837258Y-70527500D02*
X48362742Y-70527500D01*
X48837258Y-71572500D02*
X48362742Y-71572500D01*
%TO.C,C2*%
X38359420Y-56690000D02*
X38640580Y-56690000D01*
X38359420Y-57710000D02*
X38640580Y-57710000D01*
%TO.C,R8*%
X39977500Y-68737258D02*
X39977500Y-68262742D01*
X41022500Y-68737258D02*
X41022500Y-68262742D01*
%TO.C,R1*%
X44777500Y-43262742D02*
X44777500Y-43737258D01*
X45822500Y-43262742D02*
X45822500Y-43737258D01*
%TO.C,C10*%
X59865000Y-79538748D02*
X59865000Y-80061252D01*
X61335000Y-79538748D02*
X61335000Y-80061252D01*
%TO.C,R6*%
X58962742Y-70877500D02*
X59437258Y-70877500D01*
X58962742Y-71922500D02*
X59437258Y-71922500D01*
%TO.C,R5*%
X52162742Y-61227500D02*
X52637258Y-61227500D01*
X52162742Y-62272500D02*
X52637258Y-62272500D01*
%TO.C,C4*%
X43690000Y-59840580D02*
X43690000Y-59559420D01*
X44710000Y-59840580D02*
X44710000Y-59559420D01*
%TO.C,C8*%
X43690000Y-63540580D02*
X43690000Y-63259420D01*
X44710000Y-63540580D02*
X44710000Y-63259420D01*
%TO.C,R3*%
X38262742Y-58477500D02*
X38737258Y-58477500D01*
X38262742Y-59522500D02*
X38737258Y-59522500D01*
%TO.C,C3*%
X41990000Y-62859420D02*
X41990000Y-63140580D01*
X43010000Y-62859420D02*
X43010000Y-63140580D01*
%TO.C,C1*%
X43790000Y-52340580D02*
X43790000Y-52059420D01*
X44810000Y-52340580D02*
X44810000Y-52059420D01*
%TO.C,C7*%
X46490000Y-43340580D02*
X46490000Y-43059420D01*
X47510000Y-43340580D02*
X47510000Y-43059420D01*
%TO.C,R9*%
X48362742Y-68777500D02*
X48837258Y-68777500D01*
X48362742Y-69822500D02*
X48837258Y-69822500D01*
%TD*%
M02*
