%TF.GenerationSoftware,KiCad,Pcbnew,10.0.5*%
%TF.CreationDate,2026-08-09T14:18:47+01:00*%
%TF.ProjectId,toshiba_hvac_esp32_integrated,746f7368-6962-4615-9f68-7661635f6573,rev?*%
%TF.SameCoordinates,Original*%
%TF.FileFunction,Copper,L1,Top*%
%TF.FilePolarity,Positive*%
%FSLAX46Y46*%
G04 Gerber Fmt 4.6, Leading zero omitted, Abs format (unit mm)*
G04 Created by KiCad (PCBNEW 10.0.5) date 2026-08-09 14:18:47*
%MOMM*%
%LPD*%
G01*
G04 APERTURE LIST*
G04 Aperture macros list*
%AMRoundRect*
0 Rectangle with rounded corners*
0 $1 Rounding radius*
0 $2 $3 $4 $5 $6 $7 $8 $9 X,Y pos of 4 corners*
0 Add a 4 corners polygon primitive as box body*
4,1,4,$2,$3,$4,$5,$6,$7,$8,$9,$2,$3,0*
0 Add four circle primitives for the rounded corners*
1,1,$1+$1,$2,$3*
1,1,$1+$1,$4,$5*
1,1,$1+$1,$6,$7*
1,1,$1+$1,$8,$9*
0 Add four rect primitives between the rounded corners*
20,1,$1+$1,$2,$3,$4,$5,0*
20,1,$1+$1,$4,$5,$6,$7,0*
20,1,$1+$1,$6,$7,$8,$9,0*
20,1,$1+$1,$8,$9,$2,$3,0*%
G04 Aperture macros list end*
%TA.AperFunction,SMDPad,CuDef*%
%ADD10RoundRect,0.225000X0.375000X-0.225000X0.375000X0.225000X-0.375000X0.225000X-0.375000X-0.225000X0*%
%TD*%
%TA.AperFunction,SMDPad,CuDef*%
%ADD11R,1.500000X0.900000*%
%TD*%
%TA.AperFunction,SMDPad,CuDef*%
%ADD12R,0.900000X1.500000*%
%TD*%
%TA.AperFunction,HeatsinkPad*%
%ADD13R,0.900000X0.900000*%
%TD*%
%TA.AperFunction,HeatsinkPad*%
%ADD14C,0.600000*%
%TD*%
%TA.AperFunction,SMDPad,CuDef*%
%ADD15RoundRect,0.375000X0.375000X-0.625000X0.375000X0.625000X-0.375000X0.625000X-0.375000X-0.625000X0*%
%TD*%
%TA.AperFunction,SMDPad,CuDef*%
%ADD16RoundRect,0.500000X1.400000X-0.500000X1.400000X0.500000X-1.400000X0.500000X-1.400000X-0.500000X0*%
%TD*%
%TA.AperFunction,SMDPad,CuDef*%
%ADD17RoundRect,0.150000X0.575000X-0.150000X0.575000X0.150000X-0.575000X0.150000X-0.575000X-0.150000X0*%
%TD*%
%TA.AperFunction,SMDPad,CuDef*%
%ADD18RoundRect,0.075000X0.650000X-0.075000X0.650000X0.075000X-0.650000X0.075000X-0.650000X-0.075000X0*%
%TD*%
%TA.AperFunction,ComponentPad*%
%ADD19O,2.100000X1.000000*%
%TD*%
%TA.AperFunction,ComponentPad*%
%ADD20O,1.600000X1.000000*%
%TD*%
%TA.AperFunction,SMDPad,CuDef*%
%ADD21RoundRect,0.062500X-0.350000X-0.062500X0.350000X-0.062500X0.350000X0.062500X-0.350000X0.062500X0*%
%TD*%
%TA.AperFunction,SMDPad,CuDef*%
%ADD22RoundRect,0.062500X-0.062500X-0.350000X0.062500X-0.350000X0.062500X0.350000X-0.062500X0.350000X0*%
%TD*%
%TA.AperFunction,HeatsinkPad*%
%ADD23R,2.600000X2.600000*%
%TD*%
%TA.AperFunction,SMDPad,CuDef*%
%ADD24RoundRect,0.100000X-0.637500X-0.100000X0.637500X-0.100000X0.637500X0.100000X-0.637500X0.100000X0*%
%TD*%
%TA.AperFunction,SMDPad,CuDef*%
%ADD25RoundRect,0.218750X0.256250X-0.218750X0.256250X0.218750X-0.256250X0.218750X-0.256250X-0.218750X0*%
%TD*%
%TA.AperFunction,ComponentPad*%
%ADD26C,1.219200*%
%TD*%
%TA.AperFunction,ViaPad*%
%ADD27C,0.600000*%
%TD*%
%TA.AperFunction,ViaPad*%
%ADD28C,0.450000*%
%TD*%
%TA.AperFunction,ViaPad*%
%ADD29C,0.500000*%
%TD*%
%TA.AperFunction,Conductor*%
%ADD30C,0.250000*%
%TD*%
%TA.AperFunction,Conductor*%
%ADD31C,0.500000*%
%TD*%
%TA.AperFunction,Conductor*%
%ADD32C,0.300000*%
%TD*%
%TA.AperFunction,Conductor*%
%ADD33C,0.400000*%
%TD*%
%TA.AperFunction,Conductor*%
%ADD34C,0.200000*%
%TD*%
G04 APERTURE END LIST*
D10*
%TO.P,D1,1*%
%TO.N,+5V*%
X37600000Y-75150000D03*
%TO.P,D1,2*%
%TO.N,+5V_AC*%
X37600000Y-71850000D03*
%TD*%
D11*
%TO.P,U1,1*%
%TO.N,GND*%
X40780000Y-40640000D03*
%TO.P,U1,2*%
%TO.N,+3V3*%
X40780000Y-41910000D03*
%TO.P,U1,3*%
%TO.N,EN*%
X40780000Y-43180000D03*
%TO.P,U1,4*%
%TO.N,N/C*%
X40780000Y-44450000D03*
%TO.P,U1,5*%
X40780000Y-45720000D03*
%TO.P,U1,6*%
X40780000Y-46990000D03*
%TO.P,U1,7*%
X40780000Y-48260000D03*
%TO.P,U1,8*%
%TO.N,AC_RX*%
X40780000Y-49530000D03*
%TO.P,U1,9*%
%TO.N,AC_TX*%
X40780000Y-50800000D03*
%TO.P,U1,10*%
%TO.N,N/C*%
X40780000Y-52070000D03*
%TO.P,U1,11*%
X40780000Y-53340000D03*
%TO.P,U1,12*%
X40780000Y-54610000D03*
%TO.P,U1,13*%
X40780000Y-55880000D03*
%TO.P,U1,14*%
X40780000Y-57150000D03*
D12*
%TO.P,U1,15*%
%TO.N,GND*%
X43815000Y-58400000D03*
%TO.P,U1,16*%
%TO.N,N/C*%
X45085000Y-58400000D03*
%TO.P,U1,17*%
X46355000Y-58400000D03*
%TO.P,U1,18*%
X47625000Y-58400000D03*
%TO.P,U1,19*%
X48895000Y-58400000D03*
%TO.P,U1,20*%
X50165000Y-58400000D03*
%TO.P,U1,21*%
X51435000Y-58400000D03*
%TO.P,U1,22*%
X52705000Y-58400000D03*
%TO.P,U1,23*%
X53975000Y-58400000D03*
%TO.P,U1,24*%
%TO.N,LED_CTRL*%
X55245000Y-58400000D03*
D11*
%TO.P,U1,25*%
%TO.N,IO0*%
X58280000Y-57150000D03*
%TO.P,U1,26*%
%TO.N,N/C*%
X58280000Y-55880000D03*
%TO.P,U1,27*%
X58280000Y-54610000D03*
%TO.P,U1,28*%
X58280000Y-53340000D03*
%TO.P,U1,29*%
X58280000Y-52070000D03*
%TO.P,U1,30*%
X58280000Y-50800000D03*
%TO.P,U1,31*%
X58280000Y-49530000D03*
%TO.P,U1,32*%
X58280000Y-48260000D03*
%TO.P,U1,33*%
X58280000Y-46990000D03*
%TO.P,U1,34*%
%TO.N,U0RXD*%
X58280000Y-45720000D03*
%TO.P,U1,35*%
%TO.N,U0TXD*%
X58280000Y-44450000D03*
%TO.P,U1,36*%
%TO.N,N/C*%
X58280000Y-43180000D03*
%TO.P,U1,37*%
X58280000Y-41910000D03*
%TO.P,U1,38*%
%TO.N,GND*%
X58280000Y-40640000D03*
D13*
%TO.P,U1,39*%
X46630000Y-46960000D03*
D14*
X46630000Y-47660000D03*
D13*
X46630000Y-48360000D03*
D14*
X46630000Y-49060000D03*
D13*
X46630000Y-49760000D03*
D14*
X47330000Y-46960000D03*
X47330000Y-48360000D03*
X47330000Y-49760000D03*
D13*
X48030000Y-46960000D03*
D14*
X48030000Y-47660000D03*
D13*
X48030000Y-48360000D03*
D14*
X48030000Y-49060000D03*
D13*
X48030000Y-49760000D03*
D14*
X48730000Y-46960000D03*
X48730000Y-48360000D03*
X48730000Y-49760000D03*
D13*
X49430000Y-46960000D03*
D14*
X49430000Y-47660000D03*
D13*
X49430000Y-48360000D03*
D14*
X49430000Y-49060000D03*
D13*
X49430000Y-49760000D03*
%TD*%
D15*
%TO.P,U3,1*%
%TO.N,GND*%
X57800000Y-78750000D03*
%TO.P,U3,2*%
%TO.N,+3V3*%
X60100000Y-78750000D03*
D16*
X60100000Y-72450000D03*
D15*
%TO.P,U3,3*%
%TO.N,+5V*%
X62400000Y-78750000D03*
%TD*%
D17*
%TO.P,J2,A1*%
%TO.N,GND*%
X56315000Y-67950000D03*
%TO.P,J2,A4*%
%TO.N,VBUS*%
X56315000Y-67150000D03*
D18*
%TO.P,J2,A5*%
%TO.N,CC1*%
X56315000Y-65950000D03*
%TO.P,J2,A6*%
%TO.N,USB_DP*%
X56315000Y-64950000D03*
%TO.P,J2,A7*%
%TO.N,USB_DM*%
X56315000Y-64450000D03*
%TO.P,J2,A8*%
%TO.N,N/C*%
X56315000Y-63450000D03*
D17*
%TO.P,J2,A9*%
%TO.N,VBUS*%
X56315000Y-62250000D03*
%TO.P,J2,A12*%
%TO.N,GND*%
X56315000Y-61450000D03*
%TO.P,J2,B1*%
X56315000Y-61450000D03*
%TO.P,J2,B4*%
%TO.N,VBUS*%
X56315000Y-62250000D03*
D18*
%TO.P,J2,B5*%
%TO.N,CC2*%
X56315000Y-62950000D03*
%TO.P,J2,B6*%
%TO.N,USB_DP*%
X56315000Y-63950000D03*
%TO.P,J2,B7*%
%TO.N,USB_DM*%
X56315000Y-65450000D03*
%TO.P,J2,B8*%
%TO.N,N/C*%
X56315000Y-66450000D03*
D17*
%TO.P,J2,B9*%
%TO.N,VBUS*%
X56315000Y-67150000D03*
%TO.P,J2,B12*%
%TO.N,GND*%
X56315000Y-67950000D03*
D19*
%TO.P,J2,SH*%
X57230000Y-69020000D03*
D20*
X61410000Y-69020000D03*
D19*
X57230000Y-60380000D03*
D20*
X61410000Y-60380000D03*
%TD*%
D21*
%TO.P,U4,1*%
%TO.N,N/C*%
X48062500Y-63250000D03*
%TO.P,U4,2*%
%TO.N,GND*%
X48062500Y-63750000D03*
%TO.P,U4,3*%
%TO.N,USB_DP*%
X48062500Y-64250000D03*
%TO.P,U4,4*%
%TO.N,USB_DM*%
X48062500Y-64750000D03*
%TO.P,U4,5*%
%TO.N,+3V3*%
X48062500Y-65250000D03*
%TO.P,U4,6*%
X48062500Y-65750000D03*
D22*
%TO.P,U4,7*%
X48750000Y-66437500D03*
%TO.P,U4,8*%
%TO.N,VBUS_SENSE*%
X49250000Y-66437500D03*
%TO.P,U4,9*%
%TO.N,N/C*%
X49750000Y-66437500D03*
%TO.P,U4,10*%
X50250000Y-66437500D03*
%TO.P,U4,11*%
X50750000Y-66437500D03*
%TO.P,U4,12*%
X51250000Y-66437500D03*
D21*
%TO.P,U4,13*%
X51937500Y-65750000D03*
%TO.P,U4,14*%
X51937500Y-65250000D03*
%TO.P,U4,15*%
X51937500Y-64750000D03*
%TO.P,U4,16*%
X51937500Y-64250000D03*
%TO.P,U4,17*%
X51937500Y-63750000D03*
%TO.P,U4,18*%
X51937500Y-63250000D03*
D22*
%TO.P,U4,19*%
%TO.N,RTS*%
X51250000Y-62562500D03*
%TO.P,U4,20*%
%TO.N,U0TXD*%
X50750000Y-62562500D03*
%TO.P,U4,21*%
%TO.N,U0RXD*%
X50250000Y-62562500D03*
%TO.P,U4,22*%
%TO.N,N/C*%
X49750000Y-62562500D03*
%TO.P,U4,23*%
%TO.N,DTR*%
X49250000Y-62562500D03*
%TO.P,U4,24*%
%TO.N,N/C*%
X48750000Y-62562500D03*
D23*
%TO.P,U4,25*%
%TO.N,GND*%
X50000000Y-64500000D03*
%TD*%
D24*
%TO.P,U2,1*%
%TO.N,AC_TX*%
X38637500Y-59975000D03*
%TO.P,U2,2*%
%TO.N,+3V3*%
X38637500Y-60625000D03*
%TO.P,U2,3*%
%TO.N,AC_RX*%
X38637500Y-61275000D03*
%TO.P,U2,4*%
%TO.N,N/C*%
X38637500Y-61925000D03*
%TO.P,U2,5*%
X38637500Y-62575000D03*
%TO.P,U2,6*%
X38637500Y-63225000D03*
%TO.P,U2,7*%
X38637500Y-63875000D03*
%TO.P,U2,8*%
X38637500Y-64525000D03*
%TO.P,U2,9*%
X38637500Y-65175000D03*
%TO.P,U2,10*%
%TO.N,SHIFT_OE*%
X38637500Y-65825000D03*
%TO.P,U2,11*%
%TO.N,GND*%
X44362500Y-65825000D03*
%TO.P,U2,12*%
%TO.N,N/C*%
X44362500Y-65175000D03*
%TO.P,U2,13*%
X44362500Y-64525000D03*
%TO.P,U2,14*%
X44362500Y-63875000D03*
%TO.P,U2,15*%
X44362500Y-63225000D03*
%TO.P,U2,16*%
X44362500Y-62575000D03*
%TO.P,U2,17*%
X44362500Y-61925000D03*
%TO.P,U2,18*%
%TO.N,ESP_RX_5V*%
X44362500Y-61275000D03*
%TO.P,U2,19*%
%TO.N,+5V*%
X44362500Y-60625000D03*
%TO.P,U2,20*%
%TO.N,ESP_TX_5V*%
X44362500Y-59975000D03*
%TD*%
D25*
%TO.P,D3,1*%
%TO.N,GND*%
X40500000Y-69287500D03*
%TO.P,D3,2*%
%TO.N,LED_A*%
X40500000Y-67712500D03*
%TD*%
D10*
%TO.P,D2,1*%
%TO.N,+5V*%
X40600000Y-75150000D03*
%TO.P,D2,2*%
%TO.N,VBUS*%
X40600000Y-71850000D03*
%TD*%
D26*
%TO.P,J1,1*%
%TO.N,ESP_TX_5V*%
X45847000Y-74353000D03*
%TO.P,J1,2*%
%TO.N,GND*%
X47846999Y-74353000D03*
%TO.P,J1,3*%
%TO.N,+5V_AC*%
X49847000Y-74353000D03*
%TO.P,J1,4*%
%TO.N,ESP_RX_5V*%
X51847001Y-74353000D03*
%TO.P,J1,5*%
%TO.N,N/C*%
X53846999Y-74353000D03*
%TD*%
D27*
%TO.N,+3V3*%
X60100000Y-53900000D03*
X60800000Y-73300000D03*
X47350000Y-66500000D03*
X46150000Y-46000000D03*
X37550000Y-59350000D03*
X44400000Y-41300000D03*
%TO.N,+5V*%
X44900000Y-72600000D03*
X42900000Y-61350000D03*
%TO.N,+5V_AC*%
X49500000Y-72650000D03*
X37600000Y-72700000D03*
%TO.N,CC1*%
X54600000Y-70600000D03*
%TO.N,CC2*%
X53000000Y-69500000D03*
%TO.N,DTR*%
X53150000Y-56300000D03*
D28*
X49250000Y-62100000D03*
X49500000Y-56300000D03*
D27*
%TO.N,EN*%
X45300000Y-45350000D03*
X47500000Y-55000000D03*
D28*
%TO.N,ESP_TX_5V*%
X45850000Y-59975000D03*
D27*
X45847000Y-67000000D03*
%TO.N,GND*%
X41500000Y-63000000D03*
X55000000Y-73000000D03*
X49200000Y-65400000D03*
X46900000Y-41300000D03*
X36200000Y-58500000D03*
X50800000Y-65400000D03*
X36200000Y-81600000D03*
X36200000Y-41500000D03*
D28*
X43150000Y-58850000D03*
D27*
X43700000Y-70600000D03*
X52500000Y-81500000D03*
X62800000Y-41500000D03*
X63200000Y-57000000D03*
%TO.N,IO0*%
X42300000Y-57150000D03*
X57650000Y-57150000D03*
%TO.N,LED_A*%
X41400000Y-67400000D03*
%TO.N,LED_CTRL*%
X39500000Y-69300000D03*
D28*
%TO.N,RTS*%
X51250000Y-61900000D03*
D27*
%TO.N,SHIFT_OE*%
X37350000Y-64500000D03*
D28*
%TO.N,U0RXD*%
X50150000Y-61700000D03*
D27*
X59900000Y-45720000D03*
%TO.N,U0TXD*%
X59150000Y-44450000D03*
D28*
X50750000Y-61350000D03*
%TO.N,USB_DM*%
X47000000Y-65150000D03*
X53800000Y-65450000D03*
X53800000Y-64450000D03*
%TO.N,USB_DP*%
X54950000Y-63950000D03*
X47200000Y-64250000D03*
X54950000Y-64950000D03*
D29*
%TO.N,VBUS*%
X55000000Y-62250000D03*
X55150000Y-67150000D03*
D27*
X41900000Y-70900000D03*
%TO.N,VBUS_SENSE*%
X49250000Y-67700000D03*
%TD*%
%TO.N,+3V3*%
D30*
X47500000Y-66349999D02*
X47350000Y-66500000D01*
D31*
X60100000Y-72450000D02*
X60100000Y-53900000D01*
D30*
X38050000Y-60625000D02*
X37550000Y-60125000D01*
D32*
X46150000Y-42560000D02*
X46150000Y-46000000D01*
D30*
X38638000Y-60625000D02*
X38050000Y-60625000D01*
X48062000Y-65250000D02*
X47500000Y-65250000D01*
D32*
X45500000Y-41910000D02*
X46150000Y-42560000D01*
X60100000Y-78750000D02*
X60100000Y-73400000D01*
D30*
X37550000Y-60125000D02*
X37550000Y-59350000D01*
D32*
X60100000Y-72600000D02*
X60800000Y-73300000D01*
D30*
X47620000Y-66438000D02*
X47350000Y-66500000D01*
X47500000Y-65250000D02*
X47500000Y-65750000D01*
X48750000Y-66438000D02*
X48310000Y-66438000D01*
X48310000Y-66438000D02*
X47620000Y-66438000D01*
X47500000Y-65750000D02*
X47500000Y-66349999D01*
X48062000Y-65750000D02*
X47500000Y-65750000D01*
X44400000Y-41910000D02*
X44400000Y-41300000D01*
D32*
X40780000Y-41910000D02*
X45500000Y-41910000D01*
%TO.N,+5V*%
X40600000Y-75150000D02*
X43000000Y-75150000D01*
X44900000Y-73250000D02*
X44900000Y-72600000D01*
D33*
X40600000Y-75150000D02*
X40600000Y-80300000D01*
D32*
X44362000Y-60625000D02*
X42900000Y-60625000D01*
D33*
X37600000Y-80300000D02*
X61200000Y-80300000D01*
X61200000Y-80300000D02*
X62400000Y-79100000D01*
D32*
X42900000Y-60625000D02*
X42900000Y-61350000D01*
D33*
X37600000Y-75150000D02*
X37600000Y-80300000D01*
D32*
X44600000Y-73550000D02*
X44900000Y-73250000D01*
D33*
X62400000Y-79100000D02*
X62400000Y-78750000D01*
D32*
X43000000Y-75150000D02*
X44600000Y-73550000D01*
X42900000Y-61350000D02*
X42900000Y-75150000D01*
%TO.N,+5V_AC*%
D33*
X37600000Y-71850000D02*
X37600000Y-72700000D01*
X49500000Y-72650000D02*
X49847000Y-73000000D01*
X49847000Y-73000000D02*
X49847000Y-74353000D01*
%TO.N,AC_RX*%
D30*
X39900000Y-49530000D02*
X36900000Y-52530000D01*
X36900000Y-61275000D02*
X38638000Y-61275000D01*
X36900000Y-52530000D02*
X36900000Y-61275000D01*
X40780000Y-49530000D02*
X39900000Y-49530000D01*
%TO.N,AC_TX*%
X38638000Y-52062000D02*
X38638000Y-59975000D01*
X39900000Y-50800000D02*
X38638000Y-52062000D01*
X40780000Y-50800000D02*
X39900000Y-50800000D01*
%TO.N,CC1*%
D34*
X56315000Y-65950000D02*
X54600000Y-65950000D01*
X54600000Y-65950000D02*
X54600000Y-70600000D01*
%TO.N,CC2*%
X53000000Y-62950000D02*
X53000000Y-69500000D01*
X56315000Y-62950000D02*
X53000000Y-62950000D01*
%TO.N,DTR*%
X49250000Y-62562000D02*
X49250000Y-62100000D01*
X49500000Y-56300000D02*
X53150000Y-56300000D01*
%TO.N,EN*%
D30*
X47000000Y-53650000D02*
X47500000Y-54150000D01*
X45300000Y-43880000D02*
X45300000Y-45350000D01*
X45300000Y-46900000D02*
X45750000Y-47350000D01*
X45750000Y-47350000D02*
X45750000Y-52400000D01*
X45300000Y-45350000D02*
X45300000Y-46900000D01*
X45750000Y-52400000D02*
X47000000Y-53650000D01*
X40780000Y-43180000D02*
X44600000Y-43180000D01*
X47500000Y-54150000D02*
X47500000Y-55000000D01*
X44600000Y-43180000D02*
X45300000Y-43880000D01*
%TO.N,ESP_RX_5V*%
X46450000Y-61275000D02*
X46450000Y-67600000D01*
X46450000Y-67600000D02*
X47150000Y-68300000D01*
X51847000Y-69247000D02*
X51847000Y-74353000D01*
X44362000Y-61275000D02*
X46450000Y-61275000D01*
X50900000Y-68300000D02*
X51847000Y-69247000D01*
X47150000Y-68300000D02*
X50900000Y-68300000D01*
%TO.N,ESP_TX_5V*%
X45847000Y-67000000D02*
X45847000Y-74353000D01*
X44362000Y-59975000D02*
X45850000Y-59975000D01*
%TO.N,GND*%
X43815000Y-58400000D02*
X43500000Y-58400000D01*
X56315000Y-61450000D02*
X55200000Y-61450000D01*
X43500000Y-58400000D02*
X43150000Y-58750000D01*
X56315000Y-67950000D02*
X55700000Y-68400000D01*
%TO.N,IO0*%
X57650000Y-57150000D02*
X42300000Y-57150000D01*
X58280000Y-57150000D02*
X57650000Y-57150000D01*
%TO.N,LED_A*%
X41000000Y-67713000D02*
X41310000Y-67400000D01*
X40500000Y-67713000D02*
X41000000Y-67713000D01*
X41310000Y-67400000D02*
X41400000Y-67400000D01*
%TO.N,LED_CTRL*%
X55245000Y-59450000D02*
X39700000Y-59450000D01*
X39500000Y-69100000D02*
X39500000Y-69300000D01*
X55245000Y-58400000D02*
X55245000Y-59450000D01*
X39700000Y-68900000D02*
X39500000Y-69100000D01*
X39700000Y-59450000D02*
X39700000Y-68900000D01*
%TO.N,RTS*%
D34*
X51250000Y-62562000D02*
X51250000Y-61900000D01*
%TO.N,SHIFT_OE*%
D30*
X38638000Y-65825000D02*
X37550000Y-65825000D01*
X37550000Y-65825000D02*
X37350000Y-65625000D01*
X37350000Y-65625000D02*
X37350000Y-64500000D01*
%TO.N,U0RXD*%
D34*
X50150000Y-61900000D02*
X50150000Y-61700000D01*
X50250000Y-62000000D02*
X50150000Y-61900000D01*
D30*
X58280000Y-45720000D02*
X59900000Y-45720000D01*
D34*
X50250000Y-62562000D02*
X50250000Y-62000000D01*
%TO.N,U0TXD*%
X50750000Y-62562000D02*
X50750000Y-61350000D01*
D30*
X58280000Y-44450000D02*
X59150000Y-44450000D01*
%TO.N,USB_DM*%
D34*
X56315000Y-65450000D02*
X53800000Y-65450000D01*
X47500000Y-64750000D02*
X47000000Y-65150000D01*
X56315000Y-64450000D02*
X53800000Y-64450000D01*
X48062000Y-64750000D02*
X47500000Y-64750000D01*
%TO.N,USB_DP*%
X56315000Y-63950000D02*
X54950000Y-63950000D01*
X48062000Y-64250000D02*
X47200000Y-64250000D01*
X56315000Y-64950000D02*
X54950000Y-64950000D01*
%TO.N,VBUS*%
D30*
X40950000Y-71850000D02*
X40600000Y-71850000D01*
X41900000Y-70900000D02*
X40950000Y-71850000D01*
X56315000Y-62250000D02*
X55000000Y-62250000D01*
X56315000Y-67150000D02*
X55150000Y-67150000D01*
%TO.N,VBUS_SENSE*%
D34*
X49250000Y-66438000D02*
X49250000Y-67700000D01*
%TD*%
%TA.AperFunction,Conductor*%
%TO.N,GND*%
G36*
X46083691Y-61619407D02*
G01*
X46119655Y-61668907D01*
X46124500Y-61699500D01*
X46124500Y-66427181D01*
X46105593Y-66485372D01*
X46056093Y-66521336D01*
X45999879Y-66522807D01*
X45912892Y-66499500D01*
X45781108Y-66499500D01*
X45703200Y-66520375D01*
X45653809Y-66533609D01*
X45539690Y-66599496D01*
X45446496Y-66692690D01*
X45380609Y-66806809D01*
X45378843Y-66813400D01*
X45346500Y-66934108D01*
X45346500Y-67065892D01*
X45374260Y-67169495D01*
X45380609Y-67193190D01*
X45446496Y-67307309D01*
X45446498Y-67307311D01*
X45446500Y-67307314D01*
X45492505Y-67353319D01*
X45520281Y-67407834D01*
X45521500Y-67423321D01*
X45521500Y-72305995D01*
X45502593Y-72364186D01*
X45453093Y-72400150D01*
X45391907Y-72400150D01*
X45342407Y-72364186D01*
X45336764Y-72355495D01*
X45300503Y-72292690D01*
X45300501Y-72292688D01*
X45300500Y-72292686D01*
X45207314Y-72199500D01*
X45207311Y-72199498D01*
X45207309Y-72199496D01*
X45093189Y-72133609D01*
X45093191Y-72133609D01*
X45043799Y-72120375D01*
X44965892Y-72099500D01*
X44834108Y-72099500D01*
X44756200Y-72120375D01*
X44706809Y-72133609D01*
X44592690Y-72199496D01*
X44499496Y-72292690D01*
X44433609Y-72406809D01*
X44429129Y-72423529D01*
X44399500Y-72534108D01*
X44399500Y-72665892D01*
X44423495Y-72755444D01*
X44433609Y-72793190D01*
X44499496Y-72907309D01*
X44499498Y-72907311D01*
X44499500Y-72907314D01*
X44520505Y-72928319D01*
X44548281Y-72982834D01*
X44549500Y-72998321D01*
X44549500Y-73063810D01*
X44530593Y-73122001D01*
X44520504Y-73133814D01*
X43419504Y-74234814D01*
X43364987Y-74262591D01*
X43304555Y-74253020D01*
X43261290Y-74209755D01*
X43250500Y-74164810D01*
X43250500Y-66255193D01*
X43269407Y-66197002D01*
X43318907Y-66161038D01*
X43380093Y-66161038D01*
X43419504Y-66185189D01*
X43486956Y-66252641D01*
X43599848Y-66310163D01*
X43599852Y-66310164D01*
X43693515Y-66324999D01*
X44162498Y-66324999D01*
X44162500Y-66324998D01*
X44162500Y-66025001D01*
X44562500Y-66025001D01*
X44562500Y-66324998D01*
X44562501Y-66324999D01*
X45031483Y-66324999D01*
X45031485Y-66324998D01*
X45125141Y-66310166D01*
X45125151Y-66310163D01*
X45238043Y-66252641D01*
X45327641Y-66163043D01*
X45385163Y-66050151D01*
X45385164Y-66050147D01*
X45389148Y-66025000D01*
X44562501Y-66025000D01*
X44562500Y-66025001D01*
X44162500Y-66025001D01*
X44162500Y-65924000D01*
X44181407Y-65865809D01*
X44230907Y-65829845D01*
X44261500Y-65825000D01*
X44362499Y-65825000D01*
X44362500Y-65824999D01*
X44362500Y-65724000D01*
X44381407Y-65665809D01*
X44430907Y-65629845D01*
X44461500Y-65625000D01*
X45389148Y-65625000D01*
X45385164Y-65599852D01*
X45385163Y-65599848D01*
X45327641Y-65486956D01*
X45311260Y-65470575D01*
X45283483Y-65416058D01*
X45290700Y-65360583D01*
X45297585Y-65344991D01*
X45300500Y-65319865D01*
X45300499Y-65030136D01*
X45297585Y-65005009D01*
X45252206Y-64902235D01*
X45252205Y-64902234D01*
X45248500Y-64893843D01*
X45250875Y-64892794D01*
X45237462Y-64847261D01*
X45250526Y-64807051D01*
X45248500Y-64806157D01*
X45252204Y-64797766D01*
X45252206Y-64797765D01*
X45297585Y-64694991D01*
X45300500Y-64669865D01*
X45300499Y-64380136D01*
X45297585Y-64355009D01*
X45252206Y-64252235D01*
X45252205Y-64252234D01*
X45248500Y-64243843D01*
X45250875Y-64242794D01*
X45237462Y-64197261D01*
X45250526Y-64157051D01*
X45248500Y-64156157D01*
X45252204Y-64147766D01*
X45252206Y-64147765D01*
X45297585Y-64044991D01*
X45300500Y-64019865D01*
X45300499Y-63730136D01*
X45297585Y-63705009D01*
X45252206Y-63602235D01*
X45252205Y-63602234D01*
X45248500Y-63593843D01*
X45250875Y-63592794D01*
X45237462Y-63547261D01*
X45250526Y-63507051D01*
X45248500Y-63506157D01*
X45252204Y-63497766D01*
X45252206Y-63497765D01*
X45297585Y-63394991D01*
X45300500Y-63369865D01*
X45300499Y-63080136D01*
X45297585Y-63055009D01*
X45252206Y-62952235D01*
X45252205Y-62952234D01*
X45248500Y-62943843D01*
X45250875Y-62942794D01*
X45237462Y-62897261D01*
X45250526Y-62857051D01*
X45248500Y-62856157D01*
X45252204Y-62847766D01*
X45252206Y-62847765D01*
X45297585Y-62744991D01*
X45300500Y-62719865D01*
X45300499Y-62430136D01*
X45297585Y-62405009D01*
X45252206Y-62302235D01*
X45252205Y-62302234D01*
X45248500Y-62293843D01*
X45250875Y-62292794D01*
X45237462Y-62247261D01*
X45250526Y-62207051D01*
X45248500Y-62206157D01*
X45252204Y-62197766D01*
X45252206Y-62197765D01*
X45297585Y-62094991D01*
X45300500Y-62069865D01*
X45300499Y-61780136D01*
X45297585Y-61755009D01*
X45293713Y-61746240D01*
X45290732Y-61739487D01*
X45284525Y-61678617D01*
X45315281Y-61625724D01*
X45371254Y-61601011D01*
X45381297Y-61600500D01*
X46025500Y-61600500D01*
X46083691Y-61619407D01*
G37*
%TD.AperFunction*%
%TA.AperFunction,Conductor*%
G36*
X39780576Y-51476491D02*
G01*
X39823841Y-51519756D01*
X39833412Y-51580188D01*
X39832729Y-51584012D01*
X39829501Y-51600241D01*
X39829500Y-51600253D01*
X39829500Y-52539746D01*
X39829501Y-52539758D01*
X39841132Y-52598227D01*
X39841134Y-52598233D01*
X39875723Y-52649998D01*
X39892332Y-52708886D01*
X39875723Y-52760002D01*
X39841134Y-52811766D01*
X39841132Y-52811772D01*
X39829501Y-52870241D01*
X39829500Y-52870253D01*
X39829500Y-53809746D01*
X39829501Y-53809758D01*
X39841132Y-53868227D01*
X39841134Y-53868233D01*
X39875723Y-53919998D01*
X39892332Y-53978886D01*
X39875723Y-54030002D01*
X39841134Y-54081766D01*
X39841132Y-54081772D01*
X39829501Y-54140241D01*
X39829500Y-54140253D01*
X39829500Y-55079746D01*
X39829501Y-55079758D01*
X39841132Y-55138227D01*
X39841134Y-55138233D01*
X39875723Y-55189998D01*
X39892332Y-55248886D01*
X39875723Y-55300002D01*
X39841134Y-55351766D01*
X39841132Y-55351772D01*
X39829501Y-55410241D01*
X39829500Y-55410253D01*
X39829500Y-56349746D01*
X39829501Y-56349758D01*
X39841132Y-56408227D01*
X39841134Y-56408233D01*
X39875723Y-56459998D01*
X39892332Y-56518886D01*
X39875723Y-56570002D01*
X39841134Y-56621766D01*
X39841132Y-56621772D01*
X39829501Y-56680241D01*
X39829500Y-56680253D01*
X39829500Y-57619746D01*
X39829501Y-57619758D01*
X39841132Y-57678227D01*
X39841133Y-57678231D01*
X39885448Y-57744552D01*
X39951769Y-57788867D01*
X39996231Y-57797711D01*
X40010241Y-57800498D01*
X40010246Y-57800498D01*
X40010252Y-57800500D01*
X40010253Y-57800500D01*
X41549747Y-57800500D01*
X41549748Y-57800500D01*
X41608231Y-57788867D01*
X41674552Y-57744552D01*
X41718867Y-57678231D01*
X41730500Y-57619748D01*
X41730500Y-57527321D01*
X41749407Y-57469130D01*
X41798907Y-57433166D01*
X41860093Y-57433166D01*
X41899501Y-57457315D01*
X41992686Y-57550500D01*
X41992688Y-57550501D01*
X41992690Y-57550503D01*
X42106810Y-57616390D01*
X42106808Y-57616390D01*
X42106812Y-57616391D01*
X42106814Y-57616392D01*
X42234108Y-57650500D01*
X42234110Y-57650500D01*
X42365890Y-57650500D01*
X42365892Y-57650500D01*
X42493186Y-57616392D01*
X42493188Y-57616390D01*
X42493190Y-57616390D01*
X42607309Y-57550503D01*
X42607310Y-57550502D01*
X42607314Y-57550500D01*
X42624761Y-57533053D01*
X42653319Y-57504496D01*
X42707836Y-57476719D01*
X42723322Y-57475500D01*
X42968899Y-57475500D01*
X43027090Y-57494407D01*
X43063054Y-57543907D01*
X43067239Y-57585912D01*
X43065000Y-57605206D01*
X43065000Y-58199999D01*
X43065001Y-58200000D01*
X43716000Y-58200000D01*
X43774191Y-58218907D01*
X43810155Y-58268407D01*
X43815000Y-58299000D01*
X43815000Y-58501000D01*
X43796093Y-58559191D01*
X43746593Y-58595155D01*
X43716000Y-58600000D01*
X43065002Y-58600000D01*
X43065001Y-58600001D01*
X43065001Y-59025500D01*
X43046094Y-59083691D01*
X42996594Y-59119655D01*
X42966001Y-59124500D01*
X39742853Y-59124500D01*
X39657147Y-59124500D01*
X39574362Y-59146682D01*
X39500138Y-59189535D01*
X39439535Y-59250138D01*
X39396682Y-59324362D01*
X39374500Y-59407148D01*
X39374500Y-59475500D01*
X39355593Y-59533691D01*
X39306093Y-59569655D01*
X39275500Y-59574500D01*
X39062500Y-59574500D01*
X39004309Y-59555593D01*
X38968345Y-59506093D01*
X38963500Y-59475500D01*
X38963500Y-52237833D01*
X38982407Y-52179642D01*
X38992490Y-52167835D01*
X39665629Y-51494695D01*
X39720144Y-51466920D01*
X39780576Y-51476491D01*
G37*
%TD.AperFunction*%
%TA.AperFunction,Conductor*%
G36*
X40359191Y-39358907D02*
G01*
X40395155Y-39408407D01*
X40400000Y-39439000D01*
X40400000Y-39791000D01*
X40381093Y-39849191D01*
X40331593Y-39885155D01*
X40301000Y-39890000D01*
X39985210Y-39890000D01*
X39985208Y-39890001D01*
X39960125Y-39892909D01*
X39857522Y-39938213D01*
X39778213Y-40017522D01*
X39732909Y-40120127D01*
X39730000Y-40145202D01*
X39730000Y-40439999D01*
X39730001Y-40440000D01*
X41829998Y-40440000D01*
X41829999Y-40439999D01*
X41829999Y-40145210D01*
X41829998Y-40145208D01*
X41827090Y-40120125D01*
X41781786Y-40017522D01*
X41733268Y-39969004D01*
X41705491Y-39914487D01*
X41715062Y-39854055D01*
X41758327Y-39810790D01*
X41803272Y-39800000D01*
X57256728Y-39800000D01*
X57314919Y-39818907D01*
X57350883Y-39868407D01*
X57350883Y-39929593D01*
X57326732Y-39969004D01*
X57278213Y-40017522D01*
X57232909Y-40120127D01*
X57230000Y-40145202D01*
X57230000Y-40439999D01*
X57230001Y-40440000D01*
X59329998Y-40440000D01*
X59329999Y-40439999D01*
X59329999Y-40145210D01*
X59329998Y-40145208D01*
X59327090Y-40120125D01*
X59281786Y-40017522D01*
X59202477Y-39938213D01*
X59099872Y-39892909D01*
X59074797Y-39890000D01*
X58799000Y-39890000D01*
X58740809Y-39871093D01*
X58704845Y-39821593D01*
X58700000Y-39791000D01*
X58700000Y-39439000D01*
X58718907Y-39380809D01*
X58768407Y-39344845D01*
X58799000Y-39340000D01*
X63808499Y-39340000D01*
X63866690Y-39358907D01*
X63902654Y-39408407D01*
X63907499Y-39439000D01*
X63907499Y-82604500D01*
X63888592Y-82662691D01*
X63839092Y-82698655D01*
X63808499Y-82703500D01*
X35251500Y-82703500D01*
X35193309Y-82684593D01*
X35157345Y-82635093D01*
X35152500Y-82604500D01*
X35152500Y-71591510D01*
X36799500Y-71591510D01*
X36799500Y-72108489D01*
X36815281Y-72208125D01*
X36815283Y-72208132D01*
X36876470Y-72328217D01*
X36876472Y-72328220D01*
X36971780Y-72423528D01*
X36971782Y-72423529D01*
X37062373Y-72469688D01*
X37105638Y-72512952D01*
X37115209Y-72573384D01*
X37113055Y-72583519D01*
X37112897Y-72584108D01*
X37099500Y-72634108D01*
X37099500Y-72765892D01*
X37121034Y-72846258D01*
X37133609Y-72893190D01*
X37199496Y-73007309D01*
X37199498Y-73007311D01*
X37199500Y-73007314D01*
X37292686Y-73100500D01*
X37292688Y-73100501D01*
X37292690Y-73100503D01*
X37406810Y-73166390D01*
X37406808Y-73166390D01*
X37406812Y-73166391D01*
X37406814Y-73166392D01*
X37534108Y-73200500D01*
X37534110Y-73200500D01*
X37665890Y-73200500D01*
X37665892Y-73200500D01*
X37793186Y-73166392D01*
X37793188Y-73166390D01*
X37793190Y-73166390D01*
X37907309Y-73100503D01*
X37907309Y-73100502D01*
X37907314Y-73100500D01*
X38000500Y-73007314D01*
X38004019Y-73001219D01*
X38066390Y-72893190D01*
X38066390Y-72893188D01*
X38066392Y-72893186D01*
X38100500Y-72765892D01*
X38100500Y-72634108D01*
X38086945Y-72583519D01*
X38090146Y-72522419D01*
X38128651Y-72474869D01*
X38137611Y-72469695D01*
X38228220Y-72423528D01*
X38323528Y-72328220D01*
X38384719Y-72208126D01*
X38400500Y-72108488D01*
X38400500Y-71591512D01*
X38384719Y-71491874D01*
X38384716Y-71491869D01*
X38384716Y-71491867D01*
X38323529Y-71371782D01*
X38323528Y-71371780D01*
X38228220Y-71276472D01*
X38228217Y-71276470D01*
X38108132Y-71215283D01*
X38108127Y-71215281D01*
X38108126Y-71215281D01*
X38066518Y-71208691D01*
X38008490Y-71199500D01*
X38008488Y-71199500D01*
X37191512Y-71199500D01*
X37191510Y-71199500D01*
X37091874Y-71215281D01*
X37091867Y-71215283D01*
X36971782Y-71276470D01*
X36876470Y-71371782D01*
X36815283Y-71491867D01*
X36815281Y-71491874D01*
X36799500Y-71591510D01*
X35152500Y-71591510D01*
X35152500Y-52487147D01*
X36574500Y-52487147D01*
X36574500Y-61317853D01*
X36596682Y-61400638D01*
X36639535Y-61474862D01*
X36700138Y-61535465D01*
X36774362Y-61578318D01*
X36857147Y-61600500D01*
X36942853Y-61600500D01*
X37618704Y-61600500D01*
X37676895Y-61619407D01*
X37712859Y-61668907D01*
X37712859Y-61730093D01*
X37709274Y-61739473D01*
X37703258Y-61753098D01*
X37702414Y-61755011D01*
X37699500Y-61780130D01*
X37699500Y-62069859D01*
X37699501Y-62069864D01*
X37702414Y-62094990D01*
X37726437Y-62149397D01*
X37742864Y-62186600D01*
X37751500Y-62206157D01*
X37749126Y-62207205D01*
X37762537Y-62252757D01*
X37749477Y-62292949D01*
X37751500Y-62293843D01*
X37747794Y-62302234D01*
X37747794Y-62302235D01*
X37744671Y-62309309D01*
X37702414Y-62405011D01*
X37699500Y-62430130D01*
X37699500Y-62719859D01*
X37699501Y-62719864D01*
X37702414Y-62744990D01*
X37712355Y-62767503D01*
X37741719Y-62834007D01*
X37751500Y-62856157D01*
X37749126Y-62857205D01*
X37762537Y-62902757D01*
X37749477Y-62942949D01*
X37751500Y-62943843D01*
X37747794Y-62952234D01*
X37747794Y-62952235D01*
X37727635Y-62997891D01*
X37702414Y-63055011D01*
X37699500Y-63080130D01*
X37699500Y-63369859D01*
X37699501Y-63369864D01*
X37702414Y-63394990D01*
X37711301Y-63415117D01*
X37737276Y-63473945D01*
X37751500Y-63506157D01*
X37749126Y-63507205D01*
X37762537Y-63552757D01*
X37749477Y-63592949D01*
X37751500Y-63593843D01*
X37747794Y-63602234D01*
X37747794Y-63602235D01*
X37734433Y-63632495D01*
X37702414Y-63705011D01*
X37699500Y-63730130D01*
X37699500Y-63952383D01*
X37680593Y-64010574D01*
X37631093Y-64046538D01*
X37569907Y-64046538D01*
X37550998Y-64038118D01*
X37543189Y-64033609D01*
X37543186Y-64033608D01*
X37415892Y-63999500D01*
X37284108Y-63999500D01*
X37208108Y-64019864D01*
X37156809Y-64033609D01*
X37042690Y-64099496D01*
X36949496Y-64192690D01*
X36883609Y-64306809D01*
X36875142Y-64338410D01*
X36849500Y-64434108D01*
X36849500Y-64565892D01*
X36875142Y-64661589D01*
X36883609Y-64693190D01*
X36949496Y-64807309D01*
X36949498Y-64807311D01*
X36949500Y-64807314D01*
X36995505Y-64853319D01*
X37023281Y-64907834D01*
X37024500Y-64923321D01*
X37024500Y-65582147D01*
X37024500Y-65667853D01*
X37038808Y-65721251D01*
X37046683Y-65750643D01*
X37089531Y-65824857D01*
X37089535Y-65824862D01*
X37289532Y-66024860D01*
X37289533Y-66024860D01*
X37289535Y-66024862D01*
X37289534Y-66024862D01*
X37324912Y-66060239D01*
X37350138Y-66085465D01*
X37387247Y-66106889D01*
X37387249Y-66106891D01*
X37403560Y-66116308D01*
X37424361Y-66128318D01*
X37507147Y-66150501D01*
X37507149Y-66150501D01*
X37598916Y-66150501D01*
X37598932Y-66150500D01*
X37759522Y-66150500D01*
X37817713Y-66169407D01*
X37825262Y-66175854D01*
X37827233Y-66177204D01*
X37827235Y-66177206D01*
X37930009Y-66222585D01*
X37955135Y-66225500D01*
X39275500Y-66225499D01*
X39333691Y-66244406D01*
X39369655Y-66293906D01*
X39374500Y-66324499D01*
X39374500Y-68724165D01*
X39355593Y-68782356D01*
X39345506Y-68794166D01*
X39314255Y-68825416D01*
X39293756Y-68841146D01*
X39192688Y-68899498D01*
X39099496Y-68992690D01*
X39033609Y-69106809D01*
X39033608Y-69106814D01*
X38999500Y-69234108D01*
X38999500Y-69365892D01*
X39003770Y-69381827D01*
X39033609Y-69493190D01*
X39099496Y-69607309D01*
X39099498Y-69607311D01*
X39099500Y-69607314D01*
X39192686Y-69700500D01*
X39192688Y-69700501D01*
X39192690Y-69700503D01*
X39306810Y-69766390D01*
X39306808Y-69766390D01*
X39306812Y-69766391D01*
X39306814Y-69766392D01*
X39434108Y-69800500D01*
X39434110Y-69800500D01*
X39565890Y-69800500D01*
X39565892Y-69800500D01*
X39693186Y-69766392D01*
X39693189Y-69766389D01*
X39696249Y-69765123D01*
X39698615Y-69764936D01*
X39699454Y-69764712D01*
X39699495Y-69764867D01*
X39757246Y-69760322D01*
X39809415Y-69792291D01*
X39813018Y-69796767D01*
X39873485Y-69876504D01*
X39873490Y-69876509D01*
X39987117Y-69962675D01*
X39987117Y-69962676D01*
X40119772Y-70014988D01*
X40203133Y-70024999D01*
X40203140Y-70025000D01*
X40299999Y-70025000D01*
X40300000Y-70024999D01*
X40300000Y-69487501D01*
X40700000Y-69487501D01*
X40700000Y-70024999D01*
X40700001Y-70025000D01*
X40796860Y-70025000D01*
X40796866Y-70024999D01*
X40880227Y-70014988D01*
X41012882Y-69962676D01*
X41012882Y-69962675D01*
X41126509Y-69876509D01*
X41212675Y-69762882D01*
X41212676Y-69762882D01*
X41264988Y-69630227D01*
X41274999Y-69546866D01*
X41275000Y-69546860D01*
X41275000Y-69487501D01*
X41274999Y-69487500D01*
X40700001Y-69487500D01*
X40700000Y-69487501D01*
X40300000Y-69487501D01*
X40300000Y-68550001D01*
X40700000Y-68550001D01*
X40700000Y-69087499D01*
X40700001Y-69087500D01*
X41274999Y-69087500D01*
X41275000Y-69087499D01*
X41275000Y-69028139D01*
X41274999Y-69028133D01*
X41264988Y-68944772D01*
X41212676Y-68812117D01*
X41126509Y-68698490D01*
X41012882Y-68612324D01*
X41012882Y-68612323D01*
X40880227Y-68560011D01*
X40796866Y-68550000D01*
X40700001Y-68550000D01*
X40700000Y-68550001D01*
X40300000Y-68550001D01*
X40299999Y-68550000D01*
X40203133Y-68550000D01*
X40136304Y-68558026D01*
X40076274Y-68546192D01*
X40034665Y-68501333D01*
X40025500Y-68459732D01*
X40025500Y-68437072D01*
X40044407Y-68378881D01*
X40093907Y-68342917D01*
X40139984Y-68339291D01*
X40192850Y-68347664D01*
X40210752Y-68350500D01*
X40210754Y-68350500D01*
X40789249Y-68350500D01*
X40817803Y-68345976D01*
X40887420Y-68334951D01*
X41005751Y-68274658D01*
X41099658Y-68180751D01*
X41159951Y-68062420D01*
X41164289Y-68035027D01*
X41192063Y-67980515D01*
X41200532Y-67973085D01*
X41201110Y-67972501D01*
X41201114Y-67972499D01*
X41230672Y-67942654D01*
X41245437Y-67927889D01*
X41299953Y-67900114D01*
X41328361Y-67899743D01*
X41334106Y-67900499D01*
X41334108Y-67900500D01*
X41334110Y-67900500D01*
X41465890Y-67900500D01*
X41465892Y-67900500D01*
X41593186Y-67866392D01*
X41593188Y-67866390D01*
X41593190Y-67866390D01*
X41707309Y-67800503D01*
X41707309Y-67800502D01*
X41707314Y-67800500D01*
X41800500Y-67707314D01*
X41856370Y-67610545D01*
X41866390Y-67593190D01*
X41866390Y-67593188D01*
X41866392Y-67593186D01*
X41900500Y-67465892D01*
X41900500Y-67334108D01*
X41866392Y-67206814D01*
X41866390Y-67206811D01*
X41866390Y-67206809D01*
X41800503Y-67092690D01*
X41800501Y-67092688D01*
X41800500Y-67092686D01*
X41707314Y-66999500D01*
X41707311Y-66999498D01*
X41707309Y-66999496D01*
X41593189Y-66933609D01*
X41593191Y-66933609D01*
X41543799Y-66920375D01*
X41465892Y-66899500D01*
X41334108Y-66899500D01*
X41256200Y-66920375D01*
X41206809Y-66933609D01*
X41092690Y-66999496D01*
X41092684Y-66999501D01*
X41014274Y-67077910D01*
X40959757Y-67105687D01*
X40899325Y-67096115D01*
X40887420Y-67090049D01*
X40860012Y-67085708D01*
X40789249Y-67074500D01*
X40789246Y-67074500D01*
X40210754Y-67074500D01*
X40210751Y-67074500D01*
X40139987Y-67085708D01*
X40079555Y-67076137D01*
X40036290Y-67032872D01*
X40025500Y-66987927D01*
X40025500Y-59874500D01*
X40044407Y-59816309D01*
X40093907Y-59780345D01*
X40124500Y-59775500D01*
X43325500Y-59775500D01*
X43383691Y-59794407D01*
X43419655Y-59843907D01*
X43424500Y-59874500D01*
X43424500Y-60119859D01*
X43424501Y-60119864D01*
X43427415Y-60144992D01*
X43428644Y-60149509D01*
X43425677Y-60210622D01*
X43387356Y-60258320D01*
X43333117Y-60274500D01*
X42946144Y-60274500D01*
X42853856Y-60274500D01*
X42764712Y-60298386D01*
X42764711Y-60298386D01*
X42764709Y-60298387D01*
X42684790Y-60344529D01*
X42619529Y-60409790D01*
X42573387Y-60489709D01*
X42549500Y-60578857D01*
X42549500Y-60951678D01*
X42530593Y-61009869D01*
X42520505Y-61021680D01*
X42499501Y-61042684D01*
X42499496Y-61042690D01*
X42433609Y-61156809D01*
X42425852Y-61185759D01*
X42399500Y-61284108D01*
X42399500Y-61415892D01*
X42422974Y-61503498D01*
X42433609Y-61543190D01*
X42499496Y-61657309D01*
X42499498Y-61657311D01*
X42499500Y-61657314D01*
X42520505Y-61678319D01*
X42548281Y-61732834D01*
X42549500Y-61748321D01*
X42549500Y-70654492D01*
X42530593Y-70712683D01*
X42481093Y-70748647D01*
X42419907Y-70748647D01*
X42370407Y-70712683D01*
X42364764Y-70703992D01*
X42300503Y-70592690D01*
X42300501Y-70592688D01*
X42300500Y-70592686D01*
X42207314Y-70499500D01*
X42207311Y-70499498D01*
X42207309Y-70499496D01*
X42093189Y-70433609D01*
X42093191Y-70433609D01*
X42043799Y-70420375D01*
X41965892Y-70399500D01*
X41834108Y-70399500D01*
X41756200Y-70420375D01*
X41706809Y-70433609D01*
X41592690Y-70499496D01*
X41499496Y-70592690D01*
X41433609Y-70706809D01*
X41399500Y-70834109D01*
X41399500Y-70899165D01*
X41380593Y-70957356D01*
X41370503Y-70969169D01*
X41157835Y-71181836D01*
X41103319Y-71209613D01*
X41072346Y-71209613D01*
X41008492Y-71199500D01*
X41008488Y-71199500D01*
X40191512Y-71199500D01*
X40191510Y-71199500D01*
X40091874Y-71215281D01*
X40091867Y-71215283D01*
X39971782Y-71276470D01*
X39876470Y-71371782D01*
X39815283Y-71491867D01*
X39815281Y-71491874D01*
X39799500Y-71591510D01*
X39799500Y-72108489D01*
X39815281Y-72208125D01*
X39815283Y-72208132D01*
X39876470Y-72328217D01*
X39876472Y-72328220D01*
X39971780Y-72423528D01*
X39971782Y-72423529D01*
X40091867Y-72484716D01*
X40091869Y-72484716D01*
X40091874Y-72484719D01*
X40167541Y-72496703D01*
X40191510Y-72500500D01*
X40191512Y-72500500D01*
X41008490Y-72500500D01*
X41029885Y-72497111D01*
X41108126Y-72484719D01*
X41228220Y-72423528D01*
X41323528Y-72328220D01*
X41384719Y-72208126D01*
X41400500Y-72108488D01*
X41400500Y-71900835D01*
X41419407Y-71842644D01*
X41429496Y-71830831D01*
X41830831Y-71429496D01*
X41885348Y-71401719D01*
X41900835Y-71400500D01*
X41965890Y-71400500D01*
X41965892Y-71400500D01*
X42093186Y-71366392D01*
X42093188Y-71366390D01*
X42093190Y-71366390D01*
X42207309Y-71300503D01*
X42207309Y-71300502D01*
X42207314Y-71300500D01*
X42300500Y-71207314D01*
X42300503Y-71207309D01*
X42364764Y-71096007D01*
X42410233Y-71055066D01*
X42471083Y-71048670D01*
X42524071Y-71079263D01*
X42548958Y-71135159D01*
X42549500Y-71145507D01*
X42549500Y-74700500D01*
X42530593Y-74758691D01*
X42481093Y-74794655D01*
X42450500Y-74799500D01*
X41449272Y-74799500D01*
X41391081Y-74780593D01*
X41361063Y-74745446D01*
X41342289Y-74708600D01*
X41323528Y-74671780D01*
X41228220Y-74576472D01*
X41228217Y-74576470D01*
X41108132Y-74515283D01*
X41108127Y-74515281D01*
X41108126Y-74515281D01*
X41074913Y-74510020D01*
X41008490Y-74499500D01*
X41008488Y-74499500D01*
X40191512Y-74499500D01*
X40191510Y-74499500D01*
X40091874Y-74515281D01*
X40091867Y-74515283D01*
X39971782Y-74576470D01*
X39876470Y-74671782D01*
X39815283Y-74791867D01*
X39815281Y-74791874D01*
X39799500Y-74891510D01*
X39799500Y-75408489D01*
X39815281Y-75508125D01*
X39815283Y-75508132D01*
X39876470Y-75628217D01*
X39876472Y-75628220D01*
X39971780Y-75723528D01*
X39971782Y-75723529D01*
X40091867Y-75784716D01*
X40091869Y-75784716D01*
X40091874Y-75784719D01*
X40115987Y-75788538D01*
X40170504Y-75816316D01*
X40198281Y-75870832D01*
X40199500Y-75886319D01*
X40199500Y-79800500D01*
X40180593Y-79858691D01*
X40131093Y-79894655D01*
X40100500Y-79899500D01*
X38099500Y-79899500D01*
X38041309Y-79880593D01*
X38005345Y-79831093D01*
X38000500Y-79800500D01*
X38000500Y-75886319D01*
X38019407Y-75828128D01*
X38068907Y-75792164D01*
X38084011Y-75788538D01*
X38108126Y-75784719D01*
X38228220Y-75723528D01*
X38323528Y-75628220D01*
X38384719Y-75508126D01*
X38400500Y-75408488D01*
X38400500Y-74891512D01*
X38384719Y-74791874D01*
X38384716Y-74791869D01*
X38384716Y-74791867D01*
X38323529Y-74671782D01*
X38323528Y-74671780D01*
X38228220Y-74576472D01*
X38228217Y-74576470D01*
X38108132Y-74515283D01*
X38108127Y-74515281D01*
X38108126Y-74515281D01*
X38074913Y-74510020D01*
X38008490Y-74499500D01*
X38008488Y-74499500D01*
X37191512Y-74499500D01*
X37191510Y-74499500D01*
X37091874Y-74515281D01*
X37091867Y-74515283D01*
X36971782Y-74576470D01*
X36876470Y-74671782D01*
X36815283Y-74791867D01*
X36815281Y-74791874D01*
X36799500Y-74891510D01*
X36799500Y-75408489D01*
X36815281Y-75508125D01*
X36815283Y-75508132D01*
X36876470Y-75628217D01*
X36876472Y-75628220D01*
X36971780Y-75723528D01*
X36971782Y-75723529D01*
X37091867Y-75784716D01*
X37091869Y-75784716D01*
X37091874Y-75784719D01*
X37115987Y-75788538D01*
X37170504Y-75816316D01*
X37198281Y-75870832D01*
X37199500Y-75886319D01*
X37199500Y-80352727D01*
X37226793Y-80454587D01*
X37226794Y-80454589D01*
X37226794Y-80454590D01*
X37279518Y-80545910D01*
X37279520Y-80545913D01*
X37354087Y-80620480D01*
X37445413Y-80673207D01*
X37547273Y-80700500D01*
X37547275Y-80700500D01*
X61252725Y-80700500D01*
X61252727Y-80700500D01*
X61354588Y-80673207D01*
X61354590Y-80673205D01*
X61354592Y-80673205D01*
X61445908Y-80620483D01*
X61445908Y-80620482D01*
X61445913Y-80620480D01*
X62086897Y-79979496D01*
X62141414Y-79951719D01*
X62156901Y-79950500D01*
X62812719Y-79950500D01*
X62812720Y-79950500D01*
X62925236Y-79935687D01*
X63065233Y-79877698D01*
X63185451Y-79785451D01*
X63277698Y-79665233D01*
X63335687Y-79525236D01*
X63350500Y-79412720D01*
X63350500Y-78087280D01*
X63335687Y-77974764D01*
X63277698Y-77834767D01*
X63185451Y-77714549D01*
X63065233Y-77622302D01*
X62925236Y-77564313D01*
X62925234Y-77564312D01*
X62925232Y-77564312D01*
X62812720Y-77549500D01*
X61987280Y-77549500D01*
X61987279Y-77549500D01*
X61874767Y-77564312D01*
X61874761Y-77564314D01*
X61734768Y-77622301D01*
X61614551Y-77714547D01*
X61614547Y-77714551D01*
X61522301Y-77834768D01*
X61464314Y-77974761D01*
X61464312Y-77974767D01*
X61449500Y-78087279D01*
X61449500Y-79412725D01*
X61451432Y-79427399D01*
X61440281Y-79487560D01*
X61423283Y-79510322D01*
X61087132Y-79846474D01*
X61032615Y-79874252D01*
X60972183Y-79864681D01*
X60928918Y-79821416D01*
X60919347Y-79760984D01*
X60938587Y-79716203D01*
X60977696Y-79665235D01*
X60977698Y-79665233D01*
X60982324Y-79654064D01*
X61035687Y-79525236D01*
X61050500Y-79412720D01*
X61050500Y-78087280D01*
X61035687Y-77974764D01*
X60977698Y-77834767D01*
X60885451Y-77714549D01*
X60765233Y-77622302D01*
X60625236Y-77564313D01*
X60625235Y-77564312D01*
X60625233Y-77564312D01*
X60536577Y-77552640D01*
X60481352Y-77526298D01*
X60452158Y-77472527D01*
X60450500Y-77454487D01*
X60450500Y-73847617D01*
X60469407Y-73789426D01*
X60518907Y-73753462D01*
X60580093Y-73753462D01*
X60599002Y-73761882D01*
X60606810Y-73766390D01*
X60606811Y-73766390D01*
X60606814Y-73766392D01*
X60734108Y-73800500D01*
X60734110Y-73800500D01*
X60865890Y-73800500D01*
X60865892Y-73800500D01*
X60993186Y-73766392D01*
X60993188Y-73766390D01*
X60993190Y-73766390D01*
X61107309Y-73700503D01*
X61107309Y-73700502D01*
X61107314Y-73700500D01*
X61128319Y-73679494D01*
X61182834Y-73651719D01*
X61198321Y-73650500D01*
X61556611Y-73650500D01*
X61556616Y-73650500D01*
X61627196Y-73644086D01*
X61789606Y-73593478D01*
X61935185Y-73505472D01*
X62055472Y-73385185D01*
X62143478Y-73239606D01*
X62194086Y-73077196D01*
X62200500Y-73006616D01*
X62200500Y-71893384D01*
X62194086Y-71822804D01*
X62143478Y-71660394D01*
X62055472Y-71514815D01*
X61935185Y-71394528D01*
X61888639Y-71366390D01*
X61789607Y-71306522D01*
X61789605Y-71306521D01*
X61627194Y-71255913D01*
X61556620Y-71249500D01*
X61556616Y-71249500D01*
X60649500Y-71249500D01*
X60591309Y-71230593D01*
X60555345Y-71181093D01*
X60550500Y-71150500D01*
X60550500Y-54147238D01*
X60563765Y-54097735D01*
X60566392Y-54093186D01*
X60600500Y-53965892D01*
X60600500Y-53834108D01*
X60566392Y-53706814D01*
X60566390Y-53706811D01*
X60566390Y-53706809D01*
X60500503Y-53592690D01*
X60500501Y-53592688D01*
X60500500Y-53592686D01*
X60407314Y-53499500D01*
X60407311Y-53499498D01*
X60407309Y-53499496D01*
X60293189Y-53433609D01*
X60293191Y-53433609D01*
X60243799Y-53420375D01*
X60165892Y-53399500D01*
X60034108Y-53399500D01*
X59956200Y-53420375D01*
X59906809Y-53433609D01*
X59792690Y-53499496D01*
X59699496Y-53592690D01*
X59633609Y-53706809D01*
X59633608Y-53706814D01*
X59599500Y-53834108D01*
X59599500Y-53965892D01*
X59633608Y-54093186D01*
X59636234Y-54097735D01*
X59649500Y-54147238D01*
X59649500Y-71150500D01*
X59630593Y-71208691D01*
X59581093Y-71244655D01*
X59550500Y-71249500D01*
X58643379Y-71249500D01*
X58572805Y-71255913D01*
X58410394Y-71306521D01*
X58410392Y-71306522D01*
X58264816Y-71394527D01*
X58144527Y-71514816D01*
X58056522Y-71660392D01*
X58056521Y-71660394D01*
X58005913Y-71822805D01*
X57999500Y-71893379D01*
X57999500Y-73006620D01*
X58005913Y-73077194D01*
X58056521Y-73239605D01*
X58056522Y-73239607D01*
X58121914Y-73347777D01*
X58144528Y-73385185D01*
X58264815Y-73505472D01*
X58329921Y-73544830D01*
X58398991Y-73586585D01*
X58410394Y-73593478D01*
X58572804Y-73644086D01*
X58643384Y-73650500D01*
X59650500Y-73650500D01*
X59708691Y-73669407D01*
X59744655Y-73718907D01*
X59749500Y-73749500D01*
X59749500Y-77454487D01*
X59730593Y-77512678D01*
X59681093Y-77548642D01*
X59663423Y-77552640D01*
X59574766Y-77564312D01*
X59574761Y-77564314D01*
X59434768Y-77622301D01*
X59314551Y-77714547D01*
X59314547Y-77714551D01*
X59222301Y-77834768D01*
X59164314Y-77974761D01*
X59164312Y-77974767D01*
X59149500Y-78087279D01*
X59149500Y-79412720D01*
X59164312Y-79525232D01*
X59164314Y-79525238D01*
X59222301Y-79665233D01*
X59222302Y-79665234D01*
X59279851Y-79740233D01*
X59300275Y-79797908D01*
X59282898Y-79856574D01*
X59234356Y-79893821D01*
X59201309Y-79899500D01*
X58822213Y-79899500D01*
X58764022Y-79880593D01*
X58728058Y-79831093D01*
X58728058Y-79769907D01*
X58737491Y-79749283D01*
X58795053Y-79654064D01*
X58795057Y-79654054D01*
X58843819Y-79497568D01*
X58849999Y-79429564D01*
X58850000Y-79429552D01*
X58850000Y-78950001D01*
X58849999Y-78950000D01*
X56750002Y-78950000D01*
X56750001Y-78950001D01*
X56750001Y-79429566D01*
X56756179Y-79497564D01*
X56756181Y-79497573D01*
X56804942Y-79654054D01*
X56804946Y-79654064D01*
X56862509Y-79749283D01*
X56876433Y-79808863D01*
X56852678Y-79865249D01*
X56800316Y-79896902D01*
X56777787Y-79899500D01*
X41099500Y-79899500D01*
X41041309Y-79880593D01*
X41005345Y-79831093D01*
X41000500Y-79800500D01*
X41000500Y-78070435D01*
X56750000Y-78070435D01*
X56750000Y-78549999D01*
X56750001Y-78550000D01*
X57599999Y-78550000D01*
X57600000Y-78549999D01*
X57600000Y-77450001D01*
X58000000Y-77450001D01*
X58000000Y-78549999D01*
X58000001Y-78550000D01*
X58849998Y-78550000D01*
X58849999Y-78549999D01*
X58849999Y-78070449D01*
X58849998Y-78070433D01*
X58843820Y-78002435D01*
X58843818Y-78002426D01*
X58795057Y-77845945D01*
X58795051Y-77845931D01*
X58710254Y-77705660D01*
X58594339Y-77589745D01*
X58454068Y-77504948D01*
X58454054Y-77504942D01*
X58297568Y-77456180D01*
X58229564Y-77450000D01*
X58000001Y-77450000D01*
X58000000Y-77450001D01*
X57600000Y-77450001D01*
X57599999Y-77450000D01*
X57370449Y-77450000D01*
X57370433Y-77450001D01*
X57302435Y-77456179D01*
X57302426Y-77456181D01*
X57145945Y-77504942D01*
X57145931Y-77504948D01*
X57005660Y-77589745D01*
X56889745Y-77705660D01*
X56804948Y-77845931D01*
X56804942Y-77845945D01*
X56756180Y-78002431D01*
X56750000Y-78070435D01*
X41000500Y-78070435D01*
X41000500Y-76379467D01*
X43600400Y-76379467D01*
X43600400Y-76526535D01*
X43629092Y-76670776D01*
X43685372Y-76806648D01*
X43767078Y-76928930D01*
X43871071Y-77032923D01*
X43993353Y-77114629D01*
X44129225Y-77170909D01*
X44273466Y-77199601D01*
X44273467Y-77199601D01*
X44420533Y-77199601D01*
X44420534Y-77199601D01*
X44564775Y-77170909D01*
X44700647Y-77114629D01*
X44822929Y-77032923D01*
X44926922Y-76928930D01*
X45008628Y-76806648D01*
X45064908Y-76670776D01*
X45093600Y-76526535D01*
X45093600Y-76379467D01*
X54600399Y-76379467D01*
X54600399Y-76526535D01*
X54629091Y-76670776D01*
X54685371Y-76806648D01*
X54767077Y-76928930D01*
X54871070Y-77032923D01*
X54993352Y-77114629D01*
X55129224Y-77170909D01*
X55273465Y-77199601D01*
X55273466Y-77199601D01*
X55420532Y-77199601D01*
X55420533Y-77199601D01*
X55564774Y-77170909D01*
X55700646Y-77114629D01*
X55822928Y-77032923D01*
X55926921Y-76928930D01*
X56008627Y-76806648D01*
X56064907Y-76670776D01*
X56093599Y-76526535D01*
X56093599Y-76379467D01*
X56064907Y-76235226D01*
X56008627Y-76099354D01*
X55926921Y-75977072D01*
X55822928Y-75873079D01*
X55700646Y-75791373D01*
X55684582Y-75784719D01*
X55564775Y-75735093D01*
X55420533Y-75706401D01*
X55273465Y-75706401D01*
X55273464Y-75706401D01*
X55129222Y-75735093D01*
X54993353Y-75791372D01*
X54871071Y-75873078D01*
X54767076Y-75977073D01*
X54685370Y-76099355D01*
X54629091Y-76235224D01*
X54629091Y-76235226D01*
X54600399Y-76379467D01*
X45093600Y-76379467D01*
X45064908Y-76235226D01*
X45008628Y-76099354D01*
X44926922Y-75977072D01*
X44822929Y-75873079D01*
X44700647Y-75791373D01*
X44684583Y-75784719D01*
X44564776Y-75735093D01*
X44420534Y-75706401D01*
X44273466Y-75706401D01*
X44273465Y-75706401D01*
X44129223Y-75735093D01*
X43993354Y-75791372D01*
X43871072Y-75873078D01*
X43767077Y-75977073D01*
X43685371Y-76099355D01*
X43629092Y-76235224D01*
X43629092Y-76235226D01*
X43600400Y-76379467D01*
X41000500Y-76379467D01*
X41000500Y-75886319D01*
X41019407Y-75828128D01*
X41068907Y-75792164D01*
X41084011Y-75788538D01*
X41108126Y-75784719D01*
X41228220Y-75723528D01*
X41323528Y-75628220D01*
X41361063Y-75554554D01*
X41404328Y-75511290D01*
X41449272Y-75500500D01*
X43046142Y-75500500D01*
X43046144Y-75500500D01*
X43135288Y-75476614D01*
X43215212Y-75430470D01*
X44880470Y-73765212D01*
X45180470Y-73465212D01*
X45226614Y-73385288D01*
X45235036Y-73353856D01*
X45250500Y-73296144D01*
X45250500Y-72998321D01*
X45269407Y-72940130D01*
X45279490Y-72928323D01*
X45300500Y-72907314D01*
X45336763Y-72844503D01*
X45382233Y-72803563D01*
X45443083Y-72797167D01*
X45496071Y-72827760D01*
X45520958Y-72883656D01*
X45521500Y-72894004D01*
X45521500Y-73544830D01*
X45502593Y-73603021D01*
X45466750Y-73631288D01*
X45467562Y-73632806D01*
X45463275Y-73635097D01*
X45330591Y-73723754D01*
X45330587Y-73723757D01*
X45217757Y-73836587D01*
X45217754Y-73836591D01*
X45129101Y-73969266D01*
X45129097Y-73969275D01*
X45068030Y-74116703D01*
X45036900Y-74273209D01*
X45036900Y-74432790D01*
X45068030Y-74589296D01*
X45129097Y-74736724D01*
X45129101Y-74736733D01*
X45171042Y-74799500D01*
X45217754Y-74869409D01*
X45330591Y-74982246D01*
X45387158Y-75020043D01*
X45463266Y-75070898D01*
X45463272Y-75070900D01*
X45463274Y-75070902D01*
X45610702Y-75131969D01*
X45767212Y-75163100D01*
X45767214Y-75163100D01*
X45926786Y-75163100D01*
X45926788Y-75163100D01*
X46083298Y-75131969D01*
X46230726Y-75070902D01*
X46363409Y-74982246D01*
X46476246Y-74869409D01*
X46539299Y-74775043D01*
X46564898Y-74736733D01*
X46564899Y-74736729D01*
X46564902Y-74736726D01*
X46625969Y-74589298D01*
X46657100Y-74432788D01*
X46657100Y-74273212D01*
X46655151Y-74263411D01*
X46937399Y-74263411D01*
X46937399Y-74442588D01*
X46972355Y-74618321D01*
X47040920Y-74783854D01*
X47077922Y-74839231D01*
X47496880Y-74420272D01*
X47515633Y-74490256D01*
X47562449Y-74571343D01*
X47628656Y-74637550D01*
X47709743Y-74684366D01*
X47779723Y-74703117D01*
X47360766Y-75122075D01*
X47416144Y-75159078D01*
X47581677Y-75227643D01*
X47757410Y-75262599D01*
X47757412Y-75262600D01*
X47936586Y-75262600D01*
X47936587Y-75262599D01*
X48112320Y-75227643D01*
X48277852Y-75159078D01*
X48277855Y-75159077D01*
X48333230Y-75122075D01*
X47914273Y-74703118D01*
X47984255Y-74684366D01*
X48065342Y-74637550D01*
X48131549Y-74571343D01*
X48178365Y-74490256D01*
X48197117Y-74420274D01*
X48616074Y-74839231D01*
X48653076Y-74783856D01*
X48653077Y-74783853D01*
X48721642Y-74618321D01*
X48756598Y-74442588D01*
X48756599Y-74442586D01*
X48756599Y-74263413D01*
X48756598Y-74263411D01*
X48721642Y-74087678D01*
X48653077Y-73922145D01*
X48616074Y-73866767D01*
X48197116Y-74285724D01*
X48178365Y-74215744D01*
X48131549Y-74134657D01*
X48065342Y-74068450D01*
X47984255Y-74021634D01*
X47914271Y-74002881D01*
X48333230Y-73583923D01*
X48277853Y-73546921D01*
X48112320Y-73478356D01*
X47936587Y-73443400D01*
X47757410Y-73443400D01*
X47581677Y-73478356D01*
X47416144Y-73546921D01*
X47360766Y-73583923D01*
X47779724Y-74002881D01*
X47709743Y-74021634D01*
X47628656Y-74068450D01*
X47562449Y-74134657D01*
X47515633Y-74215744D01*
X47496880Y-74285725D01*
X47077922Y-73866767D01*
X47040920Y-73922145D01*
X46972355Y-74087678D01*
X46937399Y-74263411D01*
X46655151Y-74263411D01*
X46625969Y-74116702D01*
X46564902Y-73969274D01*
X46564900Y-73969272D01*
X46564898Y-73969266D01*
X46483613Y-73847617D01*
X46476246Y-73836591D01*
X46363409Y-73723754D01*
X46230726Y-73635098D01*
X46225035Y-73632741D01*
X46217267Y-73627654D01*
X46203624Y-73610676D01*
X46187067Y-73596523D01*
X46184266Y-73586585D01*
X46178942Y-73579959D01*
X46178221Y-73565132D01*
X46172500Y-73544830D01*
X46172500Y-72584108D01*
X48999500Y-72584108D01*
X48999500Y-72715892D01*
X49022110Y-72800274D01*
X49033609Y-72843190D01*
X49099496Y-72957309D01*
X49099498Y-72957311D01*
X49099500Y-72957314D01*
X49192686Y-73050500D01*
X49192688Y-73050501D01*
X49192690Y-73050503D01*
X49306809Y-73116390D01*
X49306811Y-73116390D01*
X49306814Y-73116392D01*
X49373124Y-73134159D01*
X49424437Y-73167482D01*
X49446364Y-73224603D01*
X49446500Y-73229785D01*
X49446500Y-73593390D01*
X49427593Y-73651581D01*
X49402503Y-73675703D01*
X49337845Y-73718907D01*
X49330591Y-73723754D01*
X49330587Y-73723757D01*
X49217757Y-73836587D01*
X49217754Y-73836591D01*
X49129101Y-73969266D01*
X49129097Y-73969275D01*
X49068030Y-74116703D01*
X49036900Y-74273209D01*
X49036900Y-74432790D01*
X49068030Y-74589296D01*
X49129097Y-74736724D01*
X49129101Y-74736733D01*
X49171042Y-74799500D01*
X49217754Y-74869409D01*
X49330591Y-74982246D01*
X49387158Y-75020043D01*
X49463266Y-75070898D01*
X49463272Y-75070900D01*
X49463274Y-75070902D01*
X49610702Y-75131969D01*
X49767212Y-75163100D01*
X49767214Y-75163100D01*
X49926786Y-75163100D01*
X49926788Y-75163100D01*
X50083298Y-75131969D01*
X50230726Y-75070902D01*
X50230729Y-75070899D01*
X50230733Y-75070898D01*
X50269043Y-75045299D01*
X50363409Y-74982246D01*
X50476246Y-74869409D01*
X50539299Y-74775043D01*
X50564898Y-74736733D01*
X50564899Y-74736729D01*
X50564902Y-74736726D01*
X50625969Y-74589298D01*
X50657100Y-74432788D01*
X50657100Y-74273212D01*
X50625969Y-74116702D01*
X50564902Y-73969274D01*
X50564900Y-73969272D01*
X50564898Y-73969266D01*
X50483613Y-73847617D01*
X50476246Y-73836591D01*
X50363409Y-73723754D01*
X50291497Y-73675704D01*
X50253619Y-73627655D01*
X50247500Y-73593390D01*
X50247500Y-73001219D01*
X50247501Y-73000793D01*
X50247724Y-72948976D01*
X50247668Y-72948550D01*
X50247612Y-72948120D01*
X50247508Y-72947304D01*
X50245586Y-72940130D01*
X50234109Y-72897299D01*
X50220869Y-72847020D01*
X50220866Y-72847015D01*
X50220861Y-72846995D01*
X50220640Y-72846460D01*
X50220484Y-72846081D01*
X50220219Y-72845433D01*
X50194359Y-72800643D01*
X50194147Y-72800274D01*
X50174493Y-72765892D01*
X50168535Y-72755469D01*
X50168533Y-72755467D01*
X50168520Y-72755444D01*
X50168025Y-72754798D01*
X50167786Y-72754485D01*
X50167493Y-72754100D01*
X50130781Y-72717387D01*
X50130481Y-72717086D01*
X50019703Y-72605350D01*
X49994381Y-72561273D01*
X49966392Y-72456814D01*
X49966390Y-72456811D01*
X49966390Y-72456809D01*
X49900503Y-72342690D01*
X49900501Y-72342688D01*
X49900500Y-72342686D01*
X49807314Y-72249500D01*
X49807311Y-72249498D01*
X49807309Y-72249496D01*
X49693189Y-72183609D01*
X49693191Y-72183609D01*
X49643799Y-72170375D01*
X49565892Y-72149500D01*
X49434108Y-72149500D01*
X49356200Y-72170375D01*
X49306809Y-72183609D01*
X49192690Y-72249496D01*
X49099496Y-72342690D01*
X49033609Y-72456809D01*
X49030158Y-72469688D01*
X48999500Y-72584108D01*
X46172500Y-72584108D01*
X46172500Y-68021834D01*
X46191407Y-67963643D01*
X46240907Y-67927679D01*
X46302093Y-67927679D01*
X46341501Y-67951828D01*
X46664331Y-68274658D01*
X46889534Y-68499861D01*
X46889535Y-68499862D01*
X46889534Y-68499862D01*
X46935865Y-68546192D01*
X46950138Y-68560465D01*
X47024362Y-68603318D01*
X47107147Y-68625500D01*
X47192852Y-68625500D01*
X50724165Y-68625500D01*
X50782356Y-68644407D01*
X50794169Y-68654496D01*
X51492504Y-69352831D01*
X51520281Y-69407348D01*
X51521500Y-69422835D01*
X51521500Y-73544830D01*
X51502593Y-73603021D01*
X51466755Y-73631282D01*
X51467568Y-73632803D01*
X51463276Y-73635096D01*
X51330592Y-73723754D01*
X51330588Y-73723757D01*
X51217758Y-73836587D01*
X51217755Y-73836591D01*
X51129102Y-73969266D01*
X51129098Y-73969275D01*
X51068031Y-74116703D01*
X51036901Y-74273209D01*
X51036901Y-74432790D01*
X51068031Y-74589296D01*
X51129098Y-74736724D01*
X51129102Y-74736733D01*
X51171043Y-74799500D01*
X51217755Y-74869409D01*
X51330592Y-74982246D01*
X51387159Y-75020043D01*
X51463267Y-75070898D01*
X51463273Y-75070900D01*
X51463275Y-75070902D01*
X51610703Y-75131969D01*
X51767213Y-75163100D01*
X51767215Y-75163100D01*
X51926787Y-75163100D01*
X51926789Y-75163100D01*
X52083299Y-75131969D01*
X52230727Y-75070902D01*
X52230730Y-75070899D01*
X52230734Y-75070898D01*
X52269044Y-75045299D01*
X52363410Y-74982246D01*
X52476247Y-74869409D01*
X52539300Y-74775043D01*
X52564899Y-74736733D01*
X52564900Y-74736729D01*
X52564903Y-74736726D01*
X52625970Y-74589298D01*
X52657101Y-74432788D01*
X52657101Y-74273212D01*
X52657100Y-74273209D01*
X53036899Y-74273209D01*
X53036899Y-74432790D01*
X53068029Y-74589296D01*
X53129096Y-74736724D01*
X53129100Y-74736733D01*
X53171041Y-74799500D01*
X53217753Y-74869409D01*
X53330590Y-74982246D01*
X53387157Y-75020043D01*
X53463265Y-75070898D01*
X53463271Y-75070900D01*
X53463273Y-75070902D01*
X53610701Y-75131969D01*
X53767211Y-75163100D01*
X53767213Y-75163100D01*
X53926785Y-75163100D01*
X53926787Y-75163100D01*
X54083297Y-75131969D01*
X54230725Y-75070902D01*
X54230728Y-75070899D01*
X54230732Y-75070898D01*
X54269042Y-75045299D01*
X54363408Y-74982246D01*
X54476245Y-74869409D01*
X54539298Y-74775043D01*
X54564897Y-74736733D01*
X54564898Y-74736729D01*
X54564901Y-74736726D01*
X54625968Y-74589298D01*
X54657099Y-74432788D01*
X54657099Y-74273212D01*
X54625968Y-74116702D01*
X54564901Y-73969274D01*
X54564899Y-73969272D01*
X54564897Y-73969266D01*
X54483612Y-73847617D01*
X54476245Y-73836591D01*
X54363408Y-73723754D01*
X54325609Y-73698498D01*
X54230732Y-73635101D01*
X54230723Y-73635097D01*
X54083295Y-73574030D01*
X53926789Y-73542900D01*
X53926787Y-73542900D01*
X53767211Y-73542900D01*
X53767208Y-73542900D01*
X53610702Y-73574030D01*
X53463274Y-73635097D01*
X53463265Y-73635101D01*
X53330590Y-73723754D01*
X53330586Y-73723757D01*
X53217756Y-73836587D01*
X53217753Y-73836591D01*
X53129100Y-73969266D01*
X53129096Y-73969275D01*
X53068029Y-74116703D01*
X53036899Y-74273209D01*
X52657100Y-74273209D01*
X52625970Y-74116702D01*
X52564903Y-73969274D01*
X52564901Y-73969272D01*
X52564899Y-73969266D01*
X52483614Y-73847617D01*
X52476247Y-73836591D01*
X52363410Y-73723754D01*
X52230727Y-73635098D01*
X52230726Y-73635097D01*
X52230724Y-73635096D01*
X52226431Y-73632801D01*
X52227399Y-73630990D01*
X52187079Y-73596540D01*
X52172500Y-73544829D01*
X52172500Y-69204148D01*
X52172499Y-69204144D01*
X52160796Y-69160463D01*
X52160796Y-69160462D01*
X52150318Y-69121361D01*
X52150316Y-69121357D01*
X52107468Y-69047142D01*
X52107466Y-69047140D01*
X52107465Y-69047138D01*
X51099862Y-68039535D01*
X51099859Y-68039533D01*
X51099857Y-68039531D01*
X51025642Y-67996683D01*
X51025644Y-67996683D01*
X50993521Y-67988076D01*
X50942853Y-67974500D01*
X50942851Y-67974500D01*
X49823623Y-67974500D01*
X49765432Y-67955593D01*
X49729468Y-67906093D01*
X49727996Y-67849878D01*
X49750500Y-67765892D01*
X49750500Y-67634108D01*
X49716392Y-67506814D01*
X49716390Y-67506811D01*
X49716390Y-67506809D01*
X49650503Y-67392690D01*
X49650501Y-67392688D01*
X49650500Y-67392686D01*
X49579494Y-67321680D01*
X49551719Y-67267166D01*
X49550500Y-67251679D01*
X49550500Y-67148787D01*
X49569407Y-67090596D01*
X49618907Y-67054632D01*
X49656735Y-67050532D01*
X49656735Y-67050500D01*
X49657030Y-67050499D01*
X49659208Y-67050264D01*
X49661586Y-67050497D01*
X49661599Y-67050500D01*
X49838400Y-67050499D01*
X49915117Y-67035240D01*
X49944998Y-67015273D01*
X50003886Y-66998665D01*
X50055002Y-67015274D01*
X50084879Y-67035238D01*
X50084880Y-67035238D01*
X50084883Y-67035240D01*
X50161599Y-67050500D01*
X50338400Y-67050499D01*
X50415117Y-67035240D01*
X50444998Y-67015273D01*
X50503886Y-66998665D01*
X50555002Y-67015274D01*
X50584879Y-67035238D01*
X50584880Y-67035238D01*
X50584883Y-67035240D01*
X50661599Y-67050500D01*
X50838400Y-67050499D01*
X50915117Y-67035240D01*
X50944998Y-67015273D01*
X51003886Y-66998665D01*
X51055002Y-67015274D01*
X51084879Y-67035238D01*
X51084880Y-67035238D01*
X51084883Y-67035240D01*
X51161599Y-67050500D01*
X51338400Y-67050499D01*
X51415117Y-67035240D01*
X51502112Y-66977112D01*
X51560240Y-66890117D01*
X51575500Y-66813401D01*
X51575499Y-66174498D01*
X51594406Y-66116308D01*
X51643906Y-66080344D01*
X51674499Y-66075499D01*
X52313398Y-66075499D01*
X52313400Y-66075499D01*
X52390117Y-66060240D01*
X52477112Y-66002112D01*
X52518185Y-65940642D01*
X52566235Y-65902763D01*
X52627373Y-65900361D01*
X52678246Y-65934354D01*
X52699424Y-65991757D01*
X52699500Y-65995644D01*
X52699500Y-69051679D01*
X52680593Y-69109870D01*
X52670509Y-69121676D01*
X52631724Y-69160462D01*
X52599497Y-69192689D01*
X52599496Y-69192690D01*
X52533609Y-69306809D01*
X52533608Y-69306814D01*
X52499500Y-69434108D01*
X52499500Y-69565892D01*
X52529579Y-69678151D01*
X52533609Y-69693190D01*
X52599496Y-69807309D01*
X52599498Y-69807311D01*
X52599500Y-69807314D01*
X52692686Y-69900500D01*
X52692688Y-69900501D01*
X52692690Y-69900503D01*
X52806810Y-69966390D01*
X52806808Y-69966390D01*
X52806812Y-69966391D01*
X52806814Y-69966392D01*
X52934108Y-70000500D01*
X52934110Y-70000500D01*
X53065890Y-70000500D01*
X53065892Y-70000500D01*
X53193186Y-69966392D01*
X53193188Y-69966390D01*
X53193190Y-69966390D01*
X53307309Y-69900503D01*
X53307309Y-69900502D01*
X53307314Y-69900500D01*
X53400500Y-69807314D01*
X53409174Y-69792291D01*
X53466390Y-69693190D01*
X53466390Y-69693188D01*
X53466392Y-69693186D01*
X53500500Y-69565892D01*
X53500500Y-69434108D01*
X53466392Y-69306814D01*
X53466390Y-69306811D01*
X53466390Y-69306809D01*
X53400503Y-69192690D01*
X53400501Y-69192688D01*
X53400500Y-69192686D01*
X53329494Y-69121680D01*
X53301719Y-69067166D01*
X53300500Y-69051679D01*
X53300500Y-65791255D01*
X53319407Y-65733064D01*
X53368907Y-65697100D01*
X53430093Y-65697100D01*
X53469501Y-65721249D01*
X53538737Y-65790485D01*
X53538739Y-65790486D01*
X53635759Y-65846501D01*
X53635757Y-65846501D01*
X53635761Y-65846502D01*
X53635763Y-65846503D01*
X53743982Y-65875500D01*
X53743984Y-65875500D01*
X53856016Y-65875500D01*
X53856018Y-65875500D01*
X53964237Y-65846503D01*
X53964239Y-65846501D01*
X53964241Y-65846501D01*
X54001729Y-65824857D01*
X54061263Y-65790485D01*
X54072253Y-65779494D01*
X54126768Y-65751719D01*
X54142255Y-65750500D01*
X54213336Y-65750500D01*
X54271527Y-65769407D01*
X54307491Y-65818907D01*
X54308962Y-65875122D01*
X54303241Y-65896476D01*
X54299500Y-65910438D01*
X54299500Y-70151679D01*
X54280593Y-70209870D01*
X54270509Y-70221676D01*
X54199500Y-70292686D01*
X54199497Y-70292689D01*
X54199496Y-70292690D01*
X54133609Y-70406809D01*
X54126428Y-70433609D01*
X54099500Y-70534108D01*
X54099500Y-70665892D01*
X54121674Y-70748647D01*
X54133609Y-70793190D01*
X54199496Y-70907309D01*
X54199498Y-70907311D01*
X54199500Y-70907314D01*
X54292686Y-71000500D01*
X54292688Y-71000501D01*
X54292690Y-71000503D01*
X54406810Y-71066390D01*
X54406808Y-71066390D01*
X54406812Y-71066391D01*
X54406814Y-71066392D01*
X54534108Y-71100500D01*
X54534110Y-71100500D01*
X54665890Y-71100500D01*
X54665892Y-71100500D01*
X54793186Y-71066392D01*
X54793188Y-71066390D01*
X54793190Y-71066390D01*
X54907309Y-71000503D01*
X54907309Y-71000502D01*
X54907314Y-71000500D01*
X55000500Y-70907314D01*
X55066392Y-70793186D01*
X55100500Y-70665892D01*
X55100500Y-70534108D01*
X55066392Y-70406814D01*
X55066390Y-70406811D01*
X55066390Y-70406809D01*
X55000503Y-70292690D01*
X55000501Y-70292688D01*
X55000500Y-70292686D01*
X54929494Y-70221680D01*
X54901719Y-70167166D01*
X54900500Y-70151679D01*
X54900500Y-67678557D01*
X54919407Y-67620366D01*
X54968907Y-67584402D01*
X55025123Y-67582931D01*
X55090691Y-67600500D01*
X55090692Y-67600500D01*
X55209307Y-67600500D01*
X55209309Y-67600500D01*
X55323886Y-67569799D01*
X55378700Y-67538151D01*
X55438547Y-67525430D01*
X55494443Y-67550316D01*
X55498184Y-67553865D01*
X55533517Y-67589198D01*
X55556634Y-67600499D01*
X55638604Y-67640572D01*
X55638605Y-67640572D01*
X55638607Y-67640573D01*
X55706740Y-67650500D01*
X55706743Y-67650500D01*
X56923257Y-67650500D01*
X56923260Y-67650500D01*
X56991393Y-67640573D01*
X57093940Y-67590440D01*
X57154521Y-67581870D01*
X57208571Y-67610545D01*
X57233047Y-67653759D01*
X57234500Y-67659181D01*
X57234500Y-67659183D01*
X57270312Y-67792836D01*
X57339495Y-67912665D01*
X57437335Y-68010505D01*
X57557164Y-68079688D01*
X57690817Y-68115500D01*
X57690819Y-68115500D01*
X57829181Y-68115500D01*
X57829183Y-68115500D01*
X57962836Y-68079688D01*
X58082665Y-68010505D01*
X58180505Y-67912665D01*
X58249688Y-67792836D01*
X58285500Y-67659183D01*
X58285500Y-67520817D01*
X58249688Y-67387164D01*
X58180505Y-67267335D01*
X58082665Y-67169495D01*
X57962836Y-67100312D01*
X57829183Y-67064500D01*
X57690817Y-67064500D01*
X57557164Y-67100312D01*
X57437335Y-67169495D01*
X57409501Y-67197328D01*
X57354987Y-67225104D01*
X57294555Y-67215533D01*
X57251290Y-67172268D01*
X57240500Y-67127323D01*
X57240500Y-66966743D01*
X57240449Y-66966390D01*
X57230573Y-66898607D01*
X57179198Y-66793517D01*
X57179196Y-66793515D01*
X57177889Y-66790841D01*
X57169318Y-66730259D01*
X57184515Y-66692358D01*
X57195873Y-66675361D01*
X57224515Y-66632495D01*
X57240500Y-66552133D01*
X57240499Y-66347868D01*
X57224515Y-66267505D01*
X57216159Y-66255000D01*
X57199551Y-66196114D01*
X57216159Y-66144999D01*
X57224515Y-66132495D01*
X57240500Y-66052133D01*
X57240499Y-65847868D01*
X57224515Y-65767505D01*
X57216159Y-65755000D01*
X57199551Y-65696114D01*
X57216159Y-65644999D01*
X57224515Y-65632495D01*
X57240500Y-65552133D01*
X57240499Y-65347868D01*
X57239926Y-65344989D01*
X57224515Y-65267506D01*
X57224515Y-65267505D01*
X57216159Y-65255000D01*
X57199551Y-65196114D01*
X57216159Y-65144999D01*
X57224515Y-65132495D01*
X57240500Y-65052133D01*
X57240499Y-64847868D01*
X57224515Y-64767505D01*
X57216159Y-64755000D01*
X57199551Y-64696114D01*
X57216159Y-64644999D01*
X57224515Y-64632495D01*
X57240500Y-64552133D01*
X57240499Y-64347868D01*
X57224515Y-64267505D01*
X57216159Y-64255000D01*
X57199551Y-64196114D01*
X57216159Y-64144999D01*
X57224515Y-64132495D01*
X57240500Y-64052133D01*
X57240499Y-63847868D01*
X57237744Y-63834019D01*
X57224515Y-63767506D01*
X57224515Y-63767505D01*
X57216159Y-63755000D01*
X57199551Y-63696114D01*
X57216159Y-63644999D01*
X57224515Y-63632495D01*
X57240500Y-63552133D01*
X57240499Y-63347868D01*
X57224515Y-63267505D01*
X57216159Y-63255000D01*
X57199551Y-63196114D01*
X57216159Y-63144999D01*
X57224515Y-63132495D01*
X57240500Y-63052133D01*
X57240499Y-62847868D01*
X57224515Y-62767505D01*
X57223169Y-62765491D01*
X57184515Y-62707641D01*
X57167906Y-62648753D01*
X57177890Y-62609158D01*
X57179198Y-62606483D01*
X57230573Y-62501393D01*
X57240500Y-62433260D01*
X57240500Y-62272677D01*
X57259407Y-62214486D01*
X57308907Y-62178522D01*
X57370093Y-62178522D01*
X57409501Y-62202671D01*
X57437335Y-62230505D01*
X57557164Y-62299688D01*
X57690817Y-62335500D01*
X57690819Y-62335500D01*
X57829181Y-62335500D01*
X57829183Y-62335500D01*
X57962836Y-62299688D01*
X58082665Y-62230505D01*
X58180505Y-62132665D01*
X58249688Y-62012836D01*
X58285500Y-61879183D01*
X58285500Y-61740817D01*
X58249688Y-61607164D01*
X58180505Y-61487335D01*
X58082665Y-61389495D01*
X57962836Y-61320312D01*
X57829183Y-61284500D01*
X57690817Y-61284500D01*
X57557164Y-61320312D01*
X57437335Y-61389495D01*
X57339495Y-61487335D01*
X57270312Y-61607164D01*
X57237374Y-61730093D01*
X57233047Y-61746240D01*
X57199723Y-61797555D01*
X57142601Y-61819481D01*
X57093940Y-61809558D01*
X56991395Y-61759427D01*
X56961057Y-61755007D01*
X56923260Y-61749500D01*
X55706740Y-61749500D01*
X55672673Y-61754463D01*
X55638604Y-61759427D01*
X55533518Y-61810801D01*
X55533517Y-61810801D01*
X55533517Y-61810802D01*
X55450802Y-61893517D01*
X55450801Y-61893518D01*
X55448816Y-61895504D01*
X55394299Y-61923281D01*
X55378812Y-61924500D01*
X55352609Y-61924500D01*
X55294418Y-61905593D01*
X55282611Y-61895509D01*
X55276613Y-61889511D01*
X55276610Y-61889509D01*
X55276608Y-61889507D01*
X55173889Y-61830202D01*
X55173890Y-61830202D01*
X55160351Y-61826574D01*
X55059309Y-61799500D01*
X54940691Y-61799500D01*
X54898512Y-61810802D01*
X54826109Y-61830202D01*
X54723391Y-61889507D01*
X54639507Y-61973391D01*
X54580202Y-62076109D01*
X54571152Y-62109886D01*
X54549500Y-62190691D01*
X54549500Y-62309309D01*
X54556518Y-62335500D01*
X54580202Y-62423890D01*
X54624722Y-62501000D01*
X54637444Y-62560848D01*
X54612557Y-62616744D01*
X54559569Y-62647337D01*
X54538986Y-62649500D01*
X52960435Y-62649500D01*
X52884011Y-62669978D01*
X52884007Y-62669980D01*
X52815491Y-62709538D01*
X52759538Y-62765491D01*
X52719980Y-62834007D01*
X52719978Y-62834011D01*
X52699500Y-62910435D01*
X52699500Y-63004355D01*
X52680593Y-63062546D01*
X52631093Y-63098510D01*
X52569907Y-63098510D01*
X52520407Y-63062546D01*
X52518185Y-63059357D01*
X52477114Y-62997891D01*
X52477113Y-62997890D01*
X52477112Y-62997888D01*
X52390117Y-62939760D01*
X52390113Y-62939759D01*
X52313411Y-62924501D01*
X52313401Y-62924500D01*
X52313400Y-62924500D01*
X51674499Y-62924500D01*
X51616308Y-62905593D01*
X51580344Y-62856093D01*
X51575499Y-62825500D01*
X51575499Y-62213746D01*
X51588763Y-62164246D01*
X51646501Y-62064241D01*
X51646501Y-62064239D01*
X51646503Y-62064237D01*
X51675500Y-61956018D01*
X51675500Y-61843982D01*
X51646503Y-61735763D01*
X51646501Y-61735760D01*
X51646501Y-61735758D01*
X51590486Y-61638739D01*
X51590485Y-61638737D01*
X51511263Y-61559515D01*
X51511260Y-61559513D01*
X51414240Y-61503498D01*
X51414242Y-61503498D01*
X51345697Y-61485132D01*
X51306018Y-61474500D01*
X51274500Y-61474500D01*
X51216309Y-61455593D01*
X51180345Y-61406093D01*
X51175500Y-61375500D01*
X51175500Y-61293983D01*
X51172959Y-61284500D01*
X51146503Y-61185763D01*
X51146501Y-61185759D01*
X51146501Y-61185758D01*
X51090486Y-61088739D01*
X51090485Y-61088737D01*
X51011263Y-61009515D01*
X50998654Y-61002235D01*
X50914240Y-60953498D01*
X50914242Y-60953498D01*
X50872251Y-60942247D01*
X50806018Y-60924500D01*
X50693982Y-60924500D01*
X50627748Y-60942247D01*
X50585758Y-60953498D01*
X50488739Y-61009513D01*
X50409513Y-61088739D01*
X50353498Y-61185759D01*
X50353496Y-61185763D01*
X50347056Y-61209799D01*
X50313732Y-61261113D01*
X50256610Y-61283039D01*
X50225810Y-61279803D01*
X50220142Y-61278284D01*
X50206018Y-61274500D01*
X50093982Y-61274500D01*
X50027748Y-61292247D01*
X49985758Y-61303498D01*
X49888739Y-61359513D01*
X49809513Y-61438739D01*
X49753498Y-61535758D01*
X49753497Y-61535763D01*
X49725906Y-61638737D01*
X49724500Y-61643983D01*
X49724500Y-61733745D01*
X49705593Y-61791936D01*
X49656093Y-61827900D01*
X49594907Y-61827900D01*
X49555498Y-61803750D01*
X49511263Y-61759515D01*
X49511111Y-61759427D01*
X49414240Y-61703498D01*
X49414242Y-61703498D01*
X49372251Y-61692247D01*
X49306018Y-61674500D01*
X49193982Y-61674500D01*
X49127748Y-61692247D01*
X49085758Y-61703498D01*
X48988739Y-61759513D01*
X48909514Y-61838738D01*
X48874144Y-61900001D01*
X48828674Y-61940941D01*
X48788409Y-61949500D01*
X48661602Y-61949500D01*
X48661595Y-61949501D01*
X48584883Y-61964759D01*
X48584881Y-61964760D01*
X48497890Y-62022886D01*
X48497886Y-62022890D01*
X48439762Y-62109879D01*
X48439759Y-62109886D01*
X48424501Y-62186588D01*
X48424500Y-62186600D01*
X48424500Y-62825500D01*
X48405593Y-62883691D01*
X48356093Y-62919655D01*
X48325500Y-62924500D01*
X47686602Y-62924500D01*
X47686595Y-62924501D01*
X47609883Y-62939759D01*
X47609881Y-62939760D01*
X47522890Y-62997886D01*
X47522886Y-62997890D01*
X47464762Y-63084879D01*
X47464759Y-63084886D01*
X47449501Y-63161589D01*
X47449500Y-63161599D01*
X47449500Y-63338397D01*
X47449501Y-63338407D01*
X47455676Y-63369450D01*
X47448483Y-63430211D01*
X47428583Y-63458764D01*
X47413402Y-63473945D01*
X47360266Y-63582634D01*
X47354094Y-63625000D01*
X48770905Y-63625000D01*
X48770905Y-63624999D01*
X48764734Y-63582637D01*
X48711598Y-63473946D01*
X48711597Y-63473944D01*
X48696417Y-63458764D01*
X48668640Y-63404247D01*
X48669325Y-63369447D01*
X48675498Y-63338410D01*
X48675500Y-63338400D01*
X48675500Y-63274499D01*
X48694407Y-63216308D01*
X48743907Y-63180344D01*
X48774500Y-63175499D01*
X48838398Y-63175499D01*
X48838400Y-63175499D01*
X48915117Y-63160240D01*
X48944998Y-63140273D01*
X49003886Y-63123665D01*
X49055002Y-63140274D01*
X49084879Y-63160238D01*
X49084880Y-63160238D01*
X49084883Y-63160240D01*
X49161599Y-63175500D01*
X49338400Y-63175499D01*
X49415117Y-63160240D01*
X49444998Y-63140273D01*
X49503886Y-63123665D01*
X49555002Y-63140274D01*
X49584879Y-63160238D01*
X49584880Y-63160238D01*
X49584883Y-63160240D01*
X49661599Y-63175500D01*
X49838400Y-63175499D01*
X49915117Y-63160240D01*
X49944998Y-63140273D01*
X50003886Y-63123665D01*
X50055002Y-63140274D01*
X50084879Y-63160238D01*
X50084880Y-63160238D01*
X50084883Y-63160240D01*
X50161599Y-63175500D01*
X50338400Y-63175499D01*
X50415117Y-63160240D01*
X50444998Y-63140273D01*
X50503886Y-63123665D01*
X50555002Y-63140274D01*
X50584879Y-63160238D01*
X50584880Y-63160238D01*
X50584883Y-63160240D01*
X50661599Y-63175500D01*
X50838400Y-63175499D01*
X50915117Y-63160240D01*
X50944998Y-63140273D01*
X51003886Y-63123665D01*
X51055002Y-63140274D01*
X51084879Y-63160238D01*
X51084880Y-63160238D01*
X51084883Y-63160240D01*
X51161599Y-63175500D01*
X51225500Y-63175499D01*
X51283690Y-63194405D01*
X51319654Y-63243905D01*
X51324500Y-63274498D01*
X51324500Y-63338396D01*
X51324501Y-63338404D01*
X51339759Y-63415115D01*
X51339759Y-63415116D01*
X51339760Y-63415117D01*
X51359726Y-63444999D01*
X51376334Y-63503887D01*
X51359727Y-63554999D01*
X51339761Y-63584880D01*
X51339759Y-63584886D01*
X51324501Y-63661589D01*
X51324500Y-63661599D01*
X51324500Y-63838397D01*
X51324501Y-63838404D01*
X51339759Y-63915115D01*
X51339759Y-63915116D01*
X51339760Y-63915117D01*
X51359726Y-63944999D01*
X51376334Y-64003887D01*
X51359727Y-64054999D01*
X51339761Y-64084880D01*
X51339759Y-64084886D01*
X51324501Y-64161589D01*
X51324500Y-64161599D01*
X51324500Y-64338397D01*
X51324501Y-64338404D01*
X51339759Y-64415115D01*
X51339759Y-64415116D01*
X51339760Y-64415117D01*
X51359726Y-64444999D01*
X51376334Y-64503887D01*
X51359727Y-64554999D01*
X51339761Y-64584880D01*
X51339759Y-64584886D01*
X51324501Y-64661589D01*
X51324500Y-64661599D01*
X51324500Y-64838397D01*
X51324501Y-64838404D01*
X51339759Y-64915115D01*
X51339759Y-64915116D01*
X51339760Y-64915117D01*
X51359726Y-64944999D01*
X51376334Y-65003887D01*
X51359727Y-65054999D01*
X51339761Y-65084880D01*
X51339759Y-65084886D01*
X51324501Y-65161589D01*
X51324500Y-65161599D01*
X51324500Y-65338397D01*
X51324501Y-65338404D01*
X51339759Y-65415115D01*
X51339759Y-65415116D01*
X51339760Y-65415117D01*
X51359726Y-65444999D01*
X51376334Y-65503887D01*
X51359727Y-65554999D01*
X51339761Y-65584880D01*
X51339759Y-65584886D01*
X51324501Y-65661588D01*
X51324500Y-65661600D01*
X51324500Y-65725500D01*
X51305593Y-65783691D01*
X51256093Y-65819655D01*
X51225501Y-65824500D01*
X51161603Y-65824500D01*
X51161595Y-65824501D01*
X51084884Y-65839759D01*
X51055000Y-65859727D01*
X50996111Y-65876334D01*
X50944999Y-65859726D01*
X50915119Y-65839761D01*
X50915117Y-65839760D01*
X50915114Y-65839759D01*
X50915113Y-65839759D01*
X50838410Y-65824501D01*
X50838402Y-65824500D01*
X50838401Y-65824500D01*
X50838400Y-65824500D01*
X50661602Y-65824500D01*
X50661595Y-65824501D01*
X50584884Y-65839759D01*
X50555000Y-65859727D01*
X50496111Y-65876334D01*
X50444999Y-65859726D01*
X50415119Y-65839761D01*
X50415117Y-65839760D01*
X50415114Y-65839759D01*
X50415113Y-65839759D01*
X50338410Y-65824501D01*
X50338402Y-65824500D01*
X50338401Y-65824500D01*
X50338400Y-65824500D01*
X50161602Y-65824500D01*
X50161595Y-65824501D01*
X50084884Y-65839759D01*
X50055000Y-65859727D01*
X49996111Y-65876334D01*
X49944999Y-65859726D01*
X49915119Y-65839761D01*
X49915117Y-65839760D01*
X49915114Y-65839759D01*
X49915113Y-65839759D01*
X49838410Y-65824501D01*
X49838402Y-65824500D01*
X49838401Y-65824500D01*
X49838400Y-65824500D01*
X49661602Y-65824500D01*
X49661595Y-65824501D01*
X49584884Y-65839759D01*
X49555000Y-65859727D01*
X49496111Y-65876334D01*
X49444999Y-65859726D01*
X49415119Y-65839761D01*
X49415117Y-65839760D01*
X49415114Y-65839759D01*
X49415113Y-65839759D01*
X49338410Y-65824501D01*
X49338402Y-65824500D01*
X49338401Y-65824500D01*
X49338400Y-65824500D01*
X49161602Y-65824500D01*
X49161595Y-65824501D01*
X49084884Y-65839759D01*
X49055000Y-65859727D01*
X48996111Y-65876334D01*
X48944999Y-65859726D01*
X48915119Y-65839761D01*
X48915117Y-65839760D01*
X48915114Y-65839759D01*
X48915113Y-65839759D01*
X48838411Y-65824501D01*
X48838401Y-65824500D01*
X48838400Y-65824500D01*
X48774499Y-65824500D01*
X48716308Y-65805593D01*
X48680344Y-65756093D01*
X48675499Y-65725500D01*
X48675499Y-65661602D01*
X48675498Y-65661595D01*
X48660240Y-65584883D01*
X48660239Y-65584881D01*
X48640274Y-65555002D01*
X48623665Y-65496114D01*
X48640274Y-65444998D01*
X48660238Y-65415120D01*
X48660238Y-65415119D01*
X48660240Y-65415117D01*
X48675500Y-65338401D01*
X48675499Y-65161600D01*
X48660240Y-65084883D01*
X48640273Y-65055001D01*
X48623665Y-64996114D01*
X48640274Y-64944998D01*
X48660238Y-64915120D01*
X48660238Y-64915119D01*
X48660240Y-64915117D01*
X48675500Y-64838401D01*
X48675499Y-64661600D01*
X48660240Y-64584883D01*
X48640273Y-64555001D01*
X48623665Y-64496114D01*
X48640274Y-64444998D01*
X48660238Y-64415120D01*
X48660238Y-64415119D01*
X48660240Y-64415117D01*
X48675500Y-64338401D01*
X48675499Y-64161600D01*
X48669323Y-64130549D01*
X48676515Y-64069790D01*
X48696419Y-64041232D01*
X48711599Y-64026052D01*
X48764733Y-63917365D01*
X48770906Y-63875000D01*
X47428008Y-63875000D01*
X47378508Y-63861736D01*
X47364237Y-63853497D01*
X47256018Y-63824500D01*
X47143982Y-63824500D01*
X47077748Y-63842247D01*
X47035758Y-63853498D01*
X46938739Y-63909513D01*
X46934765Y-63912563D01*
X46877088Y-63932985D01*
X46818423Y-63915606D01*
X46781177Y-63867063D01*
X46775500Y-63834019D01*
X46775500Y-61232148D01*
X46775500Y-61232147D01*
X46753318Y-61149362D01*
X46710465Y-61075138D01*
X46649862Y-61014535D01*
X46575638Y-60971682D01*
X46492853Y-60949500D01*
X46492851Y-60949500D01*
X45381296Y-60949500D01*
X45323105Y-60930593D01*
X45287141Y-60881093D01*
X45287141Y-60819907D01*
X45290731Y-60810513D01*
X45297585Y-60794991D01*
X45300500Y-60769865D01*
X45300499Y-60480136D01*
X45297585Y-60455009D01*
X45296480Y-60452508D01*
X45290732Y-60439487D01*
X45284525Y-60378617D01*
X45315281Y-60325724D01*
X45371254Y-60301011D01*
X45381297Y-60300500D01*
X45536256Y-60300500D01*
X45585756Y-60313764D01*
X45685759Y-60371501D01*
X45685757Y-60371501D01*
X45685761Y-60371502D01*
X45685763Y-60371503D01*
X45793982Y-60400500D01*
X45793984Y-60400500D01*
X45906016Y-60400500D01*
X45906018Y-60400500D01*
X46014237Y-60371503D01*
X46014239Y-60371501D01*
X46014241Y-60371501D01*
X46060957Y-60344529D01*
X46111263Y-60315485D01*
X46190485Y-60236263D01*
X46229859Y-60168064D01*
X46246501Y-60139241D01*
X46246501Y-60139239D01*
X46246503Y-60139237D01*
X46275500Y-60031018D01*
X46275500Y-59918982D01*
X46270447Y-59900123D01*
X46273648Y-59839022D01*
X46312153Y-59791472D01*
X46366073Y-59775500D01*
X55287851Y-59775500D01*
X55287853Y-59775500D01*
X55370638Y-59753318D01*
X55444862Y-59710465D01*
X55505465Y-59649862D01*
X55548318Y-59575638D01*
X55570500Y-59492853D01*
X55570500Y-59449500D01*
X55589407Y-59391309D01*
X55638907Y-59355345D01*
X55669500Y-59350500D01*
X55714747Y-59350500D01*
X55714748Y-59350500D01*
X55773231Y-59338867D01*
X55839552Y-59294552D01*
X55883867Y-59228231D01*
X55895500Y-59169748D01*
X55895500Y-57630252D01*
X55888252Y-57593813D01*
X55895444Y-57533053D01*
X55936976Y-57488123D01*
X55985350Y-57475500D01*
X57226678Y-57475500D01*
X57284869Y-57494407D01*
X57296682Y-57504496D01*
X57300504Y-57508318D01*
X57328281Y-57562835D01*
X57329500Y-57578322D01*
X57329500Y-57619746D01*
X57329501Y-57619758D01*
X57341132Y-57678227D01*
X57341133Y-57678231D01*
X57385448Y-57744552D01*
X57451769Y-57788867D01*
X57496231Y-57797711D01*
X57510241Y-57800498D01*
X57510246Y-57800498D01*
X57510252Y-57800500D01*
X57510253Y-57800500D01*
X59049747Y-57800500D01*
X59049748Y-57800500D01*
X59108231Y-57788867D01*
X59174552Y-57744552D01*
X59218867Y-57678231D01*
X59230500Y-57619748D01*
X59230500Y-56680252D01*
X59218867Y-56621769D01*
X59184274Y-56569999D01*
X59167667Y-56511115D01*
X59184274Y-56460001D01*
X59218867Y-56408231D01*
X59230500Y-56349748D01*
X59230500Y-55410252D01*
X59218867Y-55351769D01*
X59184274Y-55299999D01*
X59167667Y-55241115D01*
X59184274Y-55190001D01*
X59218867Y-55138231D01*
X59230500Y-55079748D01*
X59230500Y-54140252D01*
X59218867Y-54081769D01*
X59184274Y-54029999D01*
X59167667Y-53971115D01*
X59184274Y-53920001D01*
X59218867Y-53868231D01*
X59230500Y-53809748D01*
X59230500Y-52870252D01*
X59218867Y-52811769D01*
X59184274Y-52759999D01*
X59167667Y-52701115D01*
X59184274Y-52650001D01*
X59218867Y-52598231D01*
X59230500Y-52539748D01*
X59230500Y-51600252D01*
X59218867Y-51541769D01*
X59184274Y-51489999D01*
X59167667Y-51431115D01*
X59184274Y-51380001D01*
X59218867Y-51328231D01*
X59230500Y-51269748D01*
X59230500Y-50330252D01*
X59218867Y-50271769D01*
X59184274Y-50219999D01*
X59167667Y-50161115D01*
X59184274Y-50110001D01*
X59218867Y-50058231D01*
X59230500Y-49999748D01*
X59230500Y-49060252D01*
X59218867Y-49001769D01*
X59184274Y-48949999D01*
X59167667Y-48891115D01*
X59184274Y-48840001D01*
X59218867Y-48788231D01*
X59230500Y-48729748D01*
X59230500Y-47790252D01*
X59218867Y-47731769D01*
X59184274Y-47679999D01*
X59167667Y-47621115D01*
X59184274Y-47570001D01*
X59218867Y-47518231D01*
X59230500Y-47459748D01*
X59230500Y-46520252D01*
X59218867Y-46461769D01*
X59184274Y-46409999D01*
X59167667Y-46351115D01*
X59184274Y-46300001D01*
X59218867Y-46248231D01*
X59230500Y-46189748D01*
X59230500Y-46144500D01*
X59249407Y-46086309D01*
X59298907Y-46050345D01*
X59329500Y-46045500D01*
X59476678Y-46045500D01*
X59534869Y-46064407D01*
X59546681Y-46074496D01*
X59592684Y-46120499D01*
X59592690Y-46120503D01*
X59706810Y-46186390D01*
X59706808Y-46186390D01*
X59706812Y-46186391D01*
X59706814Y-46186392D01*
X59834108Y-46220500D01*
X59834110Y-46220500D01*
X59965890Y-46220500D01*
X59965892Y-46220500D01*
X60093186Y-46186392D01*
X60093188Y-46186390D01*
X60093190Y-46186390D01*
X60207309Y-46120503D01*
X60207309Y-46120502D01*
X60207314Y-46120500D01*
X60300500Y-46027314D01*
X60366392Y-45913186D01*
X60400500Y-45785892D01*
X60400500Y-45654108D01*
X60366392Y-45526814D01*
X60366390Y-45526811D01*
X60366390Y-45526809D01*
X60300503Y-45412690D01*
X60300501Y-45412688D01*
X60300500Y-45412686D01*
X60207314Y-45319500D01*
X60207311Y-45319498D01*
X60207309Y-45319496D01*
X60093189Y-45253609D01*
X60093191Y-45253609D01*
X60043799Y-45240375D01*
X59965892Y-45219500D01*
X59834108Y-45219500D01*
X59756200Y-45240375D01*
X59706809Y-45253609D01*
X59592690Y-45319496D01*
X59592684Y-45319500D01*
X59546681Y-45365504D01*
X59492164Y-45393281D01*
X59476678Y-45394500D01*
X59329500Y-45394500D01*
X59271309Y-45375593D01*
X59235345Y-45326093D01*
X59230500Y-45295500D01*
X59230500Y-45250253D01*
X59230498Y-45250241D01*
X59224383Y-45219500D01*
X59218867Y-45191769D01*
X59184274Y-45139999D01*
X59167667Y-45081115D01*
X59184274Y-45030001D01*
X59218867Y-44978231D01*
X59218867Y-44978229D01*
X59221386Y-44974460D01*
X59269437Y-44936581D01*
X59278063Y-44933840D01*
X59343186Y-44916392D01*
X59457314Y-44850500D01*
X59550500Y-44757314D01*
X59616392Y-44643186D01*
X59650500Y-44515892D01*
X59650500Y-44384108D01*
X59616392Y-44256814D01*
X59616390Y-44256811D01*
X59616390Y-44256809D01*
X59550503Y-44142690D01*
X59550501Y-44142688D01*
X59550500Y-44142686D01*
X59457314Y-44049500D01*
X59457311Y-44049498D01*
X59457309Y-44049496D01*
X59343189Y-43983609D01*
X59343190Y-43983609D01*
X59278076Y-43966162D01*
X59226761Y-43932837D01*
X59221384Y-43925537D01*
X59218867Y-43921770D01*
X59218867Y-43921769D01*
X59184275Y-43869999D01*
X59167667Y-43811114D01*
X59184274Y-43760001D01*
X59218867Y-43708231D01*
X59230500Y-43649748D01*
X59230500Y-42710252D01*
X59218867Y-42651769D01*
X59184274Y-42599999D01*
X59167667Y-42541115D01*
X59184274Y-42490001D01*
X59218867Y-42438231D01*
X59230500Y-42379748D01*
X59230500Y-41440252D01*
X59230499Y-41440250D01*
X59230499Y-41440243D01*
X59219838Y-41386652D01*
X59227028Y-41325890D01*
X59246932Y-41297332D01*
X59281785Y-41262478D01*
X59327090Y-41159872D01*
X59329999Y-41134797D01*
X59330000Y-41134795D01*
X59330000Y-40840001D01*
X59329999Y-40840000D01*
X57230002Y-40840000D01*
X57230001Y-40840001D01*
X57230001Y-41134791D01*
X57232909Y-41159874D01*
X57278213Y-41262477D01*
X57313067Y-41297331D01*
X57340844Y-41351848D01*
X57340161Y-41386647D01*
X57329500Y-41440244D01*
X57329500Y-42379746D01*
X57329501Y-42379758D01*
X57341132Y-42438227D01*
X57341134Y-42438233D01*
X57375723Y-42489998D01*
X57392332Y-42548886D01*
X57375723Y-42600002D01*
X57341134Y-42651766D01*
X57341132Y-42651772D01*
X57329501Y-42710241D01*
X57329500Y-42710253D01*
X57329500Y-43649746D01*
X57329501Y-43649758D01*
X57341132Y-43708227D01*
X57341134Y-43708233D01*
X57375723Y-43759998D01*
X57392332Y-43818886D01*
X57375723Y-43870002D01*
X57341134Y-43921766D01*
X57341132Y-43921772D01*
X57329501Y-43980241D01*
X57329500Y-43980253D01*
X57329500Y-44919746D01*
X57329501Y-44919758D01*
X57341132Y-44978227D01*
X57341134Y-44978233D01*
X57375723Y-45029998D01*
X57392332Y-45088886D01*
X57375723Y-45140002D01*
X57341134Y-45191766D01*
X57341132Y-45191772D01*
X57329501Y-45250241D01*
X57329500Y-45250253D01*
X57329500Y-46189746D01*
X57329501Y-46189758D01*
X57341132Y-46248227D01*
X57341134Y-46248233D01*
X57375723Y-46299998D01*
X57392332Y-46358886D01*
X57375723Y-46410002D01*
X57341134Y-46461766D01*
X57341132Y-46461772D01*
X57329501Y-46520241D01*
X57329500Y-46520253D01*
X57329500Y-47459746D01*
X57329501Y-47459758D01*
X57341132Y-47518227D01*
X57341134Y-47518233D01*
X57375723Y-47569998D01*
X57392332Y-47628886D01*
X57375723Y-47680002D01*
X57341134Y-47731766D01*
X57341132Y-47731772D01*
X57329501Y-47790241D01*
X57329500Y-47790253D01*
X57329500Y-48729746D01*
X57329501Y-48729758D01*
X57341132Y-48788227D01*
X57341134Y-48788233D01*
X57375723Y-48839998D01*
X57392332Y-48898886D01*
X57375723Y-48950002D01*
X57341134Y-49001766D01*
X57341132Y-49001772D01*
X57329501Y-49060241D01*
X57329500Y-49060253D01*
X57329500Y-49999746D01*
X57329501Y-49999758D01*
X57341132Y-50058227D01*
X57341134Y-50058233D01*
X57375723Y-50109998D01*
X57392332Y-50168886D01*
X57375723Y-50220002D01*
X57341134Y-50271766D01*
X57341132Y-50271772D01*
X57329501Y-50330241D01*
X57329500Y-50330253D01*
X57329500Y-51269746D01*
X57329501Y-51269758D01*
X57341132Y-51328227D01*
X57341134Y-51328233D01*
X57375723Y-51379998D01*
X57392332Y-51438886D01*
X57375723Y-51490002D01*
X57341134Y-51541766D01*
X57341132Y-51541772D01*
X57329501Y-51600241D01*
X57329500Y-51600253D01*
X57329500Y-52539746D01*
X57329501Y-52539758D01*
X57341132Y-52598227D01*
X57341134Y-52598233D01*
X57375723Y-52649998D01*
X57392332Y-52708886D01*
X57375723Y-52760002D01*
X57341134Y-52811766D01*
X57341132Y-52811772D01*
X57329501Y-52870241D01*
X57329500Y-52870253D01*
X57329500Y-53809746D01*
X57329501Y-53809758D01*
X57341132Y-53868227D01*
X57341134Y-53868233D01*
X57375723Y-53919998D01*
X57392332Y-53978886D01*
X57375723Y-54030002D01*
X57341134Y-54081766D01*
X57341132Y-54081772D01*
X57329501Y-54140241D01*
X57329500Y-54140253D01*
X57329500Y-55079746D01*
X57329501Y-55079758D01*
X57341132Y-55138227D01*
X57341134Y-55138233D01*
X57375723Y-55189998D01*
X57392332Y-55248886D01*
X57375723Y-55300002D01*
X57341134Y-55351766D01*
X57341132Y-55351772D01*
X57329501Y-55410241D01*
X57329500Y-55410253D01*
X57329500Y-56349746D01*
X57329501Y-56349758D01*
X57341132Y-56408227D01*
X57341134Y-56408233D01*
X57375723Y-56459998D01*
X57392332Y-56518886D01*
X57375723Y-56570002D01*
X57341134Y-56621766D01*
X57341132Y-56621772D01*
X57329501Y-56680241D01*
X57329500Y-56680253D01*
X57329500Y-56721678D01*
X57310593Y-56779869D01*
X57300504Y-56791682D01*
X57296682Y-56795504D01*
X57242165Y-56823281D01*
X57226678Y-56824500D01*
X53572321Y-56824500D01*
X53514130Y-56805593D01*
X53478166Y-56756093D01*
X53478166Y-56694907D01*
X53502315Y-56655498D01*
X53550500Y-56607314D01*
X53577088Y-56561263D01*
X53616390Y-56493190D01*
X53616390Y-56493188D01*
X53616392Y-56493186D01*
X53650500Y-56365892D01*
X53650500Y-56234108D01*
X53616392Y-56106814D01*
X53616390Y-56106811D01*
X53616390Y-56106809D01*
X53550503Y-55992690D01*
X53550501Y-55992688D01*
X53550500Y-55992686D01*
X53457314Y-55899500D01*
X53457311Y-55899498D01*
X53457309Y-55899496D01*
X53343189Y-55833609D01*
X53343191Y-55833609D01*
X53293799Y-55820375D01*
X53215892Y-55799500D01*
X53084108Y-55799500D01*
X53006200Y-55820375D01*
X52956809Y-55833609D01*
X52842690Y-55899496D01*
X52842689Y-55899497D01*
X52842686Y-55899499D01*
X52842686Y-55899500D01*
X52771680Y-55970505D01*
X52717166Y-55998281D01*
X52701679Y-55999500D01*
X49842255Y-55999500D01*
X49784064Y-55980593D01*
X49772257Y-55970509D01*
X49761263Y-55959515D01*
X49761260Y-55959513D01*
X49664240Y-55903498D01*
X49664242Y-55903498D01*
X49622251Y-55892247D01*
X49556018Y-55874500D01*
X49443982Y-55874500D01*
X49377748Y-55892247D01*
X49335758Y-55903498D01*
X49238739Y-55959513D01*
X49159513Y-56038739D01*
X49103498Y-56135758D01*
X49103497Y-56135763D01*
X49074500Y-56243982D01*
X49074500Y-56356018D01*
X49088491Y-56408233D01*
X49103498Y-56464241D01*
X49159513Y-56561260D01*
X49159515Y-56561263D01*
X49238737Y-56640485D01*
X49238739Y-56640486D01*
X49238743Y-56640490D01*
X49243883Y-56644434D01*
X49242875Y-56645746D01*
X49278429Y-56685233D01*
X49284825Y-56746083D01*
X49254232Y-56799071D01*
X49198337Y-56823958D01*
X49187988Y-56824500D01*
X42723322Y-56824500D01*
X42665131Y-56805593D01*
X42653319Y-56795504D01*
X42607315Y-56749500D01*
X42607309Y-56749496D01*
X42493189Y-56683609D01*
X42493191Y-56683609D01*
X42443799Y-56670375D01*
X42365892Y-56649500D01*
X42234108Y-56649500D01*
X42156200Y-56670375D01*
X42106809Y-56683609D01*
X41992690Y-56749496D01*
X41992689Y-56749497D01*
X41992686Y-56749499D01*
X41992686Y-56749500D01*
X41899501Y-56842684D01*
X41844987Y-56870460D01*
X41784555Y-56860889D01*
X41741290Y-56817624D01*
X41730500Y-56772679D01*
X41730500Y-56680253D01*
X41730498Y-56680241D01*
X41723375Y-56644434D01*
X41718867Y-56621769D01*
X41684274Y-56569999D01*
X41667667Y-56511115D01*
X41684274Y-56460001D01*
X41718867Y-56408231D01*
X41730500Y-56349748D01*
X41730500Y-55410252D01*
X41718867Y-55351769D01*
X41684274Y-55299999D01*
X41667667Y-55241115D01*
X41684274Y-55190001D01*
X41718867Y-55138231D01*
X41730500Y-55079748D01*
X41730500Y-54140252D01*
X41718867Y-54081769D01*
X41684274Y-54029999D01*
X41667667Y-53971115D01*
X41684274Y-53920001D01*
X41718867Y-53868231D01*
X41730500Y-53809748D01*
X41730500Y-52870252D01*
X41718867Y-52811769D01*
X41684274Y-52759999D01*
X41667667Y-52701115D01*
X41684274Y-52650001D01*
X41718867Y-52598231D01*
X41730500Y-52539748D01*
X41730500Y-51600252D01*
X41718867Y-51541769D01*
X41684274Y-51489999D01*
X41667667Y-51431115D01*
X41684274Y-51380001D01*
X41718867Y-51328231D01*
X41730500Y-51269748D01*
X41730500Y-50330252D01*
X41718867Y-50271769D01*
X41684274Y-50219999D01*
X41667667Y-50161115D01*
X41684274Y-50110001D01*
X41718867Y-50058231D01*
X41730500Y-49999748D01*
X41730500Y-49060252D01*
X41718867Y-49001769D01*
X41684274Y-48949999D01*
X41667667Y-48891115D01*
X41684274Y-48840001D01*
X41718867Y-48788231D01*
X41730500Y-48729748D01*
X41730500Y-47790252D01*
X41718867Y-47731769D01*
X41684274Y-47679999D01*
X41667667Y-47621115D01*
X41684274Y-47570001D01*
X41718867Y-47518231D01*
X41730500Y-47459748D01*
X41730500Y-46520252D01*
X41718867Y-46461769D01*
X41684274Y-46409999D01*
X41667667Y-46351115D01*
X41684274Y-46300001D01*
X41718867Y-46248231D01*
X41730500Y-46189748D01*
X41730500Y-45250252D01*
X41718867Y-45191769D01*
X41684274Y-45139999D01*
X41667667Y-45081115D01*
X41684274Y-45030001D01*
X41718867Y-44978231D01*
X41730500Y-44919748D01*
X41730500Y-43980252D01*
X41718867Y-43921769D01*
X41684274Y-43869999D01*
X41667667Y-43811115D01*
X41684274Y-43760001D01*
X41718867Y-43708231D01*
X41730500Y-43649748D01*
X41730500Y-43604500D01*
X41749407Y-43546309D01*
X41798907Y-43510345D01*
X41829500Y-43505500D01*
X44424165Y-43505500D01*
X44482356Y-43524407D01*
X44494169Y-43534496D01*
X44945504Y-43985831D01*
X44973281Y-44040348D01*
X44974500Y-44055835D01*
X44974500Y-44926678D01*
X44955593Y-44984869D01*
X44945504Y-44996681D01*
X44899500Y-45042684D01*
X44899496Y-45042690D01*
X44833609Y-45156809D01*
X44833608Y-45156814D01*
X44799500Y-45284108D01*
X44799500Y-45415892D01*
X44800500Y-45419624D01*
X44833609Y-45543190D01*
X44899496Y-45657309D01*
X44899498Y-45657311D01*
X44899500Y-45657314D01*
X44945505Y-45703319D01*
X44973281Y-45757834D01*
X44974500Y-45773321D01*
X44974500Y-46857147D01*
X44974500Y-46942853D01*
X44994062Y-47015863D01*
X44996683Y-47025643D01*
X45039531Y-47099857D01*
X45039533Y-47099859D01*
X45039535Y-47099862D01*
X45395505Y-47455832D01*
X45423281Y-47510347D01*
X45424500Y-47525834D01*
X45424500Y-52357147D01*
X45424500Y-52442853D01*
X45444062Y-52515863D01*
X45446683Y-52525643D01*
X45489531Y-52599857D01*
X45489532Y-52599858D01*
X45489533Y-52599859D01*
X45489535Y-52599862D01*
X46739535Y-53849862D01*
X46739534Y-53849862D01*
X47145503Y-54255829D01*
X47173281Y-54310346D01*
X47174500Y-54325833D01*
X47174500Y-54576678D01*
X47155593Y-54634869D01*
X47145504Y-54646681D01*
X47099500Y-54692684D01*
X47099496Y-54692690D01*
X47033609Y-54806809D01*
X47033608Y-54806814D01*
X46999500Y-54934108D01*
X46999500Y-55065892D01*
X47018882Y-55138227D01*
X47033609Y-55193190D01*
X47099496Y-55307309D01*
X47099498Y-55307311D01*
X47099500Y-55307314D01*
X47192686Y-55400500D01*
X47192688Y-55400501D01*
X47192690Y-55400503D01*
X47306810Y-55466390D01*
X47306808Y-55466390D01*
X47306812Y-55466391D01*
X47306814Y-55466392D01*
X47434108Y-55500500D01*
X47434110Y-55500500D01*
X47565890Y-55500500D01*
X47565892Y-55500500D01*
X47693186Y-55466392D01*
X47693188Y-55466390D01*
X47693190Y-55466390D01*
X47807309Y-55400503D01*
X47807309Y-55400502D01*
X47807314Y-55400500D01*
X47900500Y-55307314D01*
X47904722Y-55300002D01*
X47966390Y-55193190D01*
X47966390Y-55193188D01*
X47966392Y-55193186D01*
X48000500Y-55065892D01*
X48000500Y-54934108D01*
X47966392Y-54806814D01*
X47966390Y-54806811D01*
X47966390Y-54806809D01*
X47900503Y-54692690D01*
X47900499Y-54692684D01*
X47854496Y-54646681D01*
X47826719Y-54592164D01*
X47825500Y-54576678D01*
X47825500Y-54107148D01*
X47825500Y-54107147D01*
X47803318Y-54024362D01*
X47803318Y-54024361D01*
X47798172Y-54015448D01*
X47781891Y-53987249D01*
X47781889Y-53987247D01*
X47760465Y-53950138D01*
X47699862Y-53889535D01*
X47699859Y-53889533D01*
X47199862Y-53389535D01*
X46104496Y-52294169D01*
X46076719Y-52239652D01*
X46075500Y-52224165D01*
X46075500Y-47307148D01*
X46075500Y-47307147D01*
X46053318Y-47224362D01*
X46053318Y-47224361D01*
X46053318Y-47224360D01*
X46010468Y-47150142D01*
X46010464Y-47150137D01*
X45654496Y-46794168D01*
X45626719Y-46739652D01*
X45625500Y-46724165D01*
X45625500Y-46422321D01*
X45644407Y-46364130D01*
X45693907Y-46328166D01*
X45755093Y-46328166D01*
X45794501Y-46352315D01*
X45842686Y-46400500D01*
X45842688Y-46400501D01*
X45842690Y-46400503D01*
X45956810Y-46466390D01*
X45956808Y-46466390D01*
X45956812Y-46466391D01*
X45956814Y-46466392D01*
X46084108Y-46500500D01*
X46084110Y-46500500D01*
X46215890Y-46500500D01*
X46215892Y-46500500D01*
X46343186Y-46466392D01*
X46343188Y-46466390D01*
X46343190Y-46466390D01*
X46457309Y-46400503D01*
X46457309Y-46400502D01*
X46457314Y-46400500D01*
X46550500Y-46307314D01*
X46554724Y-46299998D01*
X46616390Y-46193190D01*
X46616390Y-46193188D01*
X46616392Y-46193186D01*
X46650500Y-46065892D01*
X46650500Y-45934108D01*
X46616392Y-45806814D01*
X46616390Y-45806811D01*
X46616390Y-45806809D01*
X46550503Y-45692690D01*
X46550498Y-45692684D01*
X46529495Y-45671680D01*
X46501719Y-45617163D01*
X46500500Y-45601678D01*
X46500500Y-42513857D01*
X46500500Y-42513856D01*
X46476614Y-42424712D01*
X46450654Y-42379748D01*
X46430470Y-42344788D01*
X45715212Y-41629530D01*
X45635288Y-41583386D01*
X45546144Y-41559500D01*
X45546142Y-41559500D01*
X44977642Y-41559500D01*
X44919451Y-41540593D01*
X44883487Y-41491093D01*
X44882015Y-41434879D01*
X44900500Y-41365892D01*
X44900500Y-41234108D01*
X44866392Y-41106814D01*
X44866390Y-41106811D01*
X44866390Y-41106809D01*
X44800503Y-40992690D01*
X44800501Y-40992688D01*
X44800500Y-40992686D01*
X44707314Y-40899500D01*
X44707311Y-40899498D01*
X44707309Y-40899496D01*
X44593189Y-40833609D01*
X44593191Y-40833609D01*
X44543799Y-40820375D01*
X44465892Y-40799500D01*
X44334108Y-40799500D01*
X44256200Y-40820375D01*
X44206809Y-40833609D01*
X44092690Y-40899496D01*
X43999496Y-40992690D01*
X43933609Y-41106809D01*
X43926110Y-41134797D01*
X43899500Y-41234108D01*
X43899500Y-41365892D01*
X43917984Y-41434879D01*
X43914782Y-41495978D01*
X43876277Y-41543528D01*
X43822358Y-41559500D01*
X41829500Y-41559500D01*
X41771309Y-41540593D01*
X41735345Y-41491093D01*
X41730500Y-41460500D01*
X41730500Y-41440253D01*
X41730499Y-41440243D01*
X41719838Y-41386652D01*
X41727028Y-41325890D01*
X41746932Y-41297332D01*
X41781785Y-41262478D01*
X41827090Y-41159872D01*
X41829999Y-41134797D01*
X41830000Y-41134795D01*
X41830000Y-40840001D01*
X41829999Y-40840000D01*
X39730002Y-40840000D01*
X39730001Y-40840001D01*
X39730001Y-41134791D01*
X39732909Y-41159874D01*
X39778213Y-41262477D01*
X39813067Y-41297331D01*
X39840844Y-41351848D01*
X39840161Y-41386647D01*
X39829500Y-41440244D01*
X39829500Y-42379746D01*
X39829501Y-42379758D01*
X39841132Y-42438227D01*
X39841134Y-42438233D01*
X39875723Y-42489998D01*
X39892332Y-42548886D01*
X39875723Y-42600002D01*
X39841134Y-42651766D01*
X39841132Y-42651772D01*
X39829501Y-42710241D01*
X39829500Y-42710253D01*
X39829500Y-43649746D01*
X39829501Y-43649758D01*
X39841132Y-43708227D01*
X39841134Y-43708233D01*
X39875723Y-43759998D01*
X39892332Y-43818886D01*
X39875723Y-43870002D01*
X39841134Y-43921766D01*
X39841132Y-43921772D01*
X39829501Y-43980241D01*
X39829500Y-43980253D01*
X39829500Y-44919746D01*
X39829501Y-44919758D01*
X39841132Y-44978227D01*
X39841134Y-44978233D01*
X39875723Y-45029998D01*
X39892332Y-45088886D01*
X39875723Y-45140002D01*
X39841134Y-45191766D01*
X39841132Y-45191772D01*
X39829501Y-45250241D01*
X39829500Y-45250253D01*
X39829500Y-46189746D01*
X39829501Y-46189758D01*
X39841132Y-46248227D01*
X39841134Y-46248233D01*
X39875723Y-46299998D01*
X39892332Y-46358886D01*
X39875723Y-46410002D01*
X39841134Y-46461766D01*
X39841132Y-46461772D01*
X39829501Y-46520241D01*
X39829500Y-46520253D01*
X39829500Y-47459746D01*
X39829501Y-47459758D01*
X39841132Y-47518227D01*
X39841134Y-47518233D01*
X39875723Y-47569998D01*
X39892332Y-47628886D01*
X39875723Y-47680002D01*
X39841134Y-47731766D01*
X39841132Y-47731772D01*
X39829501Y-47790241D01*
X39829500Y-47790253D01*
X39829500Y-48729746D01*
X39829501Y-48729758D01*
X39841132Y-48788227D01*
X39841134Y-48788233D01*
X39875723Y-48839998D01*
X39892332Y-48898886D01*
X39875723Y-48950002D01*
X39841134Y-49001766D01*
X39841132Y-49001772D01*
X39829501Y-49060241D01*
X39829500Y-49060253D01*
X39829500Y-49137692D01*
X39810593Y-49195883D01*
X39778934Y-49221623D01*
X39779981Y-49223437D01*
X39774361Y-49226682D01*
X39737250Y-49248108D01*
X39713721Y-49261692D01*
X39700137Y-49269535D01*
X39639534Y-49330137D01*
X39639535Y-49330138D01*
X36639531Y-52330142D01*
X36596682Y-52404360D01*
X36596681Y-52404360D01*
X36596682Y-52404361D01*
X36596682Y-52404362D01*
X36574500Y-52487147D01*
X35152500Y-52487147D01*
X35152500Y-39439000D01*
X35171407Y-39380809D01*
X35220907Y-39344845D01*
X35251500Y-39340000D01*
X40301000Y-39340000D01*
X40359191Y-39358907D01*
G37*
%TD.AperFunction*%
%TD*%
M02*
