%TF.GenerationSoftware,KiCad,Pcbnew,10.0.5*%
%TF.CreationDate,2026-08-09T04:42:05+01:00*%
%TF.ProjectId,toshiba_hvac_esp32_integrated,746f7368-6962-4615-9f68-7661635f6573,rev?*%
%TF.SameCoordinates,Original*%
%TF.FileFunction,Copper,L2,Bot*%
%TF.FilePolarity,Positive*%
%FSLAX46Y46*%
G04 Gerber Fmt 4.6, Leading zero omitted, Abs format (unit mm)*
G04 Created by KiCad (PCBNEW 10.0.5) date 2026-08-09 04:42:05*
%MOMM*%
%LPD*%
G01*
G04 APERTURE LIST*
G04 Aperture macros list*
%AMRoundRect*
0 Rectangle with rounded corners*
0 $1 Rounding radius*
0 $2 $3 $4 $5 $6 $7 $8 $9 X,Y pos of 4 corners*
0 Add a 4 corners polygon primitive as box body*
4,1,4,$2,$3,$4,$5,$6,$7,$8,$9,$2,$3,0*
0 Add four circle primitives for the rounded corners*
1,1,$1+$1,$2,$3*
1,1,$1+$1,$4,$5*
1,1,$1+$1,$6,$7*
1,1,$1+$1,$8,$9*
0 Add four rect primitives between the rounded corners*
20,1,$1+$1,$2,$3,$4,$5,0*
20,1,$1+$1,$4,$5,$6,$7,0*
20,1,$1+$1,$6,$7,$8,$9,0*
20,1,$1+$1,$8,$9,$2,$3,0*%
G04 Aperture macros list end*
%TA.AperFunction,ComponentPad*%
%ADD10O,2.100000X1.000000*%
%TD*%
%TA.AperFunction,ComponentPad*%
%ADD11O,1.600000X1.000000*%
%TD*%
%TA.AperFunction,ComponentPad*%
%ADD12C,1.219200*%
%TD*%
%TA.AperFunction,HeatsinkPad*%
%ADD13C,0.600000*%
%TD*%
%TA.AperFunction,SMDPad,CuDef*%
%ADD14RoundRect,0.250000X0.475000X-0.250000X0.475000X0.250000X-0.475000X0.250000X-0.475000X-0.250000X0*%
%TD*%
%TA.AperFunction,SMDPad,CuDef*%
%ADD15RoundRect,0.225000X-0.250000X0.225000X-0.250000X-0.225000X0.250000X-0.225000X0.250000X0.225000X0*%
%TD*%
%TA.AperFunction,SMDPad,CuDef*%
%ADD16RoundRect,0.200000X0.275000X-0.200000X0.275000X0.200000X-0.275000X0.200000X-0.275000X-0.200000X0*%
%TD*%
%TA.AperFunction,SMDPad,CuDef*%
%ADD17RoundRect,0.200000X-0.275000X0.200000X-0.275000X-0.200000X0.275000X-0.200000X0.275000X0.200000X0*%
%TD*%
%TA.AperFunction,SMDPad,CuDef*%
%ADD18RoundRect,0.200000X-0.200000X-0.275000X0.200000X-0.275000X0.200000X0.275000X-0.200000X0.275000X0*%
%TD*%
%TA.AperFunction,SMDPad,CuDef*%
%ADD19RoundRect,0.150000X-0.150000X0.587500X-0.150000X-0.587500X0.150000X-0.587500X0.150000X0.587500X0*%
%TD*%
%TA.AperFunction,SMDPad,CuDef*%
%ADD20R,1.000000X0.750000*%
%TD*%
%TA.AperFunction,SMDPad,CuDef*%
%ADD21RoundRect,0.150000X0.587500X0.150000X-0.587500X0.150000X-0.587500X-0.150000X0.587500X-0.150000X0*%
%TD*%
%TA.AperFunction,SMDPad,CuDef*%
%ADD22RoundRect,0.225000X0.250000X-0.225000X0.250000X0.225000X-0.250000X0.225000X-0.250000X-0.225000X0*%
%TD*%
%TA.AperFunction,SMDPad,CuDef*%
%ADD23RoundRect,0.225000X-0.225000X-0.250000X0.225000X-0.250000X0.225000X0.250000X-0.225000X0.250000X0*%
%TD*%
%TA.AperFunction,SMDPad,CuDef*%
%ADD24RoundRect,0.250000X-0.475000X0.250000X-0.475000X-0.250000X0.475000X-0.250000X0.475000X0.250000X0*%
%TD*%
%TA.AperFunction,SMDPad,CuDef*%
%ADD25RoundRect,0.200000X0.200000X0.275000X-0.200000X0.275000X-0.200000X-0.275000X0.200000X-0.275000X0*%
%TD*%
%TA.AperFunction,ViaPad*%
%ADD26C,0.600000*%
%TD*%
%TA.AperFunction,ViaPad*%
%ADD27C,0.450000*%
%TD*%
%TA.AperFunction,Conductor*%
%ADD28C,0.250000*%
%TD*%
%TA.AperFunction,Conductor*%
%ADD29C,0.300000*%
%TD*%
%TA.AperFunction,Conductor*%
%ADD30C,0.400000*%
%TD*%
%TA.AperFunction,Conductor*%
%ADD31C,0.200000*%
%TD*%
G04 APERTURE END LIST*
D10*
%TO.P,J2,SH*%
%TO.N,GND*%
X62030000Y-60380000D03*
D11*
X57850000Y-60380000D03*
D10*
X62030000Y-69020000D03*
D11*
X57850000Y-69020000D03*
%TD*%
D12*
%TO.P,J1,1*%
%TO.N,ESP_TX_5V*%
X45847000Y-74353000D03*
%TO.P,J1,2*%
%TO.N,GND*%
X47846999Y-74353000D03*
%TO.P,J1,3*%
%TO.N,+5V_AC*%
X49847000Y-74353000D03*
%TO.P,J1,4*%
%TO.N,ESP_RX_5V*%
X51847001Y-74353000D03*
%TO.P,J1,5*%
%TO.N,N/C*%
X53846999Y-74353000D03*
%TD*%
D13*
%TO.P,U1,39*%
%TO.N,GND*%
X46630000Y-47660000D03*
X46630000Y-49060000D03*
X47330000Y-46960000D03*
X47330000Y-48360000D03*
X47330000Y-49760000D03*
X48030000Y-47660000D03*
X48030000Y-49060000D03*
X48730000Y-46960000D03*
X48730000Y-48360000D03*
X48730000Y-49760000D03*
X49430000Y-47660000D03*
X49430000Y-49060000D03*
%TD*%
D14*
%TO.P,C9,1*%
%TO.N,+3V3*%
X44300000Y-49550000D03*
%TO.P,C9,2*%
%TO.N,GND*%
X44300000Y-47650000D03*
%TD*%
D15*
%TO.P,C3,1*%
%TO.N,+5V*%
X42500000Y-62225000D03*
%TO.P,C3,2*%
%TO.N,GND*%
X42500000Y-63775000D03*
%TD*%
D16*
%TO.P,R6,1*%
%TO.N,CC1*%
X59900000Y-72525000D03*
%TO.P,R6,2*%
%TO.N,GND*%
X59900000Y-70875000D03*
%TD*%
%TO.P,R7,1*%
%TO.N,CC2*%
X58200000Y-72525000D03*
%TO.P,R7,2*%
%TO.N,GND*%
X58200000Y-70875000D03*
%TD*%
D17*
%TO.P,R1,1*%
%TO.N,+3V3*%
X45300000Y-42675000D03*
%TO.P,R1,2*%
%TO.N,EN*%
X45300000Y-44325000D03*
%TD*%
D18*
%TO.P,R9,1*%
%TO.N,VBUS*%
X47775000Y-69300000D03*
%TO.P,R9,2*%
%TO.N,VBUS_SENSE*%
X49425000Y-69300000D03*
%TD*%
D19*
%TO.P,Q1,1*%
%TO.N,RTS*%
X46550000Y-54062500D03*
%TO.P,Q1,2*%
%TO.N,Q1_B*%
X48450000Y-54062500D03*
%TO.P,Q1,3*%
%TO.N,EN*%
X47500000Y-55937500D03*
%TD*%
D16*
%TO.P,R8,1*%
%TO.N,LED_CTRL*%
X40500000Y-69325000D03*
%TO.P,R8,2*%
%TO.N,LED_A*%
X40500000Y-67675000D03*
%TD*%
D14*
%TO.P,C12,1*%
%TO.N,+3V3*%
X62600000Y-78950000D03*
%TO.P,C12,2*%
%TO.N,GND*%
X62600000Y-77050000D03*
%TD*%
D20*
%TO.P,SW1,1*%
%TO.N,EN*%
X36500000Y-46375000D03*
X42500000Y-46375000D03*
%TO.P,SW1,2*%
%TO.N,GND*%
X36500000Y-42625000D03*
X42500000Y-42625000D03*
%TD*%
D21*
%TO.P,Q2,1*%
%TO.N,DTR*%
X53687500Y-58250000D03*
%TO.P,Q2,2*%
%TO.N,Q2_B*%
X53687500Y-60150000D03*
%TO.P,Q2,3*%
%TO.N,IO0*%
X51812500Y-59200000D03*
%TD*%
D14*
%TO.P,C11,1*%
%TO.N,+5V*%
X44900000Y-71250000D03*
%TO.P,C11,2*%
%TO.N,GND*%
X44900000Y-69350000D03*
%TD*%
D22*
%TO.P,C5,1*%
%TO.N,+3V3*%
X44000000Y-56375000D03*
%TO.P,C5,2*%
%TO.N,GND*%
X44000000Y-54825000D03*
%TD*%
%TO.P,C8,1*%
%TO.N,+3V3*%
X44200000Y-64175000D03*
%TO.P,C8,2*%
%TO.N,GND*%
X44200000Y-62625000D03*
%TD*%
D17*
%TO.P,R2,1*%
%TO.N,+3V3*%
X56500000Y-54675000D03*
%TO.P,R2,2*%
%TO.N,IO0*%
X56500000Y-56325000D03*
%TD*%
D18*
%TO.P,R5,1*%
%TO.N,RTS*%
X51575000Y-61750000D03*
%TO.P,R5,2*%
%TO.N,Q2_B*%
X53225000Y-61750000D03*
%TD*%
D22*
%TO.P,C7,1*%
%TO.N,EN*%
X47000000Y-43975000D03*
%TO.P,C7,2*%
%TO.N,GND*%
X47000000Y-42425000D03*
%TD*%
D23*
%TO.P,C2,1*%
%TO.N,+3V3*%
X37725000Y-57200000D03*
%TO.P,C2,2*%
%TO.N,GND*%
X39275000Y-57200000D03*
%TD*%
D22*
%TO.P,C1,1*%
%TO.N,+3V3*%
X44300000Y-52975000D03*
%TO.P,C1,2*%
%TO.N,GND*%
X44300000Y-51425000D03*
%TD*%
%TO.P,C4,1*%
%TO.N,+3V3*%
X44200000Y-60475000D03*
%TO.P,C4,2*%
%TO.N,GND*%
X44200000Y-58925000D03*
%TD*%
D23*
%TO.P,C6,1*%
%TO.N,+3V3*%
X60125000Y-75500000D03*
%TO.P,C6,2*%
%TO.N,GND*%
X61675000Y-75500000D03*
%TD*%
D16*
%TO.P,R4,1*%
%TO.N,DTR*%
X48600000Y-59525000D03*
%TO.P,R4,2*%
%TO.N,Q1_B*%
X48600000Y-57875000D03*
%TD*%
D24*
%TO.P,C10,1*%
%TO.N,+3V3*%
X60600000Y-78850000D03*
%TO.P,C10,2*%
%TO.N,GND*%
X60600000Y-80750000D03*
%TD*%
D18*
%TO.P,R3,1*%
%TO.N,+3V3*%
X37675000Y-59000000D03*
%TO.P,R3,2*%
%TO.N,SHIFT_OE*%
X39325000Y-59000000D03*
%TD*%
D20*
%TO.P,SW2,1*%
%TO.N,IO0*%
X36500000Y-53375000D03*
X42500000Y-53375000D03*
%TO.P,SW2,2*%
%TO.N,GND*%
X36500000Y-49625000D03*
X42500000Y-49625000D03*
%TD*%
D25*
%TO.P,R10,1*%
%TO.N,VBUS_SENSE*%
X49425000Y-71050000D03*
%TO.P,R10,2*%
%TO.N,GND*%
X47775000Y-71050000D03*
%TD*%
D26*
%TO.N,+3V3*%
X46150000Y-46000000D03*
X44400000Y-41300000D03*
X60100000Y-53900000D03*
X37550000Y-59350000D03*
X47350000Y-66500000D03*
X60800000Y-73300000D03*
%TO.N,+5V*%
X42900000Y-61350000D03*
X44900000Y-72600000D03*
%TO.N,+5V_AC*%
X37600000Y-72700000D03*
X49500000Y-72650000D03*
D27*
%TO.N,CC1*%
X60750000Y-70500000D03*
%TO.N,CC2*%
X62150000Y-66450000D03*
D26*
%TO.N,DTR*%
X53150000Y-56300000D03*
D27*
X49500000Y-56300000D03*
X49250000Y-62100000D03*
D26*
%TO.N,EN*%
X45300000Y-45350000D03*
X47500000Y-55000000D03*
%TO.N,ESP_TX_5V*%
X45847000Y-67000000D03*
D27*
X45850000Y-59975000D03*
D26*
%TO.N,GND*%
X36200000Y-81600000D03*
X36200000Y-58500000D03*
X50800000Y-65400000D03*
X52500000Y-81500000D03*
X46900000Y-41300000D03*
D27*
X43150000Y-58850000D03*
D26*
X63200000Y-57000000D03*
X41500000Y-63000000D03*
X43700000Y-70600000D03*
X62800000Y-41500000D03*
X36200000Y-41500000D03*
X55000000Y-73000000D03*
X49200000Y-65400000D03*
%TO.N,IO0*%
X42300000Y-57150000D03*
X57650000Y-57150000D03*
%TO.N,LED_A*%
X41400000Y-67400000D03*
%TO.N,LED_CTRL*%
X39500000Y-69300000D03*
D27*
%TO.N,RTS*%
X51250000Y-61900000D03*
D26*
%TO.N,SHIFT_OE*%
X37350000Y-64500000D03*
%TO.N,U0RXD*%
X59900000Y-45720000D03*
D27*
X50150000Y-61700000D03*
%TO.N,U0TXD*%
X50750000Y-61350000D03*
D26*
X59150000Y-44450000D03*
D27*
%TO.N,USB_DM*%
X62150000Y-63950000D03*
X47000000Y-65150000D03*
X62150000Y-64950000D03*
%TO.N,USB_DP*%
X61550000Y-64450000D03*
X47200000Y-64250000D03*
X61550000Y-65450000D03*
%TO.N,VBUS*%
X55000000Y-67050000D03*
X55000000Y-62750000D03*
D26*
X41900000Y-70900000D03*
D27*
X62150000Y-67150000D03*
X62150000Y-62250000D03*
D26*
%TO.N,VBUS_SENSE*%
X49250000Y-67700000D03*
%TD*%
%TO.N,+3V3*%
D28*
X60550000Y-53450000D02*
X60100000Y-53900000D01*
X48600000Y-41500000D02*
X60550000Y-41500000D01*
D29*
X45150000Y-50050000D02*
X45150000Y-67750000D01*
X46550000Y-67750000D02*
X47350000Y-66950000D01*
D28*
X44400000Y-41300000D02*
X45300000Y-42200000D01*
X45300000Y-49900000D02*
X44900000Y-49900000D01*
X60800000Y-74800000D02*
X60300000Y-75300000D01*
D29*
X45150000Y-67750000D02*
X46550000Y-67750000D01*
D28*
X60800000Y-78800000D02*
X61950000Y-78800000D01*
X45150000Y-56425000D02*
X44460000Y-56425000D01*
D29*
X45900000Y-49300000D02*
X45150000Y-50050000D01*
D28*
X37675000Y-58150000D02*
X37675000Y-58600000D01*
X45150000Y-58150000D02*
X37675000Y-58150000D01*
X37675000Y-57200000D02*
X37675000Y-59000000D01*
X60550000Y-41500000D02*
X60550000Y-53450000D01*
X45300000Y-42200000D02*
X45300000Y-42500000D01*
X60800000Y-73300000D02*
X60800000Y-74800000D01*
X56500000Y-53900000D02*
X56500000Y-54400000D01*
D29*
X46150000Y-46000000D02*
X46150000Y-46250000D01*
D28*
X46150000Y-46000000D02*
X47750000Y-46000000D01*
X37550000Y-59350000D02*
X37550000Y-59100000D01*
X47750000Y-42350000D02*
X48600000Y-41500000D01*
D29*
X46150000Y-46250000D02*
X45900000Y-46500000D01*
D28*
X60800000Y-74800000D02*
X60800000Y-78800000D01*
D29*
X47350000Y-66950000D02*
X47350000Y-66500000D01*
D28*
X45150000Y-60525000D02*
X44600000Y-60525000D01*
X60100000Y-53900000D02*
X56500000Y-53900000D01*
D29*
X45900000Y-46500000D02*
X45900000Y-49300000D01*
D28*
X45150000Y-52975000D02*
X44755000Y-52975000D01*
X47750000Y-46000000D02*
X47750000Y-42350000D01*
X45150000Y-64224999D02*
X44650000Y-64224999D01*
%TO.N,+5V*%
X42900000Y-61350000D02*
X42900000Y-62200000D01*
D29*
X44900000Y-72600000D02*
X44900000Y-71500000D01*
%TO.N,+5V_AC*%
D30*
X37600000Y-73350000D02*
X49100000Y-73350000D01*
X49500000Y-72950000D02*
X49500000Y-72650000D01*
X37600000Y-72700000D02*
X37600000Y-73350000D01*
X49100000Y-73350000D02*
X49500000Y-72950000D01*
%TO.N,CC1*%
D31*
X60750000Y-72150000D02*
X60400000Y-72500000D01*
X60750000Y-70500000D02*
X60750000Y-72150000D01*
%TO.N,CC2*%
X59300000Y-66450000D02*
X59150000Y-66599999D01*
X58650000Y-72400000D02*
X58550000Y-72500000D01*
X62150000Y-66450000D02*
X59300000Y-66450000D01*
X59150000Y-66599999D02*
X59150000Y-71900000D01*
X59150000Y-71900000D02*
X58650000Y-72400000D01*
%TO.N,DTR*%
D28*
X49500000Y-59825000D02*
X49000000Y-59825000D01*
X49250000Y-62100000D02*
X49500000Y-61850000D01*
D31*
X53150000Y-56300000D02*
X53150000Y-58200000D01*
D28*
X49500000Y-61850000D02*
X49500000Y-56300000D01*
%TO.N,EN*%
X45300000Y-44325000D02*
X46600000Y-44325000D01*
X43000000Y-46000000D02*
X42600000Y-46400000D01*
X36500000Y-46375000D02*
X42500000Y-46375000D01*
X45300000Y-45350000D02*
X45300000Y-46000000D01*
X47500000Y-55000000D02*
X47500000Y-55450000D01*
X45300000Y-45350000D02*
X45300000Y-44700000D01*
X45300000Y-46000000D02*
X43000000Y-46000000D01*
%TO.N,ESP_TX_5V*%
X45850000Y-59975000D02*
X45850000Y-67000000D01*
X45850000Y-67000000D02*
X45847000Y-67000000D01*
%TO.N,GND*%
X44200000Y-58925000D02*
X43350000Y-58900000D01*
%TO.N,IO0*%
X57650000Y-56325000D02*
X56900000Y-56325000D01*
X36500000Y-53375000D02*
X42500000Y-53375000D01*
X57650000Y-57150000D02*
X57650000Y-56325000D01*
X57650000Y-59300000D02*
X52200000Y-59300000D01*
X42300000Y-57150000D02*
X42300000Y-53600000D01*
X57650000Y-57150000D02*
X57650000Y-59300000D01*
%TO.N,LED_A*%
X41400000Y-67400000D02*
X40900000Y-67650000D01*
%TO.N,LED_CTRL*%
X39500000Y-69325000D02*
X40500000Y-69325000D01*
%TO.N,Q1_B*%
X48600000Y-57300000D02*
X48600000Y-57900000D01*
X48450000Y-54060000D02*
X48450000Y-57150000D01*
X48450000Y-57150000D02*
X48600000Y-57300000D01*
%TO.N,Q2_B*%
X53688000Y-60150000D02*
X53688000Y-60900000D01*
X53688000Y-60900000D02*
X53400000Y-61200000D01*
X53400000Y-61200000D02*
X53400000Y-61650000D01*
%TO.N,RTS*%
X51250000Y-61900000D02*
X51250000Y-63450000D01*
X46350000Y-63450000D02*
X46350000Y-54400000D01*
X51250000Y-63450000D02*
X46350000Y-63450000D01*
%TO.N,SHIFT_OE*%
X36600000Y-60200000D02*
X38900000Y-60200000D01*
X36600000Y-63750000D02*
X36600000Y-60200000D01*
X37350000Y-64500000D02*
X36600000Y-63750000D01*
X38900000Y-60200000D02*
X39325000Y-59775000D01*
X39325000Y-59775000D02*
X39325000Y-59200000D01*
%TO.N,U0RXD*%
D31*
X50150000Y-61700000D02*
X50284000Y-61566000D01*
X59400000Y-43900000D02*
X59900000Y-44400000D01*
X59900000Y-44400000D02*
X59900000Y-45720000D01*
X50284000Y-43900000D02*
X59400000Y-43900000D01*
X50284000Y-61566000D02*
X50284000Y-43900000D01*
%TO.N,U0TXD*%
X50750000Y-61350000D02*
X50750000Y-45050000D01*
X58550000Y-45050000D02*
X59150000Y-44450000D01*
X50750000Y-45050000D02*
X58550000Y-45050000D01*
%TO.N,USB_DM*%
X62150000Y-65550000D02*
X62150000Y-64950000D01*
X47000000Y-65150000D02*
X47800000Y-65950000D01*
X62150000Y-63950000D02*
X62150000Y-64950000D01*
X61750000Y-65950000D02*
X62150000Y-65550000D01*
X47800000Y-65950000D02*
X61750000Y-65950000D01*
%TO.N,USB_DP*%
X47200000Y-64250000D02*
X61350000Y-64250000D01*
X61350000Y-64250000D02*
X61550000Y-64450000D01*
X61550000Y-64450000D02*
X61550000Y-65450000D01*
%TO.N,VBUS*%
D28*
X48650000Y-67050000D02*
X48300000Y-67400000D01*
X42550000Y-68250000D02*
X41900000Y-68900000D01*
X48300000Y-67700000D02*
X47750000Y-68250000D01*
X62150000Y-62250000D02*
X61950000Y-62450000D01*
X61950000Y-62750000D02*
X55000000Y-62750000D01*
X62150000Y-67150000D02*
X62700000Y-66599999D01*
X55000000Y-67050000D02*
X48650000Y-67050000D01*
X48300000Y-67400000D02*
X48300000Y-67700000D01*
X41900000Y-68900000D02*
X41900000Y-70900000D01*
X61950000Y-62450000D02*
X61950000Y-62750000D01*
X48100000Y-68550000D02*
X48100000Y-69100000D01*
X48300000Y-68350000D02*
X48100000Y-68550000D01*
X62700000Y-66599999D02*
X62700000Y-62800000D01*
X48300000Y-67700000D02*
X48300000Y-68350000D01*
X47750000Y-68250000D02*
X42550000Y-68250000D01*
X62700000Y-62800000D02*
X62150000Y-62250000D01*
%TO.N,VBUS_SENSE*%
D31*
X49250000Y-68500000D02*
X49420000Y-68670000D01*
X49250000Y-67700000D02*
X49250000Y-68500000D01*
X49425000Y-69300000D02*
X49425000Y-71050000D01*
X49420000Y-68670000D02*
X49420000Y-69000000D01*
%TD*%
%TA.AperFunction,Conductor*%
%TO.N,GND*%
G36*
X61119138Y-64569407D02*
G01*
X61150111Y-64608698D01*
X61150252Y-64608617D01*
X61150812Y-64609588D01*
X61152412Y-64611617D01*
X61153498Y-64614239D01*
X61199080Y-64693190D01*
X61209515Y-64711263D01*
X61220505Y-64722253D01*
X61248281Y-64776768D01*
X61249500Y-64792255D01*
X61249500Y-65107744D01*
X61230593Y-65165935D01*
X61220506Y-65177745D01*
X61209514Y-65188736D01*
X61153498Y-65285758D01*
X61124500Y-65393983D01*
X61124500Y-65506020D01*
X61129553Y-65524876D01*
X61126352Y-65585978D01*
X61087847Y-65633528D01*
X61033927Y-65649500D01*
X47965479Y-65649500D01*
X47907288Y-65630593D01*
X47895475Y-65620504D01*
X47454496Y-65179525D01*
X47426719Y-65125008D01*
X47425500Y-65109521D01*
X47425500Y-65093983D01*
X47425500Y-65093982D01*
X47396503Y-64985763D01*
X47396501Y-64985760D01*
X47396501Y-64985758D01*
X47340486Y-64888739D01*
X47340485Y-64888737D01*
X47275707Y-64823959D01*
X47247932Y-64769445D01*
X47257503Y-64709013D01*
X47300768Y-64665748D01*
X47320084Y-64658333D01*
X47364237Y-64646503D01*
X47461263Y-64590485D01*
X47472253Y-64579494D01*
X47526768Y-64551719D01*
X47542255Y-64550500D01*
X61060947Y-64550500D01*
X61119138Y-64569407D01*
G37*
%TD.AperFunction*%
%TA.AperFunction,Conductor*%
G36*
X60183691Y-41844407D02*
G01*
X60219655Y-41893907D01*
X60224500Y-41924500D01*
X60224500Y-44060522D01*
X60205593Y-44118713D01*
X60156093Y-44154677D01*
X60094907Y-44154677D01*
X60055498Y-44130527D01*
X59584511Y-43659540D01*
X59584508Y-43659538D01*
X59515992Y-43619980D01*
X59515988Y-43619978D01*
X59439564Y-43599500D01*
X59439562Y-43599500D01*
X50323562Y-43599500D01*
X50244438Y-43599500D01*
X50244435Y-43599500D01*
X50168011Y-43619978D01*
X50168007Y-43619980D01*
X50099491Y-43659538D01*
X50043538Y-43715491D01*
X50003980Y-43784007D01*
X50003978Y-43784011D01*
X49983500Y-43860435D01*
X49983500Y-55942745D01*
X49964593Y-56000936D01*
X49915093Y-56036900D01*
X49853907Y-56036900D01*
X49814498Y-56012750D01*
X49761263Y-55959515D01*
X49761260Y-55959513D01*
X49664240Y-55903498D01*
X49664242Y-55903498D01*
X49622251Y-55892247D01*
X49556018Y-55874500D01*
X49443982Y-55874500D01*
X49377748Y-55892247D01*
X49335758Y-55903498D01*
X49238739Y-55959513D01*
X49159513Y-56038739D01*
X49103498Y-56135758D01*
X49103497Y-56135763D01*
X49074500Y-56243982D01*
X49074500Y-56356018D01*
X49077146Y-56365892D01*
X49103498Y-56464241D01*
X49161236Y-56564244D01*
X49174500Y-56613744D01*
X49174500Y-57216558D01*
X49155593Y-57274749D01*
X49106093Y-57310713D01*
X49044907Y-57310713D01*
X49030555Y-57304767D01*
X49000307Y-57289355D01*
X49000305Y-57289354D01*
X48994697Y-57288466D01*
X48940180Y-57260689D01*
X48914531Y-57216208D01*
X48914446Y-57215892D01*
X48903318Y-57174361D01*
X48860963Y-57101000D01*
X48860468Y-57100142D01*
X48860464Y-57100137D01*
X48804496Y-57044168D01*
X48776719Y-56989651D01*
X48775500Y-56974165D01*
X48775500Y-55011188D01*
X48794407Y-54952997D01*
X48804496Y-54941184D01*
X48806480Y-54939198D01*
X48806483Y-54939198D01*
X48889198Y-54856483D01*
X48940573Y-54751393D01*
X48950500Y-54683260D01*
X48950500Y-53441740D01*
X48940573Y-53373607D01*
X48889198Y-53268517D01*
X48806483Y-53185802D01*
X48806481Y-53185801D01*
X48701395Y-53134427D01*
X48674139Y-53130456D01*
X48633260Y-53124500D01*
X48266740Y-53124500D01*
X48232673Y-53129463D01*
X48198604Y-53134427D01*
X48093518Y-53185801D01*
X48010801Y-53268518D01*
X47959427Y-53373604D01*
X47949500Y-53441743D01*
X47949500Y-54510117D01*
X47930593Y-54568308D01*
X47881093Y-54604272D01*
X47819907Y-54604272D01*
X47801000Y-54595854D01*
X47693187Y-54533608D01*
X47650754Y-54522238D01*
X47565892Y-54499500D01*
X47434108Y-54499500D01*
X47370461Y-54516554D01*
X47306812Y-54533608D01*
X47199000Y-54595854D01*
X47139151Y-54608575D01*
X47083256Y-54583688D01*
X47052663Y-54530700D01*
X47050500Y-54510117D01*
X47050500Y-53441743D01*
X47049315Y-53433608D01*
X47040573Y-53373607D01*
X46989198Y-53268517D01*
X46906483Y-53185802D01*
X46906481Y-53185801D01*
X46801395Y-53134427D01*
X46774139Y-53130456D01*
X46733260Y-53124500D01*
X46366740Y-53124500D01*
X46332673Y-53129463D01*
X46298604Y-53134427D01*
X46193518Y-53185801D01*
X46110801Y-53268518D01*
X46059427Y-53373604D01*
X46049500Y-53441743D01*
X46049500Y-54250813D01*
X46046127Y-54276430D01*
X46024500Y-54357147D01*
X46024500Y-54357148D01*
X46024500Y-59452228D01*
X46005593Y-59510419D01*
X45956093Y-59546383D01*
X45912822Y-59547520D01*
X45912450Y-59550347D01*
X45906018Y-59549500D01*
X45793982Y-59549500D01*
X45753060Y-59560465D01*
X45685761Y-59578497D01*
X45649000Y-59599722D01*
X45589151Y-59612443D01*
X45533256Y-59587556D01*
X45502663Y-59534568D01*
X45500500Y-59513985D01*
X45500500Y-50236189D01*
X45519407Y-50177998D01*
X45529490Y-50166191D01*
X46180470Y-49515212D01*
X46226614Y-49435288D01*
X46250500Y-49346144D01*
X46250500Y-46686188D01*
X46269407Y-46627997D01*
X46279490Y-46616190D01*
X46430469Y-46465212D01*
X46475687Y-46386893D01*
X46491410Y-46366402D01*
X46503321Y-46354491D01*
X46557837Y-46326718D01*
X46573320Y-46325500D01*
X47792851Y-46325500D01*
X47792853Y-46325500D01*
X47875638Y-46303318D01*
X47949862Y-46260465D01*
X48010465Y-46199862D01*
X48053318Y-46125638D01*
X48075500Y-46042853D01*
X48075500Y-42525834D01*
X48094407Y-42467643D01*
X48104496Y-42455830D01*
X48705830Y-41854496D01*
X48760347Y-41826719D01*
X48775834Y-41825500D01*
X60125500Y-41825500D01*
X60183691Y-41844407D01*
G37*
%TD.AperFunction*%
%TA.AperFunction,Conductor*%
G36*
X40359191Y-39358907D02*
G01*
X40395155Y-39408407D01*
X40400000Y-39439000D01*
X40400000Y-39800000D01*
X40400001Y-39800000D01*
X58699999Y-39800000D01*
X58700000Y-39800000D01*
X58700000Y-39439000D01*
X58718907Y-39380809D01*
X58768407Y-39344845D01*
X58799000Y-39340000D01*
X63808499Y-39340000D01*
X63866690Y-39358907D01*
X63902654Y-39408407D01*
X63907499Y-39439000D01*
X63907499Y-82604500D01*
X63888592Y-82662691D01*
X63839092Y-82698655D01*
X63808499Y-82703500D01*
X35251500Y-82703500D01*
X35193309Y-82684593D01*
X35157345Y-82635093D01*
X35152500Y-82604500D01*
X35152500Y-80950001D01*
X59575000Y-80950001D01*
X59575000Y-81043064D01*
X59585613Y-81131443D01*
X59641080Y-81272095D01*
X59732435Y-81392564D01*
X59852904Y-81483919D01*
X59993556Y-81539386D01*
X60081935Y-81549999D01*
X60081942Y-81550000D01*
X60399999Y-81550000D01*
X60400000Y-81549999D01*
X60400000Y-80950001D01*
X60800000Y-80950001D01*
X60800000Y-81549999D01*
X60800001Y-81550000D01*
X61118058Y-81550000D01*
X61118064Y-81549999D01*
X61206443Y-81539386D01*
X61347095Y-81483919D01*
X61467564Y-81392564D01*
X61558919Y-81272095D01*
X61614386Y-81131443D01*
X61624999Y-81043064D01*
X61625000Y-81043058D01*
X61625000Y-80950001D01*
X61624999Y-80950000D01*
X60800001Y-80950000D01*
X60800000Y-80950001D01*
X60400000Y-80950001D01*
X60399999Y-80950000D01*
X59575001Y-80950000D01*
X59575000Y-80950001D01*
X35152500Y-80950001D01*
X35152500Y-80456935D01*
X59575000Y-80456935D01*
X59575000Y-80549999D01*
X59575001Y-80550000D01*
X60399999Y-80550000D01*
X60400000Y-80549999D01*
X60400000Y-79950001D01*
X60800000Y-79950001D01*
X60800000Y-80549999D01*
X60800001Y-80550000D01*
X61624999Y-80550000D01*
X61625000Y-80549999D01*
X61625000Y-80456941D01*
X61624999Y-80456935D01*
X61614386Y-80368556D01*
X61558919Y-80227904D01*
X61467564Y-80107435D01*
X61347095Y-80016080D01*
X61206443Y-79960613D01*
X61118064Y-79950000D01*
X60800001Y-79950000D01*
X60800000Y-79950001D01*
X60400000Y-79950001D01*
X60399999Y-79950000D01*
X60081935Y-79950000D01*
X59993556Y-79960613D01*
X59852904Y-80016080D01*
X59732435Y-80107435D01*
X59641080Y-80227904D01*
X59585613Y-80368556D01*
X59575000Y-80456935D01*
X35152500Y-80456935D01*
X35152500Y-76379466D01*
X43600400Y-76379466D01*
X43600400Y-76526535D01*
X43629092Y-76670777D01*
X43685371Y-76806646D01*
X43685372Y-76806648D01*
X43767078Y-76928930D01*
X43871071Y-77032923D01*
X43993353Y-77114629D01*
X44129225Y-77170909D01*
X44273466Y-77199601D01*
X44273467Y-77199601D01*
X44420533Y-77199601D01*
X44420534Y-77199601D01*
X44564775Y-77170909D01*
X44700647Y-77114629D01*
X44822929Y-77032923D01*
X44926922Y-76928930D01*
X45008628Y-76806648D01*
X45064908Y-76670776D01*
X45093600Y-76526535D01*
X45093600Y-76379467D01*
X45093600Y-76379466D01*
X54600399Y-76379466D01*
X54600399Y-76526535D01*
X54629091Y-76670777D01*
X54685370Y-76806646D01*
X54685371Y-76806648D01*
X54767077Y-76928930D01*
X54871070Y-77032923D01*
X54993352Y-77114629D01*
X55129224Y-77170909D01*
X55273465Y-77199601D01*
X55273466Y-77199601D01*
X55420532Y-77199601D01*
X55420533Y-77199601D01*
X55564774Y-77170909D01*
X55700646Y-77114629D01*
X55822928Y-77032923D01*
X55926921Y-76928930D01*
X56008627Y-76806648D01*
X56064907Y-76670776D01*
X56093599Y-76526535D01*
X56093599Y-76379467D01*
X56064907Y-76235226D01*
X56008627Y-76099354D01*
X55926921Y-75977072D01*
X55822928Y-75873079D01*
X55700646Y-75791373D01*
X55699987Y-75791100D01*
X55564775Y-75735093D01*
X55420533Y-75706401D01*
X55273465Y-75706401D01*
X55273464Y-75706401D01*
X55129222Y-75735093D01*
X54993353Y-75791372D01*
X54871071Y-75873078D01*
X54767076Y-75977073D01*
X54685370Y-76099355D01*
X54629091Y-76235224D01*
X54600399Y-76379466D01*
X45093600Y-76379466D01*
X45064908Y-76235226D01*
X45008628Y-76099354D01*
X44926922Y-75977072D01*
X44822929Y-75873079D01*
X44700647Y-75791373D01*
X44699988Y-75791100D01*
X44564776Y-75735093D01*
X44420534Y-75706401D01*
X44273466Y-75706401D01*
X44273465Y-75706401D01*
X44129223Y-75735093D01*
X43993354Y-75791372D01*
X43871072Y-75873078D01*
X43767077Y-75977073D01*
X43685371Y-76099355D01*
X43629092Y-76235224D01*
X43600400Y-76379466D01*
X35152500Y-76379466D01*
X35152500Y-72634108D01*
X37099500Y-72634108D01*
X37099500Y-72765892D01*
X37133608Y-72893186D01*
X37186236Y-72984341D01*
X37199500Y-73033840D01*
X37199500Y-73402727D01*
X37226793Y-73504587D01*
X37226794Y-73504589D01*
X37226794Y-73504590D01*
X37266886Y-73574031D01*
X37279520Y-73595913D01*
X37354087Y-73670480D01*
X37445413Y-73723207D01*
X37547273Y-73750500D01*
X37652727Y-73750500D01*
X45090062Y-73750500D01*
X45148253Y-73769407D01*
X45184217Y-73818907D01*
X45184217Y-73880093D01*
X45172377Y-73904502D01*
X45129101Y-73969266D01*
X45129097Y-73969275D01*
X45068030Y-74116703D01*
X45036900Y-74273209D01*
X45036900Y-74432790D01*
X45068030Y-74589296D01*
X45129097Y-74736724D01*
X45129101Y-74736733D01*
X45168372Y-74795504D01*
X45217754Y-74869409D01*
X45330591Y-74982246D01*
X45387158Y-75020043D01*
X45463266Y-75070898D01*
X45463272Y-75070900D01*
X45463274Y-75070902D01*
X45610702Y-75131969D01*
X45767212Y-75163100D01*
X45767214Y-75163100D01*
X45926786Y-75163100D01*
X45926788Y-75163100D01*
X46083298Y-75131969D01*
X46230726Y-75070902D01*
X46363409Y-74982246D01*
X46476246Y-74869409D01*
X46551257Y-74757147D01*
X46564898Y-74736733D01*
X46564899Y-74736729D01*
X46564902Y-74736726D01*
X46625969Y-74589298D01*
X46657100Y-74432788D01*
X46657100Y-74273212D01*
X46625969Y-74116702D01*
X46564902Y-73969274D01*
X46564900Y-73969272D01*
X46564898Y-73969266D01*
X46521623Y-73904502D01*
X46505014Y-73845614D01*
X46526191Y-73788210D01*
X46577065Y-73754217D01*
X46603938Y-73750500D01*
X46970394Y-73750500D01*
X47028585Y-73769407D01*
X47064549Y-73818907D01*
X47064549Y-73880093D01*
X47052709Y-73904503D01*
X47040922Y-73922141D01*
X47040919Y-73922147D01*
X46972355Y-74087678D01*
X46937399Y-74263411D01*
X46937399Y-74442588D01*
X46972355Y-74618321D01*
X47040920Y-74783854D01*
X47077922Y-74839231D01*
X47496880Y-74420273D01*
X47515633Y-74490256D01*
X47562449Y-74571343D01*
X47628656Y-74637550D01*
X47709743Y-74684366D01*
X47779723Y-74703117D01*
X47360766Y-75122075D01*
X47416144Y-75159078D01*
X47581677Y-75227643D01*
X47757410Y-75262599D01*
X47757412Y-75262600D01*
X47936586Y-75262600D01*
X47936587Y-75262599D01*
X48112320Y-75227643D01*
X48277852Y-75159078D01*
X48277855Y-75159077D01*
X48333230Y-75122075D01*
X47914273Y-74703118D01*
X47984255Y-74684366D01*
X48065342Y-74637550D01*
X48131549Y-74571343D01*
X48178365Y-74490256D01*
X48197116Y-74420276D01*
X48616073Y-74839231D01*
X48653076Y-74783856D01*
X48653077Y-74783853D01*
X48721642Y-74618321D01*
X48756598Y-74442588D01*
X48756599Y-74442586D01*
X48756599Y-74263413D01*
X48756598Y-74263411D01*
X48721642Y-74087678D01*
X48653078Y-73922147D01*
X48653075Y-73922141D01*
X48641289Y-73904503D01*
X48624680Y-73845615D01*
X48645857Y-73788211D01*
X48696730Y-73754217D01*
X48723604Y-73750500D01*
X49090062Y-73750500D01*
X49148253Y-73769407D01*
X49184217Y-73818907D01*
X49184217Y-73880093D01*
X49172377Y-73904502D01*
X49129101Y-73969266D01*
X49129097Y-73969275D01*
X49068030Y-74116703D01*
X49036900Y-74273209D01*
X49036900Y-74432790D01*
X49068030Y-74589296D01*
X49129097Y-74736724D01*
X49129101Y-74736733D01*
X49168372Y-74795504D01*
X49217754Y-74869409D01*
X49330591Y-74982246D01*
X49387158Y-75020043D01*
X49463266Y-75070898D01*
X49463272Y-75070900D01*
X49463274Y-75070902D01*
X49610702Y-75131969D01*
X49767212Y-75163100D01*
X49767214Y-75163100D01*
X49926786Y-75163100D01*
X49926788Y-75163100D01*
X50083298Y-75131969D01*
X50230726Y-75070902D01*
X50230729Y-75070899D01*
X50230733Y-75070898D01*
X50269043Y-75045299D01*
X50363409Y-74982246D01*
X50476246Y-74869409D01*
X50551257Y-74757147D01*
X50564898Y-74736733D01*
X50564899Y-74736729D01*
X50564902Y-74736726D01*
X50625969Y-74589298D01*
X50657100Y-74432788D01*
X50657100Y-74273212D01*
X50657099Y-74273209D01*
X51036901Y-74273209D01*
X51036901Y-74432790D01*
X51068031Y-74589296D01*
X51129098Y-74736724D01*
X51129102Y-74736733D01*
X51168373Y-74795504D01*
X51217755Y-74869409D01*
X51330592Y-74982246D01*
X51387159Y-75020043D01*
X51463267Y-75070898D01*
X51463273Y-75070900D01*
X51463275Y-75070902D01*
X51610703Y-75131969D01*
X51767213Y-75163100D01*
X51767215Y-75163100D01*
X51926787Y-75163100D01*
X51926789Y-75163100D01*
X52083299Y-75131969D01*
X52230727Y-75070902D01*
X52230730Y-75070899D01*
X52230734Y-75070898D01*
X52269044Y-75045299D01*
X52363410Y-74982246D01*
X52476247Y-74869409D01*
X52551258Y-74757147D01*
X52564899Y-74736733D01*
X52564900Y-74736729D01*
X52564903Y-74736726D01*
X52625970Y-74589298D01*
X52657101Y-74432788D01*
X52657101Y-74273212D01*
X52657100Y-74273209D01*
X53036899Y-74273209D01*
X53036899Y-74432790D01*
X53068029Y-74589296D01*
X53129096Y-74736724D01*
X53129100Y-74736733D01*
X53168371Y-74795504D01*
X53217753Y-74869409D01*
X53330590Y-74982246D01*
X53387157Y-75020043D01*
X53463265Y-75070898D01*
X53463271Y-75070900D01*
X53463273Y-75070902D01*
X53610701Y-75131969D01*
X53767211Y-75163100D01*
X53767213Y-75163100D01*
X53926785Y-75163100D01*
X53926787Y-75163100D01*
X54083297Y-75131969D01*
X54230725Y-75070902D01*
X54230728Y-75070899D01*
X54230732Y-75070898D01*
X54269042Y-75045299D01*
X54363408Y-74982246D01*
X54476245Y-74869409D01*
X54551256Y-74757147D01*
X54564897Y-74736733D01*
X54564898Y-74736729D01*
X54564901Y-74736726D01*
X54625968Y-74589298D01*
X54657099Y-74432788D01*
X54657099Y-74273212D01*
X54625968Y-74116702D01*
X54564901Y-73969274D01*
X54564899Y-73969272D01*
X54564897Y-73969266D01*
X54505312Y-73880093D01*
X54476245Y-73836591D01*
X54363408Y-73723754D01*
X54301389Y-73682314D01*
X54230732Y-73635101D01*
X54230723Y-73635097D01*
X54083295Y-73574030D01*
X53926789Y-73542900D01*
X53926787Y-73542900D01*
X53767211Y-73542900D01*
X53767208Y-73542900D01*
X53610702Y-73574030D01*
X53463274Y-73635097D01*
X53463265Y-73635101D01*
X53330590Y-73723754D01*
X53330586Y-73723757D01*
X53217756Y-73836587D01*
X53217753Y-73836591D01*
X53129100Y-73969266D01*
X53129096Y-73969275D01*
X53068029Y-74116703D01*
X53036899Y-74273209D01*
X52657100Y-74273209D01*
X52625970Y-74116702D01*
X52564903Y-73969274D01*
X52564901Y-73969272D01*
X52564899Y-73969266D01*
X52505314Y-73880093D01*
X52476247Y-73836591D01*
X52363410Y-73723754D01*
X52301391Y-73682314D01*
X52230734Y-73635101D01*
X52230725Y-73635097D01*
X52083297Y-73574030D01*
X51926791Y-73542900D01*
X51926789Y-73542900D01*
X51767213Y-73542900D01*
X51767210Y-73542900D01*
X51610704Y-73574030D01*
X51463276Y-73635097D01*
X51463267Y-73635101D01*
X51330592Y-73723754D01*
X51330588Y-73723757D01*
X51217758Y-73836587D01*
X51217755Y-73836591D01*
X51129102Y-73969266D01*
X51129098Y-73969275D01*
X51068031Y-74116703D01*
X51036901Y-74273209D01*
X50657099Y-74273209D01*
X50625969Y-74116702D01*
X50564902Y-73969274D01*
X50564900Y-73969272D01*
X50564898Y-73969266D01*
X50505313Y-73880093D01*
X50476246Y-73836591D01*
X50363409Y-73723754D01*
X50301390Y-73682314D01*
X50230733Y-73635101D01*
X50230724Y-73635097D01*
X50083296Y-73574030D01*
X49926790Y-73542900D01*
X49926788Y-73542900D01*
X49767212Y-73542900D01*
X49767207Y-73542900D01*
X49720649Y-73552161D01*
X49659887Y-73544969D01*
X49614958Y-73503435D01*
X49603022Y-73443425D01*
X49628639Y-73387861D01*
X49631308Y-73385084D01*
X49820480Y-73195913D01*
X49861133Y-73125500D01*
X49866354Y-73116457D01*
X49866364Y-73116438D01*
X49866391Y-73116392D01*
X49873207Y-73104587D01*
X49900500Y-73002727D01*
X49900500Y-72983840D01*
X49913763Y-72934341D01*
X49966392Y-72843186D01*
X50000500Y-72715892D01*
X50000500Y-72584108D01*
X49966392Y-72456814D01*
X49966390Y-72456811D01*
X49966390Y-72456809D01*
X49900503Y-72342690D01*
X49900501Y-72342688D01*
X49900500Y-72342686D01*
X49807314Y-72249500D01*
X49807311Y-72249498D01*
X49807309Y-72249496D01*
X49693189Y-72183609D01*
X49693191Y-72183609D01*
X49643799Y-72170375D01*
X49565892Y-72149500D01*
X49434108Y-72149500D01*
X49356200Y-72170375D01*
X49306809Y-72183609D01*
X49192690Y-72249496D01*
X49099496Y-72342690D01*
X49033609Y-72456809D01*
X48999500Y-72584109D01*
X48999500Y-72715891D01*
X49020254Y-72793349D01*
X49017051Y-72854450D01*
X48994633Y-72888972D01*
X48963106Y-72920501D01*
X48908590Y-72948281D01*
X48893100Y-72949500D01*
X45447617Y-72949500D01*
X45389426Y-72930593D01*
X45353462Y-72881093D01*
X45353462Y-72819907D01*
X45361882Y-72800998D01*
X45366390Y-72793189D01*
X45366389Y-72793189D01*
X45366392Y-72793186D01*
X45400500Y-72665892D01*
X45400500Y-72534108D01*
X45366392Y-72406814D01*
X45366390Y-72406811D01*
X45366390Y-72406809D01*
X45300503Y-72292690D01*
X45300498Y-72292684D01*
X45279495Y-72271680D01*
X45251719Y-72217163D01*
X45250500Y-72201678D01*
X45250500Y-72049500D01*
X45269407Y-71991309D01*
X45318907Y-71955345D01*
X45349500Y-71950500D01*
X45429273Y-71950500D01*
X45429273Y-71950499D01*
X45459699Y-71947646D01*
X45587882Y-71902793D01*
X45697150Y-71822150D01*
X45777793Y-71712882D01*
X45822646Y-71584699D01*
X45825499Y-71554273D01*
X45825500Y-71554273D01*
X45825500Y-71372824D01*
X47074999Y-71372824D01*
X47081401Y-71432370D01*
X47081403Y-71432381D01*
X47131646Y-71567088D01*
X47131647Y-71567090D01*
X47217807Y-71682184D01*
X47217815Y-71682192D01*
X47332909Y-71768352D01*
X47332911Y-71768353D01*
X47467618Y-71818596D01*
X47467629Y-71818598D01*
X47527176Y-71825000D01*
X47574999Y-71825000D01*
X47575000Y-71824999D01*
X47575000Y-71250001D01*
X47975000Y-71250001D01*
X47975000Y-71824999D01*
X47975001Y-71825000D01*
X48022824Y-71825000D01*
X48082370Y-71818598D01*
X48082381Y-71818596D01*
X48217088Y-71768353D01*
X48217090Y-71768352D01*
X48332184Y-71682192D01*
X48332192Y-71682184D01*
X48418352Y-71567090D01*
X48418353Y-71567088D01*
X48468596Y-71432381D01*
X48468598Y-71432370D01*
X48475000Y-71372824D01*
X48475000Y-71250001D01*
X48474999Y-71250000D01*
X47975001Y-71250000D01*
X47975000Y-71250001D01*
X47575000Y-71250001D01*
X47574999Y-71250000D01*
X47075001Y-71250000D01*
X47075000Y-71250001D01*
X47075000Y-71372824D01*
X47074999Y-71372824D01*
X45825500Y-71372824D01*
X45825500Y-70945727D01*
X45825499Y-70945725D01*
X45822646Y-70915305D01*
X45822646Y-70915301D01*
X45777793Y-70787118D01*
X45776966Y-70785998D01*
X45774981Y-70783307D01*
X45774980Y-70783305D01*
X45733554Y-70727175D01*
X47075000Y-70727175D01*
X47075000Y-70849999D01*
X47075001Y-70850000D01*
X47574999Y-70850000D01*
X47575000Y-70849999D01*
X47575000Y-70275001D01*
X47975000Y-70275001D01*
X47975000Y-70849999D01*
X47975001Y-70850000D01*
X48474999Y-70850000D01*
X48475000Y-70849999D01*
X48475000Y-70727175D01*
X48468598Y-70667629D01*
X48468596Y-70667618D01*
X48418353Y-70532911D01*
X48418352Y-70532909D01*
X48332192Y-70417815D01*
X48332184Y-70417807D01*
X48217090Y-70331647D01*
X48217088Y-70331646D01*
X48082381Y-70281403D01*
X48082370Y-70281401D01*
X48022824Y-70275000D01*
X47975001Y-70275000D01*
X47975000Y-70275001D01*
X47575000Y-70275001D01*
X47574999Y-70275000D01*
X47527176Y-70275000D01*
X47467629Y-70281401D01*
X47467618Y-70281403D01*
X47332911Y-70331646D01*
X47332909Y-70331647D01*
X47217815Y-70417807D01*
X47217807Y-70417815D01*
X47131647Y-70532909D01*
X47131646Y-70532911D01*
X47081403Y-70667618D01*
X47081401Y-70667629D01*
X47075000Y-70727175D01*
X45733554Y-70727175D01*
X45697154Y-70677855D01*
X45697152Y-70677853D01*
X45697150Y-70677850D01*
X45697146Y-70677847D01*
X45697144Y-70677845D01*
X45587883Y-70597207D01*
X45459703Y-70552355D01*
X45459694Y-70552353D01*
X45429274Y-70549500D01*
X45429266Y-70549500D01*
X44370734Y-70549500D01*
X44370725Y-70549500D01*
X44340305Y-70552353D01*
X44340296Y-70552355D01*
X44212116Y-70597207D01*
X44102855Y-70677845D01*
X44102845Y-70677855D01*
X44022207Y-70787116D01*
X43977355Y-70915296D01*
X43977353Y-70915305D01*
X43974500Y-70945725D01*
X43974500Y-71554274D01*
X43977353Y-71584694D01*
X43977355Y-71584703D01*
X44022207Y-71712883D01*
X44102845Y-71822144D01*
X44102847Y-71822146D01*
X44102850Y-71822150D01*
X44102853Y-71822152D01*
X44102855Y-71822154D01*
X44212116Y-71902792D01*
X44212117Y-71902792D01*
X44212118Y-71902793D01*
X44340301Y-71947646D01*
X44370725Y-71950499D01*
X44370727Y-71950500D01*
X44370734Y-71950500D01*
X44450500Y-71950500D01*
X44508691Y-71969407D01*
X44544655Y-72018907D01*
X44549500Y-72049500D01*
X44549500Y-72201678D01*
X44530593Y-72259869D01*
X44520505Y-72271680D01*
X44499501Y-72292684D01*
X44499496Y-72292690D01*
X44433609Y-72406809D01*
X44420212Y-72456809D01*
X44399500Y-72534108D01*
X44399500Y-72665892D01*
X44426295Y-72765892D01*
X44433609Y-72793189D01*
X44438118Y-72800998D01*
X44450841Y-72860846D01*
X44425956Y-72916742D01*
X44372969Y-72947336D01*
X44352383Y-72949500D01*
X38180322Y-72949500D01*
X38122131Y-72930593D01*
X38086167Y-72881093D01*
X38084695Y-72824878D01*
X38091093Y-72800998D01*
X38100500Y-72765892D01*
X38100500Y-72634108D01*
X38066392Y-72506814D01*
X38066390Y-72506811D01*
X38066390Y-72506809D01*
X38000503Y-72392690D01*
X38000501Y-72392688D01*
X38000500Y-72392686D01*
X37907314Y-72299500D01*
X37907311Y-72299498D01*
X37907309Y-72299496D01*
X37793189Y-72233609D01*
X37793191Y-72233609D01*
X37731812Y-72217163D01*
X37665892Y-72199500D01*
X37534108Y-72199500D01*
X37468188Y-72217163D01*
X37406809Y-72233609D01*
X37292690Y-72299496D01*
X37199496Y-72392690D01*
X37133609Y-72506809D01*
X37114539Y-72577978D01*
X37099500Y-72634108D01*
X35152500Y-72634108D01*
X35152500Y-69234108D01*
X38999500Y-69234108D01*
X38999500Y-69365892D01*
X39008355Y-69398940D01*
X39033609Y-69493190D01*
X39099496Y-69607309D01*
X39099498Y-69607311D01*
X39099500Y-69607314D01*
X39192686Y-69700500D01*
X39192688Y-69700501D01*
X39192690Y-69700503D01*
X39306810Y-69766390D01*
X39306808Y-69766390D01*
X39306812Y-69766391D01*
X39306814Y-69766392D01*
X39434108Y-69800500D01*
X39434110Y-69800500D01*
X39565890Y-69800500D01*
X39565892Y-69800500D01*
X39693186Y-69766392D01*
X39761486Y-69726958D01*
X39821333Y-69714237D01*
X39877229Y-69739123D01*
X39891479Y-69757688D01*
X39892372Y-69757040D01*
X39896948Y-69763339D01*
X39896950Y-69763342D01*
X39986658Y-69853050D01*
X40099696Y-69910646D01*
X40193481Y-69925500D01*
X40806518Y-69925499D01*
X40806520Y-69925499D01*
X40806521Y-69925498D01*
X40853411Y-69918072D01*
X40900299Y-69910647D01*
X40900299Y-69910646D01*
X40900304Y-69910646D01*
X41013342Y-69853050D01*
X41103050Y-69763342D01*
X41160646Y-69650304D01*
X41175500Y-69556519D01*
X41175499Y-69093482D01*
X41166210Y-69034826D01*
X41160647Y-68999700D01*
X41160646Y-68999698D01*
X41160646Y-68999696D01*
X41103050Y-68886658D01*
X41013342Y-68796950D01*
X40900304Y-68739354D01*
X40900305Y-68739354D01*
X40806522Y-68724500D01*
X40193479Y-68724500D01*
X40193476Y-68724501D01*
X40099700Y-68739352D01*
X40099695Y-68739354D01*
X39986658Y-68796950D01*
X39986656Y-68796951D01*
X39909714Y-68873893D01*
X39855197Y-68901670D01*
X39794765Y-68892098D01*
X39790211Y-68889625D01*
X39693189Y-68833609D01*
X39693191Y-68833609D01*
X39642396Y-68819999D01*
X39565892Y-68799500D01*
X39434108Y-68799500D01*
X39357604Y-68819999D01*
X39306809Y-68833609D01*
X39192690Y-68899496D01*
X39099496Y-68992690D01*
X39033609Y-69106809D01*
X39033608Y-69106814D01*
X38999500Y-69234108D01*
X35152500Y-69234108D01*
X35152500Y-67443477D01*
X39824500Y-67443477D01*
X39824500Y-67906520D01*
X39824501Y-67906523D01*
X39839352Y-68000299D01*
X39839354Y-68000304D01*
X39896950Y-68113342D01*
X39986658Y-68203050D01*
X40099696Y-68260646D01*
X40193481Y-68275500D01*
X40806518Y-68275499D01*
X40806520Y-68275499D01*
X40806521Y-68275498D01*
X40853411Y-68268072D01*
X40900299Y-68260647D01*
X40900299Y-68260646D01*
X40900304Y-68260646D01*
X41013342Y-68203050D01*
X41103050Y-68113342D01*
X41160646Y-68000304D01*
X41165671Y-67968572D01*
X41193447Y-67914058D01*
X41247963Y-67886279D01*
X41289072Y-67888432D01*
X41334108Y-67900500D01*
X41334110Y-67900500D01*
X41465890Y-67900500D01*
X41465892Y-67900500D01*
X41593186Y-67866392D01*
X41593188Y-67866390D01*
X41593190Y-67866390D01*
X41707309Y-67800503D01*
X41707309Y-67800502D01*
X41707314Y-67800500D01*
X41800500Y-67707314D01*
X41831615Y-67653422D01*
X41866390Y-67593190D01*
X41866390Y-67593188D01*
X41866392Y-67593186D01*
X41900500Y-67465892D01*
X41900500Y-67334108D01*
X41866392Y-67206814D01*
X41866390Y-67206811D01*
X41866390Y-67206809D01*
X41800503Y-67092690D01*
X41800501Y-67092688D01*
X41800500Y-67092686D01*
X41707314Y-66999500D01*
X41707311Y-66999498D01*
X41707309Y-66999496D01*
X41593189Y-66933609D01*
X41593191Y-66933609D01*
X41543799Y-66920375D01*
X41465892Y-66899500D01*
X41334108Y-66899500D01*
X41256200Y-66920375D01*
X41206809Y-66933609D01*
X41092690Y-66999496D01*
X41092684Y-66999501D01*
X41019084Y-67073100D01*
X40964567Y-67100877D01*
X40904140Y-67091308D01*
X40900307Y-67089355D01*
X40900304Y-67089354D01*
X40839231Y-67079681D01*
X40806520Y-67074500D01*
X40193479Y-67074500D01*
X40193476Y-67074501D01*
X40099700Y-67089352D01*
X40099695Y-67089354D01*
X39986659Y-67146949D01*
X39896949Y-67236659D01*
X39839354Y-67349695D01*
X39824500Y-67443477D01*
X35152500Y-67443477D01*
X35152500Y-51158895D01*
X43525000Y-51158895D01*
X43525000Y-51224999D01*
X43525001Y-51225000D01*
X44099999Y-51225000D01*
X44100000Y-51224999D01*
X44100000Y-50675001D01*
X44099999Y-50675000D01*
X44008895Y-50675000D01*
X43924531Y-50685132D01*
X43790270Y-50738077D01*
X43675282Y-50825276D01*
X43675276Y-50825282D01*
X43588077Y-50940270D01*
X43535132Y-51074531D01*
X43525000Y-51158895D01*
X35152500Y-51158895D01*
X35152500Y-49825001D01*
X35700001Y-49825001D01*
X35700001Y-50044791D01*
X35702909Y-50069874D01*
X35748213Y-50172477D01*
X35827522Y-50251786D01*
X35930127Y-50297090D01*
X35955203Y-50299999D01*
X36299998Y-50299999D01*
X36300000Y-50299998D01*
X36300000Y-49825001D01*
X36700000Y-49825001D01*
X36700000Y-50299998D01*
X36700001Y-50299999D01*
X37044790Y-50299999D01*
X37044791Y-50299998D01*
X37069874Y-50297090D01*
X37172477Y-50251786D01*
X37251786Y-50172477D01*
X37297090Y-50069872D01*
X37299999Y-50044797D01*
X37300000Y-50044795D01*
X37300000Y-49825001D01*
X41700001Y-49825001D01*
X41700001Y-50044791D01*
X41702909Y-50069874D01*
X41748213Y-50172477D01*
X41827522Y-50251786D01*
X41930127Y-50297090D01*
X41955203Y-50299999D01*
X42299998Y-50299999D01*
X42300000Y-50299998D01*
X42300000Y-49825001D01*
X42299999Y-49825000D01*
X41700002Y-49825000D01*
X41700001Y-49825001D01*
X37300000Y-49825001D01*
X37299999Y-49825000D01*
X36700001Y-49825000D01*
X36700000Y-49825001D01*
X36300000Y-49825001D01*
X36299999Y-49825000D01*
X35700002Y-49825000D01*
X35700001Y-49825001D01*
X35152500Y-49825001D01*
X35152500Y-49205202D01*
X35700000Y-49205202D01*
X35700000Y-49424999D01*
X35700001Y-49425000D01*
X36299999Y-49425000D01*
X36300000Y-49424999D01*
X36300000Y-48950001D01*
X36700000Y-48950001D01*
X36700000Y-49424999D01*
X36700001Y-49425000D01*
X37299998Y-49425000D01*
X37299999Y-49424999D01*
X37299999Y-49205211D01*
X37299998Y-49205207D01*
X37299997Y-49205202D01*
X41700000Y-49205202D01*
X41700000Y-49424999D01*
X41700001Y-49425000D01*
X42299999Y-49425000D01*
X42300000Y-49424999D01*
X42300000Y-48950001D01*
X42299999Y-48950000D01*
X41955210Y-48950000D01*
X41955207Y-48950001D01*
X41930125Y-48952909D01*
X41827522Y-48998213D01*
X41748213Y-49077522D01*
X41702909Y-49180127D01*
X41700000Y-49205202D01*
X37299997Y-49205202D01*
X37297090Y-49180125D01*
X37251786Y-49077522D01*
X37172477Y-48998213D01*
X37069872Y-48952909D01*
X37044797Y-48950000D01*
X36700001Y-48950000D01*
X36700000Y-48950001D01*
X36300000Y-48950001D01*
X36299999Y-48950000D01*
X35955210Y-48950000D01*
X35955207Y-48950001D01*
X35930125Y-48952909D01*
X35827522Y-48998213D01*
X35748213Y-49077522D01*
X35702909Y-49180127D01*
X35700000Y-49205202D01*
X35152500Y-49205202D01*
X35152500Y-47850001D01*
X43275000Y-47850001D01*
X43275000Y-47943064D01*
X43285613Y-48031443D01*
X43341080Y-48172095D01*
X43432435Y-48292564D01*
X43552904Y-48383919D01*
X43693556Y-48439386D01*
X43781935Y-48449999D01*
X43781942Y-48450000D01*
X44099999Y-48450000D01*
X44100000Y-48449999D01*
X44100000Y-47850001D01*
X44500000Y-47850001D01*
X44500000Y-48449999D01*
X44500001Y-48450000D01*
X44818058Y-48450000D01*
X44818064Y-48449999D01*
X44906443Y-48439386D01*
X45047095Y-48383919D01*
X45167564Y-48292564D01*
X45258919Y-48172095D01*
X45314386Y-48031443D01*
X45324999Y-47943064D01*
X45325000Y-47943058D01*
X45325000Y-47850001D01*
X45324999Y-47850000D01*
X44500001Y-47850000D01*
X44500000Y-47850001D01*
X44100000Y-47850001D01*
X44099999Y-47850000D01*
X43275001Y-47850000D01*
X43275000Y-47850001D01*
X35152500Y-47850001D01*
X35152500Y-47356935D01*
X43275000Y-47356935D01*
X43275000Y-47449999D01*
X43275001Y-47450000D01*
X44099999Y-47450000D01*
X44100000Y-47449999D01*
X44100000Y-46850001D01*
X44500000Y-46850001D01*
X44500000Y-47449999D01*
X44500001Y-47450000D01*
X45324999Y-47450000D01*
X45325000Y-47449999D01*
X45325000Y-47356941D01*
X45324999Y-47356935D01*
X45314386Y-47268556D01*
X45258919Y-47127904D01*
X45167564Y-47007435D01*
X45047095Y-46916080D01*
X44906443Y-46860613D01*
X44818064Y-46850000D01*
X44500001Y-46850000D01*
X44500000Y-46850001D01*
X44100000Y-46850001D01*
X44099999Y-46850000D01*
X43781935Y-46850000D01*
X43693556Y-46860613D01*
X43552904Y-46916080D01*
X43432435Y-47007435D01*
X43341080Y-47127904D01*
X43285613Y-47268556D01*
X43275000Y-47356935D01*
X35152500Y-47356935D01*
X35152500Y-45980253D01*
X35799500Y-45980253D01*
X35799500Y-46769746D01*
X35799501Y-46769758D01*
X35811132Y-46828227D01*
X35811134Y-46828233D01*
X35825679Y-46850001D01*
X35855448Y-46894552D01*
X35921769Y-46938867D01*
X35966231Y-46947711D01*
X35980241Y-46950498D01*
X35980246Y-46950498D01*
X35980252Y-46950500D01*
X35980253Y-46950500D01*
X37019747Y-46950500D01*
X37019748Y-46950500D01*
X37078231Y-46938867D01*
X37144552Y-46894552D01*
X37188867Y-46828231D01*
X37193485Y-46805011D01*
X37198425Y-46780184D01*
X37228322Y-46726801D01*
X37283888Y-46701186D01*
X37295522Y-46700500D01*
X41704478Y-46700500D01*
X41762669Y-46719407D01*
X41798633Y-46768907D01*
X41801575Y-46780184D01*
X41811132Y-46828227D01*
X41811134Y-46828233D01*
X41825679Y-46850001D01*
X41855448Y-46894552D01*
X41921769Y-46938867D01*
X41966231Y-46947711D01*
X41980241Y-46950498D01*
X41980246Y-46950498D01*
X41980252Y-46950500D01*
X41980253Y-46950500D01*
X43019747Y-46950500D01*
X43019748Y-46950500D01*
X43078231Y-46938867D01*
X43144552Y-46894552D01*
X43188867Y-46828231D01*
X43200500Y-46769748D01*
X43200500Y-46424500D01*
X43219407Y-46366309D01*
X43268907Y-46330345D01*
X43299500Y-46325500D01*
X45342851Y-46325500D01*
X45342853Y-46325500D01*
X45425638Y-46303318D01*
X45425639Y-46303317D01*
X45431906Y-46301638D01*
X45432286Y-46303056D01*
X45485847Y-46298833D01*
X45538021Y-46330794D01*
X45561445Y-46387318D01*
X45558378Y-46420724D01*
X45549500Y-46453857D01*
X45549500Y-49113810D01*
X45530593Y-49172001D01*
X45520503Y-49183814D01*
X45394341Y-49309975D01*
X45339825Y-49337752D01*
X45279393Y-49328180D01*
X45236128Y-49284916D01*
X45226359Y-49247979D01*
X45225717Y-49248040D01*
X45222646Y-49215305D01*
X45222646Y-49215301D01*
X45177793Y-49087118D01*
X45175341Y-49083796D01*
X45097154Y-48977855D01*
X45097151Y-48977852D01*
X45097150Y-48977850D01*
X45097146Y-48977847D01*
X45097144Y-48977845D01*
X44987883Y-48897207D01*
X44859703Y-48852355D01*
X44859694Y-48852353D01*
X44829274Y-48849500D01*
X44829266Y-48849500D01*
X43770734Y-48849500D01*
X43770725Y-48849500D01*
X43740305Y-48852353D01*
X43740296Y-48852355D01*
X43612116Y-48897207D01*
X43502855Y-48977845D01*
X43502848Y-48977852D01*
X43419538Y-49090733D01*
X43369770Y-49126325D01*
X43308586Y-49125867D01*
X43259357Y-49089534D01*
X43256085Y-49083796D01*
X43251788Y-49077524D01*
X43172477Y-48998213D01*
X43069872Y-48952909D01*
X43044797Y-48950000D01*
X42700001Y-48950000D01*
X42700000Y-48950001D01*
X42700000Y-50299998D01*
X42700001Y-50299999D01*
X43044790Y-50299999D01*
X43044791Y-50299998D01*
X43069874Y-50297090D01*
X43172477Y-50251786D01*
X43251787Y-50172476D01*
X43290757Y-50084216D01*
X43331557Y-50038620D01*
X43391366Y-50025714D01*
X43447338Y-50050427D01*
X43460977Y-50065415D01*
X43502845Y-50122144D01*
X43502847Y-50122146D01*
X43502850Y-50122150D01*
X43502853Y-50122152D01*
X43502855Y-50122154D01*
X43612116Y-50202792D01*
X43612117Y-50202792D01*
X43612118Y-50202793D01*
X43740301Y-50247646D01*
X43770725Y-50250499D01*
X43770727Y-50250500D01*
X43770734Y-50250500D01*
X44700500Y-50250500D01*
X44758691Y-50269407D01*
X44794655Y-50318907D01*
X44799500Y-50349500D01*
X44799500Y-50589345D01*
X44780593Y-50647536D01*
X44731093Y-50683500D01*
X44681860Y-50685139D01*
X44681771Y-50685889D01*
X44676906Y-50685304D01*
X44676241Y-50685327D01*
X44675471Y-50685132D01*
X44591104Y-50675000D01*
X44500001Y-50675000D01*
X44500000Y-50675001D01*
X44500000Y-51326000D01*
X44481093Y-51384191D01*
X44431593Y-51420155D01*
X44401000Y-51425000D01*
X44300001Y-51425000D01*
X44300000Y-51425001D01*
X44300000Y-51526000D01*
X44281093Y-51584191D01*
X44231593Y-51620155D01*
X44201000Y-51625000D01*
X43525001Y-51625000D01*
X43525000Y-51625001D01*
X43525000Y-51691104D01*
X43535132Y-51775468D01*
X43588077Y-51909729D01*
X43675276Y-52024717D01*
X43675282Y-52024723D01*
X43790270Y-52111922D01*
X43909936Y-52159112D01*
X43957133Y-52198049D01*
X43972430Y-52257291D01*
X43949984Y-52314211D01*
X43918563Y-52339419D01*
X43796781Y-52401471D01*
X43701470Y-52496782D01*
X43640283Y-52616867D01*
X43640281Y-52616874D01*
X43624500Y-52716510D01*
X43624500Y-53233489D01*
X43640281Y-53333125D01*
X43640283Y-53333132D01*
X43695624Y-53441743D01*
X43701472Y-53453220D01*
X43796780Y-53548528D01*
X43796782Y-53548529D01*
X43916867Y-53609716D01*
X43916869Y-53609716D01*
X43916874Y-53609719D01*
X43992541Y-53621703D01*
X44016510Y-53625500D01*
X44016512Y-53625500D01*
X44583491Y-53625500D01*
X44663121Y-53612887D01*
X44683126Y-53609719D01*
X44683126Y-53609718D01*
X44685013Y-53609420D01*
X44745445Y-53618991D01*
X44788709Y-53662256D01*
X44799500Y-53707201D01*
X44799500Y-54161365D01*
X44780593Y-54219556D01*
X44731093Y-54255520D01*
X44669907Y-54255520D01*
X44631417Y-54228159D01*
X44629509Y-54230068D01*
X44624717Y-54225276D01*
X44509729Y-54138077D01*
X44375468Y-54085132D01*
X44291104Y-54075000D01*
X44200001Y-54075000D01*
X44200000Y-54075001D01*
X44200000Y-54726000D01*
X44181093Y-54784191D01*
X44131593Y-54820155D01*
X44101000Y-54825000D01*
X44000001Y-54825000D01*
X44000000Y-54825001D01*
X44000000Y-54926000D01*
X43981093Y-54984191D01*
X43931593Y-55020155D01*
X43901000Y-55025000D01*
X43225001Y-55025000D01*
X43225000Y-55025001D01*
X43225000Y-55091104D01*
X43235132Y-55175468D01*
X43288077Y-55309729D01*
X43375276Y-55424717D01*
X43375282Y-55424723D01*
X43490270Y-55511922D01*
X43609936Y-55559112D01*
X43657133Y-55598049D01*
X43672430Y-55657291D01*
X43649984Y-55714211D01*
X43618563Y-55739419D01*
X43496781Y-55801471D01*
X43401470Y-55896782D01*
X43340283Y-56016867D01*
X43340281Y-56016874D01*
X43324500Y-56116510D01*
X43324500Y-56633489D01*
X43327163Y-56650304D01*
X43340020Y-56731481D01*
X43340281Y-56733125D01*
X43340283Y-56733132D01*
X43401470Y-56853217D01*
X43401472Y-56853220D01*
X43496780Y-56948528D01*
X43496782Y-56948529D01*
X43616867Y-57009716D01*
X43616869Y-57009716D01*
X43616874Y-57009719D01*
X43692541Y-57021703D01*
X43716510Y-57025500D01*
X43716512Y-57025500D01*
X44283490Y-57025500D01*
X44304885Y-57022111D01*
X44383126Y-57009719D01*
X44503220Y-56948528D01*
X44598528Y-56853220D01*
X44612290Y-56826211D01*
X44655554Y-56782946D01*
X44715986Y-56773374D01*
X44770503Y-56801151D01*
X44798281Y-56855667D01*
X44799500Y-56871155D01*
X44799500Y-57725500D01*
X44780593Y-57783691D01*
X44731093Y-57819655D01*
X44700500Y-57824500D01*
X42468495Y-57824500D01*
X42410304Y-57805593D01*
X42374340Y-57756093D01*
X42374340Y-57694907D01*
X42410304Y-57645407D01*
X42442869Y-57629874D01*
X42493186Y-57616392D01*
X42493188Y-57616390D01*
X42493190Y-57616390D01*
X42607309Y-57550503D01*
X42607309Y-57550502D01*
X42607314Y-57550500D01*
X42700500Y-57457314D01*
X42733590Y-57400001D01*
X42766390Y-57343190D01*
X42766390Y-57343188D01*
X42766392Y-57343186D01*
X42800500Y-57215892D01*
X42800500Y-57084108D01*
X42766392Y-56956814D01*
X42766390Y-56956811D01*
X42766390Y-56956809D01*
X42700503Y-56842690D01*
X42700499Y-56842684D01*
X42654496Y-56796681D01*
X42626719Y-56742164D01*
X42625500Y-56726678D01*
X42625500Y-54558895D01*
X43225000Y-54558895D01*
X43225000Y-54624999D01*
X43225001Y-54625000D01*
X43799999Y-54625000D01*
X43800000Y-54624999D01*
X43800000Y-54075001D01*
X43799999Y-54075000D01*
X43708895Y-54075000D01*
X43624531Y-54085132D01*
X43490270Y-54138077D01*
X43375282Y-54225276D01*
X43375276Y-54225282D01*
X43288077Y-54340270D01*
X43235132Y-54474531D01*
X43225000Y-54558895D01*
X42625500Y-54558895D01*
X42625500Y-54049500D01*
X42644407Y-53991309D01*
X42693907Y-53955345D01*
X42724500Y-53950500D01*
X43019747Y-53950500D01*
X43019748Y-53950500D01*
X43078231Y-53938867D01*
X43144552Y-53894552D01*
X43188867Y-53828231D01*
X43200500Y-53769748D01*
X43200500Y-52980252D01*
X43188867Y-52921769D01*
X43144552Y-52855448D01*
X43144548Y-52855445D01*
X43078233Y-52811134D01*
X43078231Y-52811133D01*
X43078228Y-52811132D01*
X43078227Y-52811132D01*
X43019758Y-52799501D01*
X43019748Y-52799500D01*
X41980252Y-52799500D01*
X41980251Y-52799500D01*
X41980241Y-52799501D01*
X41921772Y-52811132D01*
X41921766Y-52811134D01*
X41855451Y-52855445D01*
X41855445Y-52855451D01*
X41811134Y-52921766D01*
X41811132Y-52921772D01*
X41801575Y-52969816D01*
X41771678Y-53023199D01*
X41716112Y-53048814D01*
X41704478Y-53049500D01*
X37295522Y-53049500D01*
X37237331Y-53030593D01*
X37201367Y-52981093D01*
X37198425Y-52969816D01*
X37192806Y-52941576D01*
X37188867Y-52921769D01*
X37144552Y-52855448D01*
X37144548Y-52855445D01*
X37078233Y-52811134D01*
X37078231Y-52811133D01*
X37078228Y-52811132D01*
X37078227Y-52811132D01*
X37019758Y-52799501D01*
X37019748Y-52799500D01*
X35980252Y-52799500D01*
X35980251Y-52799500D01*
X35980241Y-52799501D01*
X35921772Y-52811132D01*
X35921766Y-52811134D01*
X35855451Y-52855445D01*
X35855445Y-52855451D01*
X35811134Y-52921766D01*
X35811132Y-52921772D01*
X35799501Y-52980241D01*
X35799500Y-52980253D01*
X35799500Y-53769746D01*
X35799501Y-53769758D01*
X35811132Y-53828227D01*
X35811134Y-53828233D01*
X35820763Y-53842643D01*
X35855448Y-53894552D01*
X35921769Y-53938867D01*
X35965688Y-53947603D01*
X35980241Y-53950498D01*
X35980246Y-53950498D01*
X35980252Y-53950500D01*
X35980253Y-53950500D01*
X37019747Y-53950500D01*
X37019748Y-53950500D01*
X37078231Y-53938867D01*
X37144552Y-53894552D01*
X37188867Y-53828231D01*
X37193485Y-53805011D01*
X37198425Y-53780184D01*
X37228322Y-53726801D01*
X37283888Y-53701186D01*
X37295522Y-53700500D01*
X41704478Y-53700500D01*
X41762669Y-53719407D01*
X41798633Y-53768907D01*
X41801575Y-53780184D01*
X41811132Y-53828227D01*
X41811134Y-53828233D01*
X41820763Y-53842643D01*
X41855448Y-53894552D01*
X41855451Y-53894554D01*
X41929877Y-53944285D01*
X41927659Y-53947603D01*
X41959849Y-53975029D01*
X41974500Y-54026858D01*
X41974500Y-56726678D01*
X41955593Y-56784869D01*
X41945504Y-56796681D01*
X41899500Y-56842684D01*
X41899496Y-56842690D01*
X41833609Y-56956809D01*
X41819432Y-57009719D01*
X41799500Y-57084108D01*
X41799500Y-57215892D01*
X41823314Y-57304767D01*
X41833609Y-57343190D01*
X41899496Y-57457309D01*
X41899498Y-57457311D01*
X41899500Y-57457314D01*
X41992686Y-57550500D01*
X41992688Y-57550501D01*
X41992690Y-57550503D01*
X42106810Y-57616390D01*
X42106808Y-57616390D01*
X42106812Y-57616391D01*
X42106814Y-57616392D01*
X42157129Y-57629873D01*
X42208442Y-57663197D01*
X42230369Y-57720319D01*
X42214533Y-57779419D01*
X42166984Y-57817924D01*
X42131505Y-57824500D01*
X40062123Y-57824500D01*
X40003932Y-57805593D01*
X39967968Y-57756093D01*
X39967968Y-57694907D01*
X39970026Y-57689181D01*
X40014867Y-57575472D01*
X40024999Y-57491104D01*
X40025000Y-57491100D01*
X40025000Y-57400001D01*
X40024999Y-57400000D01*
X39374000Y-57400000D01*
X39315809Y-57381093D01*
X39279845Y-57331593D01*
X39275000Y-57301000D01*
X39275000Y-57200001D01*
X39274999Y-57200000D01*
X39174000Y-57200000D01*
X39115809Y-57181093D01*
X39079845Y-57131593D01*
X39075000Y-57101000D01*
X39075000Y-56425001D01*
X39475000Y-56425001D01*
X39475000Y-56999999D01*
X39475001Y-57000000D01*
X40024999Y-57000000D01*
X40025000Y-56999999D01*
X40025000Y-56908899D01*
X40024999Y-56908895D01*
X40014867Y-56824531D01*
X39961922Y-56690270D01*
X39874723Y-56575282D01*
X39874717Y-56575276D01*
X39759729Y-56488077D01*
X39625468Y-56435132D01*
X39541104Y-56425000D01*
X39475001Y-56425000D01*
X39475000Y-56425001D01*
X39075000Y-56425001D01*
X39074999Y-56425000D01*
X39008895Y-56425000D01*
X38924531Y-56435132D01*
X38790270Y-56488077D01*
X38675282Y-56575276D01*
X38675276Y-56575282D01*
X38588077Y-56690271D01*
X38588074Y-56690275D01*
X38540886Y-56809936D01*
X38501949Y-56857133D01*
X38442707Y-56872430D01*
X38385788Y-56849983D01*
X38360580Y-56818563D01*
X38317047Y-56733126D01*
X38298528Y-56696780D01*
X38203220Y-56601472D01*
X38203217Y-56601470D01*
X38083132Y-56540283D01*
X38083127Y-56540281D01*
X38083126Y-56540281D01*
X38049913Y-56535020D01*
X37983490Y-56524500D01*
X37983488Y-56524500D01*
X37466512Y-56524500D01*
X37466510Y-56524500D01*
X37366874Y-56540281D01*
X37366867Y-56540283D01*
X37246782Y-56601470D01*
X37151470Y-56696782D01*
X37090283Y-56816867D01*
X37090281Y-56816874D01*
X37074500Y-56916510D01*
X37074500Y-57483489D01*
X37090281Y-57583125D01*
X37090283Y-57583132D01*
X37147236Y-57694907D01*
X37151472Y-57703220D01*
X37246780Y-57798528D01*
X37246782Y-57798529D01*
X37246783Y-57798530D01*
X37270867Y-57810801D01*
X37295444Y-57823323D01*
X37338709Y-57866586D01*
X37349500Y-57911533D01*
X37349500Y-58278786D01*
X37330593Y-58336977D01*
X37295446Y-58366995D01*
X37236660Y-58396948D01*
X37146949Y-58486659D01*
X37089354Y-58599695D01*
X37074500Y-58693478D01*
X37074500Y-59177769D01*
X37071127Y-59203390D01*
X37049500Y-59284106D01*
X37049500Y-59284108D01*
X37049500Y-59415892D01*
X37074828Y-59510419D01*
X37083609Y-59543190D01*
X37149496Y-59657309D01*
X37149498Y-59657311D01*
X37149500Y-59657314D01*
X37197684Y-59705498D01*
X37225460Y-59760013D01*
X37215889Y-59820445D01*
X37172624Y-59863710D01*
X37127679Y-59874500D01*
X36642853Y-59874500D01*
X36557147Y-59874500D01*
X36474362Y-59896682D01*
X36400138Y-59939535D01*
X36339535Y-60000138D01*
X36296682Y-60074362D01*
X36274500Y-60157147D01*
X36274500Y-63707147D01*
X36274500Y-63792853D01*
X36281749Y-63819907D01*
X36296683Y-63875643D01*
X36339531Y-63949857D01*
X36339533Y-63949859D01*
X36339535Y-63949862D01*
X36820505Y-64430832D01*
X36848281Y-64485347D01*
X36849500Y-64500834D01*
X36849500Y-64565892D01*
X36872899Y-64653220D01*
X36883609Y-64693190D01*
X36949496Y-64807309D01*
X36949498Y-64807311D01*
X36949500Y-64807314D01*
X37042686Y-64900500D01*
X37042688Y-64900501D01*
X37042690Y-64900503D01*
X37156810Y-64966390D01*
X37156808Y-64966390D01*
X37156812Y-64966391D01*
X37156814Y-64966392D01*
X37284108Y-65000500D01*
X37284110Y-65000500D01*
X37415890Y-65000500D01*
X37415892Y-65000500D01*
X37543186Y-64966392D01*
X37543188Y-64966390D01*
X37543190Y-64966390D01*
X37657309Y-64900503D01*
X37657309Y-64900502D01*
X37657314Y-64900500D01*
X37750500Y-64807314D01*
X37781571Y-64753498D01*
X37816390Y-64693190D01*
X37816390Y-64693188D01*
X37816392Y-64693186D01*
X37850500Y-64565892D01*
X37850500Y-64434108D01*
X37816392Y-64306814D01*
X37816390Y-64306811D01*
X37816390Y-64306809D01*
X37750503Y-64192690D01*
X37750501Y-64192688D01*
X37750500Y-64192686D01*
X37657314Y-64099500D01*
X37657311Y-64099498D01*
X37657309Y-64099496D01*
X37543189Y-64033609D01*
X37543190Y-64033609D01*
X37540854Y-64032983D01*
X37415892Y-63999500D01*
X37415890Y-63999500D01*
X37350835Y-63999500D01*
X37292644Y-63980593D01*
X37286096Y-63975001D01*
X41725000Y-63975001D01*
X41725000Y-64041104D01*
X41735132Y-64125468D01*
X41788077Y-64259729D01*
X41875276Y-64374717D01*
X41875282Y-64374723D01*
X41990270Y-64461922D01*
X42124531Y-64514867D01*
X42208895Y-64524999D01*
X42208900Y-64525000D01*
X42299999Y-64525000D01*
X42300000Y-64524999D01*
X42300000Y-63975001D01*
X42700000Y-63975001D01*
X42700000Y-64524999D01*
X42700001Y-64525000D01*
X42791100Y-64525000D01*
X42791104Y-64524999D01*
X42875468Y-64514867D01*
X43009729Y-64461922D01*
X43124717Y-64374723D01*
X43124723Y-64374717D01*
X43211922Y-64259729D01*
X43264867Y-64125468D01*
X43274999Y-64041104D01*
X43275000Y-64041100D01*
X43275000Y-63975001D01*
X43274999Y-63975000D01*
X42700001Y-63975000D01*
X42700000Y-63975001D01*
X42300000Y-63975001D01*
X42299999Y-63975000D01*
X41725001Y-63975000D01*
X41725000Y-63975001D01*
X37286096Y-63975001D01*
X37280831Y-63970504D01*
X36954496Y-63644169D01*
X36950869Y-63637051D01*
X36944407Y-63632356D01*
X36937243Y-63610307D01*
X36926719Y-63589652D01*
X36925500Y-63574165D01*
X36925500Y-63508895D01*
X41725000Y-63508895D01*
X41725000Y-63574999D01*
X41725001Y-63575000D01*
X43274999Y-63575000D01*
X43275000Y-63574999D01*
X43275000Y-63508899D01*
X43274999Y-63508895D01*
X43264867Y-63424531D01*
X43211922Y-63290270D01*
X43124723Y-63175282D01*
X43124717Y-63175276D01*
X43009728Y-63088077D01*
X43009724Y-63088074D01*
X42890063Y-63040886D01*
X42842866Y-63001950D01*
X42827569Y-62942707D01*
X42850015Y-62885788D01*
X42881437Y-62860579D01*
X42883124Y-62859719D01*
X42883126Y-62859719D01*
X43003220Y-62798528D01*
X43098528Y-62703220D01*
X43159719Y-62583126D01*
X43175500Y-62483488D01*
X43175500Y-62400346D01*
X43185672Y-62358895D01*
X43425000Y-62358895D01*
X43425000Y-62424999D01*
X43425001Y-62425000D01*
X43999999Y-62425000D01*
X44000000Y-62424999D01*
X44000000Y-61875001D01*
X43999999Y-61875000D01*
X43908895Y-61875000D01*
X43824531Y-61885132D01*
X43690270Y-61938077D01*
X43575282Y-62025276D01*
X43575276Y-62025282D01*
X43488077Y-62140270D01*
X43435132Y-62274531D01*
X43425000Y-62358895D01*
X43185672Y-62358895D01*
X43186746Y-62354518D01*
X43187711Y-62352669D01*
X43203318Y-62325638D01*
X43225500Y-62242853D01*
X43225500Y-61773321D01*
X43244407Y-61715130D01*
X43254490Y-61703323D01*
X43300500Y-61657314D01*
X43331423Y-61603754D01*
X43366390Y-61543190D01*
X43366390Y-61543188D01*
X43366392Y-61543186D01*
X43400500Y-61415892D01*
X43400500Y-61284108D01*
X43366392Y-61156814D01*
X43366390Y-61156811D01*
X43366390Y-61156809D01*
X43300503Y-61042690D01*
X43300501Y-61042688D01*
X43300500Y-61042686D01*
X43207314Y-60949500D01*
X43207311Y-60949498D01*
X43207309Y-60949496D01*
X43093189Y-60883609D01*
X43093191Y-60883609D01*
X43043799Y-60870375D01*
X42965892Y-60849500D01*
X42834108Y-60849500D01*
X42756200Y-60870375D01*
X42706809Y-60883609D01*
X42592690Y-60949496D01*
X42499496Y-61042690D01*
X42433609Y-61156809D01*
X42427395Y-61180000D01*
X42399500Y-61284108D01*
X42399500Y-61415892D01*
X42408606Y-61449879D01*
X42405405Y-61510978D01*
X42366900Y-61558528D01*
X42312980Y-61574500D01*
X42216510Y-61574500D01*
X42116874Y-61590281D01*
X42116867Y-61590283D01*
X41996782Y-61651470D01*
X41901470Y-61746782D01*
X41840283Y-61866867D01*
X41840281Y-61866874D01*
X41824500Y-61966510D01*
X41824500Y-62483489D01*
X41840281Y-62583125D01*
X41840283Y-62583132D01*
X41901470Y-62703217D01*
X41901472Y-62703220D01*
X41996780Y-62798528D01*
X42048734Y-62825000D01*
X42118563Y-62860580D01*
X42161827Y-62903844D01*
X42171398Y-62964277D01*
X42143620Y-63018793D01*
X42109936Y-63040886D01*
X41990275Y-63088074D01*
X41990271Y-63088077D01*
X41875282Y-63175276D01*
X41875276Y-63175282D01*
X41788077Y-63290270D01*
X41735132Y-63424531D01*
X41725000Y-63508895D01*
X36925500Y-63508895D01*
X36925500Y-60624500D01*
X36944407Y-60566309D01*
X36993907Y-60530345D01*
X37024500Y-60525500D01*
X38942851Y-60525500D01*
X38942853Y-60525500D01*
X39025639Y-60503318D01*
X39025641Y-60503316D01*
X39025643Y-60503316D01*
X39099857Y-60460468D01*
X39099857Y-60460467D01*
X39099862Y-60460465D01*
X39524859Y-60035466D01*
X39524862Y-60035465D01*
X39585465Y-59974862D01*
X39610126Y-59932147D01*
X39628318Y-59900639D01*
X39650501Y-59817853D01*
X39650501Y-59732147D01*
X39650501Y-59726085D01*
X39650500Y-59726067D01*
X39650500Y-59721213D01*
X39669407Y-59663022D01*
X39704555Y-59633004D01*
X39744907Y-59612443D01*
X39763342Y-59603050D01*
X39853050Y-59513342D01*
X39910646Y-59400304D01*
X39925500Y-59306519D01*
X39925499Y-58693482D01*
X39925498Y-58693478D01*
X39925498Y-58693476D01*
X39909428Y-58591999D01*
X39912397Y-58591528D01*
X39912406Y-58543891D01*
X39948378Y-58494397D01*
X40006555Y-58475500D01*
X43335424Y-58475500D01*
X43393615Y-58494407D01*
X43429579Y-58543907D01*
X43433718Y-58586305D01*
X43425000Y-58658895D01*
X43425000Y-58724999D01*
X43425001Y-58725000D01*
X44101000Y-58725000D01*
X44159191Y-58743907D01*
X44195155Y-58793407D01*
X44200000Y-58824000D01*
X44200000Y-59026000D01*
X44181093Y-59084191D01*
X44131593Y-59120155D01*
X44101000Y-59125000D01*
X43425001Y-59125000D01*
X43425000Y-59125001D01*
X43425000Y-59191104D01*
X43435132Y-59275468D01*
X43488077Y-59409729D01*
X43575276Y-59524717D01*
X43575282Y-59524723D01*
X43690270Y-59611922D01*
X43809936Y-59659112D01*
X43857133Y-59698049D01*
X43872430Y-59757291D01*
X43849984Y-59814211D01*
X43818563Y-59839419D01*
X43696781Y-59901471D01*
X43601470Y-59996782D01*
X43540283Y-60116867D01*
X43540281Y-60116874D01*
X43524500Y-60216510D01*
X43524500Y-60733489D01*
X43540281Y-60833125D01*
X43540283Y-60833132D01*
X43601470Y-60953217D01*
X43601472Y-60953220D01*
X43696780Y-61048528D01*
X43696782Y-61048529D01*
X43816867Y-61109716D01*
X43816869Y-61109716D01*
X43816874Y-61109719D01*
X43892541Y-61121703D01*
X43916510Y-61125500D01*
X43916512Y-61125500D01*
X44483490Y-61125500D01*
X44504885Y-61122111D01*
X44583126Y-61109719D01*
X44655557Y-61072813D01*
X44715986Y-61063242D01*
X44770503Y-61091018D01*
X44798281Y-61145535D01*
X44799500Y-61161023D01*
X44799500Y-61828017D01*
X44780593Y-61886208D01*
X44731093Y-61922172D01*
X44669907Y-61922172D01*
X44664182Y-61920115D01*
X44575470Y-61885132D01*
X44491104Y-61875000D01*
X44400001Y-61875000D01*
X44400000Y-61875001D01*
X44400000Y-62526000D01*
X44381093Y-62584191D01*
X44331593Y-62620155D01*
X44301000Y-62625000D01*
X44200001Y-62625000D01*
X44200000Y-62625001D01*
X44200000Y-62726000D01*
X44181093Y-62784191D01*
X44131593Y-62820155D01*
X44101000Y-62825000D01*
X43425001Y-62825000D01*
X43425000Y-62825001D01*
X43425000Y-62891104D01*
X43435132Y-62975468D01*
X43488077Y-63109729D01*
X43575276Y-63224717D01*
X43575282Y-63224723D01*
X43690270Y-63311922D01*
X43809936Y-63359112D01*
X43857133Y-63398049D01*
X43872430Y-63457291D01*
X43849984Y-63514211D01*
X43818563Y-63539419D01*
X43696781Y-63601471D01*
X43601470Y-63696782D01*
X43540283Y-63816867D01*
X43540281Y-63816874D01*
X43526309Y-63905093D01*
X43524500Y-63916512D01*
X43524500Y-64433488D01*
X43535166Y-64500834D01*
X43540281Y-64533125D01*
X43540283Y-64533132D01*
X43601470Y-64653217D01*
X43601472Y-64653220D01*
X43696780Y-64748528D01*
X43696782Y-64748529D01*
X43816867Y-64809716D01*
X43816869Y-64809716D01*
X43816874Y-64809719D01*
X43892541Y-64821703D01*
X43916510Y-64825500D01*
X43916512Y-64825500D01*
X44483490Y-64825500D01*
X44504885Y-64822111D01*
X44583126Y-64809719D01*
X44655557Y-64772813D01*
X44715986Y-64763242D01*
X44770503Y-64791018D01*
X44798281Y-64845535D01*
X44799500Y-64861023D01*
X44799500Y-67796143D01*
X44800500Y-67799875D01*
X44797299Y-67860976D01*
X44758795Y-67908527D01*
X44704874Y-67924500D01*
X42592853Y-67924500D01*
X42507147Y-67924500D01*
X42424361Y-67946682D01*
X42424359Y-67946682D01*
X42424359Y-67946683D01*
X42400489Y-67960463D01*
X42400490Y-67960464D01*
X42350136Y-67989535D01*
X42289534Y-68050137D01*
X42289535Y-68050138D01*
X41639531Y-68700142D01*
X41596683Y-68774357D01*
X41596682Y-68774359D01*
X41589945Y-68799498D01*
X41589946Y-68799499D01*
X41574500Y-68857147D01*
X41574500Y-70476678D01*
X41555593Y-70534869D01*
X41545504Y-70546681D01*
X41499500Y-70592684D01*
X41499496Y-70592690D01*
X41433609Y-70706809D01*
X41416074Y-70772251D01*
X41399500Y-70834108D01*
X41399500Y-70965892D01*
X41423669Y-71056093D01*
X41433609Y-71093190D01*
X41499496Y-71207309D01*
X41499498Y-71207311D01*
X41499500Y-71207314D01*
X41592686Y-71300500D01*
X41592688Y-71300501D01*
X41592690Y-71300503D01*
X41706810Y-71366390D01*
X41706808Y-71366390D01*
X41706812Y-71366391D01*
X41706814Y-71366392D01*
X41834108Y-71400500D01*
X41834110Y-71400500D01*
X41965890Y-71400500D01*
X41965892Y-71400500D01*
X42093186Y-71366392D01*
X42093188Y-71366390D01*
X42093190Y-71366390D01*
X42207309Y-71300503D01*
X42207309Y-71300502D01*
X42207314Y-71300500D01*
X42300500Y-71207314D01*
X42314895Y-71182381D01*
X42366390Y-71093190D01*
X42366390Y-71093188D01*
X42366392Y-71093186D01*
X42400500Y-70965892D01*
X42400500Y-70834108D01*
X42366392Y-70706814D01*
X42366390Y-70706811D01*
X42366390Y-70706809D01*
X42300503Y-70592690D01*
X42300499Y-70592684D01*
X42254496Y-70546681D01*
X42226719Y-70492164D01*
X42225500Y-70476678D01*
X42225500Y-69550001D01*
X43875000Y-69550001D01*
X43875000Y-69643064D01*
X43885613Y-69731443D01*
X43941080Y-69872095D01*
X44032435Y-69992564D01*
X44152904Y-70083919D01*
X44293556Y-70139386D01*
X44381935Y-70149999D01*
X44381942Y-70150000D01*
X44699999Y-70150000D01*
X44700000Y-70149999D01*
X44700000Y-69550001D01*
X45100000Y-69550001D01*
X45100000Y-70149999D01*
X45100001Y-70150000D01*
X45418058Y-70150000D01*
X45418064Y-70149999D01*
X45506443Y-70139386D01*
X45647095Y-70083919D01*
X45767564Y-69992564D01*
X45858919Y-69872095D01*
X45914386Y-69731443D01*
X45924999Y-69643064D01*
X45925000Y-69643058D01*
X45925000Y-69550001D01*
X45924999Y-69550000D01*
X45100001Y-69550000D01*
X45100000Y-69550001D01*
X44700000Y-69550001D01*
X44699999Y-69550000D01*
X43875001Y-69550000D01*
X43875000Y-69550001D01*
X42225500Y-69550001D01*
X42225500Y-69075834D01*
X42244407Y-69017643D01*
X42254496Y-69005830D01*
X42655830Y-68604496D01*
X42710347Y-68576719D01*
X42725834Y-68575500D01*
X43933164Y-68575500D01*
X43991355Y-68594407D01*
X44027319Y-68643907D01*
X44027319Y-68705093D01*
X44012048Y-68734320D01*
X43941080Y-68827904D01*
X43885613Y-68968556D01*
X43875000Y-69056935D01*
X43875000Y-69149999D01*
X43875001Y-69150000D01*
X45924999Y-69150000D01*
X45925000Y-69149999D01*
X45925000Y-69056941D01*
X45924999Y-69056935D01*
X45914386Y-68968556D01*
X45858919Y-68827904D01*
X45787952Y-68734320D01*
X45767857Y-68676528D01*
X45785568Y-68617963D01*
X45834321Y-68580992D01*
X45866836Y-68575500D01*
X47219101Y-68575500D01*
X47277292Y-68594407D01*
X47313256Y-68643907D01*
X47313256Y-68705093D01*
X47289106Y-68744501D01*
X47259251Y-68774357D01*
X47246949Y-68786659D01*
X47189354Y-68899695D01*
X47174500Y-68993477D01*
X47174500Y-69606520D01*
X47174501Y-69606523D01*
X47189352Y-69700299D01*
X47189354Y-69700304D01*
X47246950Y-69813342D01*
X47336658Y-69903050D01*
X47449696Y-69960646D01*
X47543481Y-69975500D01*
X48006518Y-69975499D01*
X48006520Y-69975499D01*
X48006521Y-69975498D01*
X48075502Y-69964574D01*
X48100299Y-69960647D01*
X48100299Y-69960646D01*
X48100304Y-69960646D01*
X48213342Y-69903050D01*
X48303050Y-69813342D01*
X48360646Y-69700304D01*
X48375500Y-69606519D01*
X48375499Y-69300347D01*
X48388764Y-69250846D01*
X48403316Y-69225641D01*
X48403315Y-69225641D01*
X48403318Y-69225638D01*
X48425500Y-69142853D01*
X48425500Y-68725834D01*
X48444407Y-68667643D01*
X48454496Y-68655830D01*
X48499860Y-68610466D01*
X48499862Y-68610465D01*
X48560465Y-68549862D01*
X48597631Y-68485489D01*
X48603318Y-68475639D01*
X48625501Y-68392853D01*
X48625501Y-68307147D01*
X48625501Y-68301085D01*
X48625500Y-68301067D01*
X48625500Y-67988808D01*
X48644407Y-67930617D01*
X48693907Y-67894653D01*
X48755093Y-67894653D01*
X48804593Y-67930617D01*
X48810233Y-67939302D01*
X48849500Y-68007314D01*
X48920505Y-68078319D01*
X48948281Y-68132834D01*
X48949500Y-68148321D01*
X48949500Y-68539564D01*
X48969978Y-68615988D01*
X48972463Y-68621987D01*
X48970048Y-68622987D01*
X48980456Y-68671949D01*
X48955570Y-68727845D01*
X48952002Y-68731605D01*
X48896951Y-68786656D01*
X48896950Y-68786658D01*
X48839354Y-68899695D01*
X48824500Y-68993477D01*
X48824500Y-69606520D01*
X48824501Y-69606523D01*
X48839352Y-69700299D01*
X48839354Y-69700304D01*
X48896950Y-69813342D01*
X48986658Y-69903050D01*
X49070446Y-69945742D01*
X49113710Y-69989006D01*
X49124500Y-70033951D01*
X49124500Y-70316048D01*
X49105593Y-70374239D01*
X49070446Y-70404257D01*
X48986659Y-70446949D01*
X48896949Y-70536659D01*
X48839354Y-70649695D01*
X48824500Y-70743477D01*
X48824500Y-71356520D01*
X48824501Y-71356523D01*
X48839352Y-71450299D01*
X48839354Y-71450304D01*
X48896950Y-71563342D01*
X48986658Y-71653050D01*
X49099696Y-71710646D01*
X49193481Y-71725500D01*
X49656518Y-71725499D01*
X49656520Y-71725499D01*
X49656521Y-71725498D01*
X49703411Y-71718072D01*
X49750299Y-71710647D01*
X49750299Y-71710646D01*
X49750304Y-71710646D01*
X49863342Y-71653050D01*
X49953050Y-71563342D01*
X50010646Y-71450304D01*
X50025500Y-71356519D01*
X50025500Y-71122824D01*
X57424999Y-71122824D01*
X57431401Y-71182370D01*
X57431403Y-71182381D01*
X57481646Y-71317088D01*
X57481647Y-71317090D01*
X57567807Y-71432184D01*
X57567815Y-71432192D01*
X57682909Y-71518352D01*
X57682911Y-71518353D01*
X57817618Y-71568596D01*
X57817629Y-71568598D01*
X57877176Y-71575000D01*
X57999999Y-71575000D01*
X58000000Y-71574999D01*
X58000000Y-71075001D01*
X57999999Y-71075000D01*
X57425001Y-71075000D01*
X57425000Y-71075001D01*
X57425000Y-71122824D01*
X57424999Y-71122824D01*
X50025500Y-71122824D01*
X50025499Y-70743482D01*
X50010646Y-70649696D01*
X50010645Y-70649694D01*
X50010645Y-70649693D01*
X49999171Y-70627175D01*
X57425000Y-70627175D01*
X57425000Y-70674999D01*
X57425001Y-70675000D01*
X57999999Y-70675000D01*
X58000000Y-70674999D01*
X58000000Y-70175001D01*
X57999999Y-70175000D01*
X57877176Y-70175000D01*
X57817629Y-70181401D01*
X57817618Y-70181403D01*
X57682911Y-70231646D01*
X57682909Y-70231647D01*
X57567815Y-70317807D01*
X57567807Y-70317815D01*
X57481647Y-70432909D01*
X57481646Y-70432911D01*
X57431403Y-70567618D01*
X57431401Y-70567629D01*
X57425000Y-70627175D01*
X49999171Y-70627175D01*
X49981318Y-70592138D01*
X49953050Y-70536658D01*
X49863342Y-70446950D01*
X49835789Y-70432911D01*
X49779554Y-70404257D01*
X49736290Y-70360992D01*
X49725500Y-70316048D01*
X49725500Y-70033951D01*
X49744407Y-69975760D01*
X49779552Y-69945742D01*
X49863342Y-69903050D01*
X49953050Y-69813342D01*
X50010646Y-69700304D01*
X50025500Y-69606519D01*
X50025499Y-68993482D01*
X50023444Y-68980504D01*
X50010647Y-68899700D01*
X50010645Y-68899694D01*
X50006498Y-68891554D01*
X49959593Y-68799500D01*
X49953050Y-68786658D01*
X49863342Y-68696950D01*
X49839942Y-68685027D01*
X49757826Y-68643186D01*
X49714562Y-68599921D01*
X49707147Y-68580605D01*
X49700021Y-68554011D01*
X49700019Y-68554008D01*
X49700019Y-68554006D01*
X49660460Y-68485489D01*
X49604511Y-68429539D01*
X49604511Y-68429540D01*
X49579496Y-68404525D01*
X49551719Y-68350008D01*
X49550500Y-68334521D01*
X49550500Y-68148321D01*
X49569407Y-68090130D01*
X49579490Y-68078323D01*
X49650500Y-68007314D01*
X49660765Y-67989535D01*
X49716390Y-67893190D01*
X49716390Y-67893188D01*
X49716392Y-67893186D01*
X49750500Y-67765892D01*
X49750500Y-67634108D01*
X49716392Y-67506814D01*
X49716391Y-67506812D01*
X49714712Y-67500546D01*
X49717697Y-67499746D01*
X49713909Y-67451348D01*
X49745901Y-67399192D01*
X49802439Y-67375802D01*
X49810164Y-67375500D01*
X54686256Y-67375500D01*
X54735756Y-67388764D01*
X54835759Y-67446501D01*
X54835757Y-67446501D01*
X54835761Y-67446502D01*
X54835763Y-67446503D01*
X54943982Y-67475500D01*
X54943984Y-67475500D01*
X55056016Y-67475500D01*
X55056018Y-67475500D01*
X55164237Y-67446503D01*
X55164239Y-67446501D01*
X55164241Y-67446501D01*
X55225274Y-67411263D01*
X55261263Y-67390485D01*
X55340485Y-67311263D01*
X55396503Y-67214237D01*
X55425500Y-67106018D01*
X55425500Y-66993982D01*
X55396503Y-66885763D01*
X55396501Y-66885760D01*
X55396501Y-66885758D01*
X55340486Y-66788739D01*
X55340485Y-66788737D01*
X55261263Y-66709515D01*
X55261260Y-66709513D01*
X55164240Y-66653498D01*
X55164242Y-66653498D01*
X55108961Y-66638686D01*
X55056018Y-66624500D01*
X54943982Y-66624500D01*
X54891039Y-66638686D01*
X54835758Y-66653498D01*
X54735756Y-66711236D01*
X54686256Y-66724500D01*
X48698932Y-66724500D01*
X48698916Y-66724499D01*
X48692853Y-66724499D01*
X48607147Y-66724499D01*
X48607144Y-66724499D01*
X48524361Y-66746681D01*
X48512477Y-66753543D01*
X48487250Y-66768108D01*
X48463721Y-66781692D01*
X48450137Y-66789535D01*
X48389534Y-66850137D01*
X48389535Y-66850138D01*
X48389533Y-66850140D01*
X48389532Y-66850139D01*
X48039535Y-67200137D01*
X48039531Y-67200142D01*
X47996684Y-67274355D01*
X47996680Y-67274365D01*
X47985998Y-67314237D01*
X47982980Y-67325500D01*
X47980673Y-67334109D01*
X47974500Y-67357146D01*
X47974500Y-67524165D01*
X47955593Y-67582356D01*
X47945504Y-67594169D01*
X47644169Y-67895504D01*
X47589652Y-67923281D01*
X47574165Y-67924500D01*
X47110190Y-67924500D01*
X47051999Y-67905593D01*
X47016035Y-67856093D01*
X47016035Y-67794907D01*
X47040186Y-67755496D01*
X47161574Y-67634108D01*
X47630470Y-67165212D01*
X47676614Y-67085288D01*
X47700500Y-66996144D01*
X47700500Y-66903856D01*
X47700500Y-66898321D01*
X47719407Y-66840130D01*
X47729490Y-66828323D01*
X47750500Y-66807314D01*
X47761224Y-66788739D01*
X47816390Y-66693190D01*
X47816390Y-66693188D01*
X47816392Y-66693186D01*
X47850500Y-66565892D01*
X47850500Y-66434108D01*
X47834695Y-66375122D01*
X47837898Y-66314021D01*
X47876403Y-66266471D01*
X47930322Y-66250500D01*
X58835519Y-66250500D01*
X58893710Y-66269407D01*
X58929674Y-66318907D01*
X58929674Y-66380093D01*
X58911894Y-66409106D01*
X58913494Y-66410333D01*
X58909544Y-66415481D01*
X58909541Y-66415485D01*
X58909540Y-66415487D01*
X58887388Y-66453856D01*
X58887387Y-66453856D01*
X58869979Y-66484009D01*
X58869977Y-66484013D01*
X58849500Y-66560434D01*
X58849500Y-68349121D01*
X58830593Y-68407312D01*
X58781093Y-68443276D01*
X58719907Y-68443276D01*
X58680496Y-68419125D01*
X58659973Y-68398602D01*
X58659969Y-68398599D01*
X58528949Y-68311052D01*
X58528940Y-68311048D01*
X58383349Y-68250742D01*
X58228795Y-68220000D01*
X58050001Y-68220000D01*
X58050000Y-68220001D01*
X58050000Y-68720000D01*
X57650000Y-68720000D01*
X57650000Y-68220001D01*
X57649999Y-68220000D01*
X57471204Y-68220000D01*
X57316650Y-68250742D01*
X57171059Y-68311048D01*
X57171050Y-68311052D01*
X57040030Y-68398599D01*
X57040026Y-68398602D01*
X56928602Y-68510026D01*
X56928599Y-68510030D01*
X56841052Y-68641050D01*
X56841048Y-68641059D01*
X56780742Y-68786650D01*
X56774108Y-68820000D01*
X57325735Y-68820000D01*
X57309940Y-68835795D01*
X57270444Y-68904204D01*
X57250000Y-68980504D01*
X57250000Y-69059496D01*
X57270444Y-69135796D01*
X57309940Y-69204205D01*
X57325735Y-69220000D01*
X56774109Y-69220000D01*
X56780742Y-69253349D01*
X56841048Y-69398940D01*
X56841052Y-69398949D01*
X56928599Y-69529969D01*
X56928602Y-69529973D01*
X57040026Y-69641397D01*
X57040030Y-69641400D01*
X57171050Y-69728947D01*
X57171059Y-69728951D01*
X57316650Y-69789257D01*
X57471204Y-69819999D01*
X57471208Y-69820000D01*
X57649999Y-69820000D01*
X57650000Y-69819999D01*
X57650000Y-69320000D01*
X58050000Y-69320000D01*
X58050000Y-69819999D01*
X58050001Y-69820000D01*
X58228792Y-69820000D01*
X58228795Y-69819999D01*
X58383349Y-69789257D01*
X58528940Y-69728951D01*
X58528949Y-69728947D01*
X58659969Y-69641400D01*
X58659978Y-69641393D01*
X58680495Y-69620876D01*
X58735011Y-69593097D01*
X58795443Y-69602667D01*
X58838709Y-69645931D01*
X58849500Y-69690878D01*
X58849500Y-70138446D01*
X58830593Y-70196637D01*
X58781093Y-70232601D01*
X58719907Y-70232601D01*
X58715904Y-70231204D01*
X58582381Y-70181403D01*
X58582370Y-70181401D01*
X58522824Y-70175000D01*
X58400001Y-70175000D01*
X58400000Y-70175001D01*
X58400000Y-70674999D01*
X58400001Y-70675000D01*
X58750500Y-70675000D01*
X58808691Y-70693907D01*
X58844655Y-70743407D01*
X58849500Y-70774000D01*
X58849500Y-70976000D01*
X58830593Y-71034191D01*
X58781093Y-71070155D01*
X58750500Y-71075000D01*
X58400001Y-71075000D01*
X58400000Y-71075001D01*
X58400000Y-71574999D01*
X58400001Y-71575000D01*
X58522824Y-71575000D01*
X58582370Y-71568598D01*
X58582378Y-71568596D01*
X58715903Y-71518795D01*
X58777033Y-71516175D01*
X58828027Y-71549986D01*
X58849409Y-71607313D01*
X58849500Y-71611553D01*
X58849500Y-71734521D01*
X58830593Y-71792712D01*
X58820504Y-71804523D01*
X58707635Y-71917392D01*
X58653120Y-71945169D01*
X58607042Y-71941543D01*
X58600305Y-71939354D01*
X58506522Y-71924500D01*
X57893479Y-71924500D01*
X57893476Y-71924501D01*
X57799700Y-71939352D01*
X57799695Y-71939354D01*
X57686659Y-71996949D01*
X57596949Y-72086659D01*
X57539354Y-72199695D01*
X57524500Y-72293477D01*
X57524500Y-72756520D01*
X57524501Y-72756523D01*
X57539352Y-72850299D01*
X57539354Y-72850304D01*
X57596950Y-72963342D01*
X57686658Y-73053050D01*
X57799696Y-73110646D01*
X57893481Y-73125500D01*
X58506518Y-73125499D01*
X58506520Y-73125499D01*
X58506521Y-73125498D01*
X58564060Y-73116386D01*
X58600299Y-73110647D01*
X58600299Y-73110646D01*
X58600304Y-73110646D01*
X58713342Y-73053050D01*
X58803050Y-72963342D01*
X58860646Y-72850304D01*
X58875500Y-72756519D01*
X58875499Y-72640478D01*
X58894406Y-72582288D01*
X58904483Y-72570487D01*
X59055499Y-72419471D01*
X59110013Y-72391696D01*
X59170445Y-72401267D01*
X59213710Y-72444532D01*
X59224500Y-72489477D01*
X59224500Y-72756520D01*
X59224501Y-72756523D01*
X59239352Y-72850299D01*
X59239354Y-72850304D01*
X59296950Y-72963342D01*
X59386658Y-73053050D01*
X59499696Y-73110646D01*
X59593481Y-73125500D01*
X60200910Y-73125499D01*
X60259101Y-73144406D01*
X60295065Y-73193906D01*
X60298166Y-73227619D01*
X60299500Y-73227619D01*
X60299500Y-73234108D01*
X60299500Y-73365892D01*
X60309370Y-73402727D01*
X60333609Y-73493190D01*
X60399496Y-73607309D01*
X60399498Y-73607311D01*
X60399500Y-73607314D01*
X60445505Y-73653319D01*
X60473281Y-73707834D01*
X60474500Y-73723321D01*
X60474500Y-74624165D01*
X60455593Y-74682356D01*
X60445504Y-74694169D01*
X60344169Y-74795504D01*
X60289652Y-74823281D01*
X60274165Y-74824500D01*
X59866510Y-74824500D01*
X59766874Y-74840281D01*
X59766867Y-74840283D01*
X59646782Y-74901470D01*
X59551470Y-74996782D01*
X59490283Y-75116867D01*
X59490281Y-75116874D01*
X59474500Y-75216510D01*
X59474500Y-75783489D01*
X59490281Y-75883125D01*
X59490283Y-75883132D01*
X59538149Y-75977073D01*
X59551472Y-76003220D01*
X59646780Y-76098528D01*
X59646782Y-76098529D01*
X59766867Y-76159716D01*
X59766869Y-76159716D01*
X59766874Y-76159719D01*
X59842541Y-76171703D01*
X59866510Y-76175500D01*
X60375500Y-76175500D01*
X60433691Y-76194407D01*
X60469655Y-76243907D01*
X60474500Y-76274500D01*
X60474500Y-78050500D01*
X60455593Y-78108691D01*
X60406093Y-78144655D01*
X60375500Y-78149500D01*
X60070725Y-78149500D01*
X60040305Y-78152353D01*
X60040296Y-78152355D01*
X59912116Y-78197207D01*
X59802855Y-78277845D01*
X59802845Y-78277855D01*
X59722207Y-78387116D01*
X59677355Y-78515296D01*
X59677353Y-78515305D01*
X59674500Y-78545725D01*
X59674500Y-79154274D01*
X59677353Y-79184694D01*
X59677355Y-79184703D01*
X59722207Y-79312883D01*
X59802845Y-79422144D01*
X59802847Y-79422146D01*
X59802850Y-79422150D01*
X59802853Y-79422152D01*
X59802855Y-79422154D01*
X59912116Y-79502792D01*
X59912117Y-79502792D01*
X59912118Y-79502793D01*
X60040301Y-79547646D01*
X60070725Y-79550499D01*
X60070727Y-79550500D01*
X60070734Y-79550500D01*
X61129273Y-79550500D01*
X61129273Y-79550499D01*
X61159699Y-79547646D01*
X61287882Y-79502793D01*
X61397150Y-79422150D01*
X61477793Y-79312882D01*
X61489060Y-79280680D01*
X61526124Y-79232002D01*
X61584725Y-79214405D01*
X61642477Y-79234613D01*
X61675948Y-79280682D01*
X61722207Y-79412883D01*
X61802845Y-79522144D01*
X61802847Y-79522146D01*
X61802850Y-79522150D01*
X61802853Y-79522152D01*
X61802855Y-79522154D01*
X61912116Y-79602792D01*
X61912117Y-79602792D01*
X61912118Y-79602793D01*
X62040301Y-79647646D01*
X62070725Y-79650499D01*
X62070727Y-79650500D01*
X62070734Y-79650500D01*
X63129273Y-79650500D01*
X63129273Y-79650499D01*
X63159699Y-79647646D01*
X63287882Y-79602793D01*
X63397150Y-79522150D01*
X63477793Y-79412882D01*
X63522646Y-79284699D01*
X63525499Y-79254273D01*
X63525500Y-79254273D01*
X63525500Y-78645727D01*
X63525499Y-78645725D01*
X63522646Y-78615305D01*
X63522646Y-78615301D01*
X63477793Y-78487118D01*
X63397150Y-78377850D01*
X63397146Y-78377847D01*
X63397144Y-78377845D01*
X63287883Y-78297207D01*
X63159703Y-78252355D01*
X63159694Y-78252353D01*
X63129274Y-78249500D01*
X63129266Y-78249500D01*
X62070734Y-78249500D01*
X62070725Y-78249500D01*
X62040305Y-78252353D01*
X62040296Y-78252355D01*
X61912116Y-78297207D01*
X61802849Y-78377850D01*
X61802847Y-78377852D01*
X61761196Y-78434288D01*
X61711429Y-78469881D01*
X61681541Y-78474500D01*
X61578613Y-78474500D01*
X61520422Y-78455593D01*
X61485169Y-78408199D01*
X61477793Y-78387118D01*
X61477791Y-78387116D01*
X61477791Y-78387114D01*
X61397154Y-78277855D01*
X61397152Y-78277853D01*
X61397150Y-78277850D01*
X61397146Y-78277847D01*
X61397144Y-78277845D01*
X61287883Y-78197207D01*
X61191802Y-78163586D01*
X61143121Y-78126520D01*
X61125500Y-78070142D01*
X61125500Y-77250001D01*
X61575000Y-77250001D01*
X61575000Y-77343064D01*
X61585613Y-77431443D01*
X61641080Y-77572095D01*
X61732435Y-77692564D01*
X61852904Y-77783919D01*
X61993556Y-77839386D01*
X62081935Y-77849999D01*
X62081942Y-77850000D01*
X62399999Y-77850000D01*
X62400000Y-77849999D01*
X62400000Y-77250001D01*
X62800000Y-77250001D01*
X62800000Y-77849999D01*
X62800001Y-77850000D01*
X63118058Y-77850000D01*
X63118064Y-77849999D01*
X63206443Y-77839386D01*
X63347095Y-77783919D01*
X63467564Y-77692564D01*
X63558919Y-77572095D01*
X63614386Y-77431443D01*
X63624999Y-77343064D01*
X63625000Y-77343058D01*
X63625000Y-77250001D01*
X63624999Y-77250000D01*
X62800001Y-77250000D01*
X62800000Y-77250001D01*
X62400000Y-77250001D01*
X62399999Y-77250000D01*
X61575001Y-77250000D01*
X61575000Y-77250001D01*
X61125500Y-77250001D01*
X61125500Y-76756935D01*
X61575000Y-76756935D01*
X61575000Y-76849999D01*
X61575001Y-76850000D01*
X62399999Y-76850000D01*
X62400000Y-76849999D01*
X62400000Y-76271094D01*
X62356367Y-76250001D01*
X62800000Y-76250001D01*
X62800000Y-76849999D01*
X62800001Y-76850000D01*
X63624999Y-76850000D01*
X63625000Y-76849999D01*
X63625000Y-76756941D01*
X63624999Y-76756935D01*
X63614386Y-76668556D01*
X63558919Y-76527904D01*
X63467564Y-76407435D01*
X63347095Y-76316080D01*
X63206443Y-76260613D01*
X63118064Y-76250000D01*
X62800001Y-76250000D01*
X62800000Y-76250001D01*
X62356367Y-76250001D01*
X62335950Y-76240131D01*
X62329434Y-76233882D01*
X62320848Y-76231093D01*
X62307804Y-76213140D01*
X62291789Y-76197782D01*
X62290190Y-76188896D01*
X62284884Y-76181593D01*
X62284884Y-76159401D01*
X62280955Y-76137563D01*
X62284884Y-76129435D01*
X62284884Y-76120407D01*
X62300155Y-76091180D01*
X62361922Y-76009727D01*
X62414867Y-75875468D01*
X62424999Y-75791104D01*
X62425000Y-75791100D01*
X62425000Y-75700001D01*
X62424999Y-75700000D01*
X61875001Y-75700000D01*
X61875000Y-75700001D01*
X61875000Y-76281000D01*
X61856093Y-76339191D01*
X61806593Y-76375155D01*
X61776000Y-76380000D01*
X61768612Y-76380000D01*
X61732438Y-76407432D01*
X61732435Y-76407435D01*
X61641080Y-76527904D01*
X61585613Y-76668556D01*
X61575000Y-76756935D01*
X61125500Y-76756935D01*
X61125500Y-76331840D01*
X61144407Y-76273649D01*
X61193907Y-76237685D01*
X61255093Y-76237685D01*
X61260820Y-76239743D01*
X61324529Y-76264867D01*
X61408895Y-76274999D01*
X61408900Y-76275000D01*
X61474999Y-76275000D01*
X61475000Y-76274999D01*
X61475000Y-74725001D01*
X61875000Y-74725001D01*
X61875000Y-75299999D01*
X61875001Y-75300000D01*
X62424999Y-75300000D01*
X62425000Y-75299999D01*
X62425000Y-75208899D01*
X62424999Y-75208895D01*
X62414867Y-75124531D01*
X62361922Y-74990270D01*
X62274723Y-74875282D01*
X62274717Y-74875276D01*
X62159729Y-74788077D01*
X62025468Y-74735132D01*
X61941104Y-74725000D01*
X61875001Y-74725000D01*
X61875000Y-74725001D01*
X61475000Y-74725001D01*
X61474999Y-74725000D01*
X61408895Y-74725000D01*
X61324531Y-74735132D01*
X61260819Y-74760257D01*
X61199749Y-74764015D01*
X61148133Y-74731160D01*
X61125687Y-74674240D01*
X61125500Y-74668159D01*
X61125500Y-73723321D01*
X61144407Y-73665130D01*
X61154490Y-73653323D01*
X61200500Y-73607314D01*
X61200503Y-73607309D01*
X61266390Y-73493190D01*
X61266390Y-73493188D01*
X61266392Y-73493186D01*
X61300500Y-73365892D01*
X61300500Y-73234108D01*
X61266392Y-73106814D01*
X61266390Y-73106811D01*
X61266390Y-73106809D01*
X61200503Y-72992690D01*
X61200501Y-72992688D01*
X61200500Y-72992686D01*
X61107314Y-72899500D01*
X61107311Y-72899498D01*
X61107309Y-72899496D01*
X60993189Y-72833609D01*
X60993191Y-72833609D01*
X60942053Y-72819907D01*
X60865892Y-72799500D01*
X60764478Y-72799500D01*
X60706287Y-72780593D01*
X60670323Y-72731093D01*
X60670323Y-72669907D01*
X60694472Y-72630498D01*
X60990460Y-72334511D01*
X61030022Y-72265988D01*
X61050500Y-72189562D01*
X61050500Y-72110438D01*
X61050500Y-70842255D01*
X61069407Y-70784064D01*
X61079490Y-70772257D01*
X61090485Y-70761263D01*
X61138644Y-70677850D01*
X61146501Y-70664241D01*
X61146501Y-70664239D01*
X61146503Y-70664237D01*
X61175500Y-70556018D01*
X61175500Y-70443982D01*
X61146503Y-70335763D01*
X61146501Y-70335760D01*
X61146501Y-70335758D01*
X61090486Y-70238739D01*
X61090485Y-70238737D01*
X61011263Y-70159515D01*
X60976399Y-70139386D01*
X60914240Y-70103498D01*
X60914242Y-70103498D01*
X60872251Y-70092247D01*
X60806018Y-70074500D01*
X60693982Y-70074500D01*
X60627748Y-70092247D01*
X60585758Y-70103498D01*
X60488737Y-70159514D01*
X60461723Y-70186528D01*
X60407206Y-70214304D01*
X60357125Y-70209281D01*
X60282381Y-70181403D01*
X60282370Y-70181401D01*
X60222824Y-70175000D01*
X60100001Y-70175000D01*
X60100000Y-70175001D01*
X60100000Y-71574999D01*
X60100001Y-71575000D01*
X60222824Y-71575000D01*
X60282370Y-71568598D01*
X60282374Y-71568597D01*
X60315902Y-71556092D01*
X60377031Y-71553471D01*
X60428026Y-71587281D01*
X60449409Y-71644609D01*
X60449500Y-71648850D01*
X60449500Y-71853819D01*
X60430593Y-71912010D01*
X60381093Y-71947974D01*
X60319907Y-71947974D01*
X60305559Y-71942031D01*
X60300304Y-71939354D01*
X60300305Y-71939354D01*
X60206522Y-71924500D01*
X59593483Y-71924500D01*
X59564985Y-71929014D01*
X59504553Y-71919441D01*
X59461289Y-71876175D01*
X59450500Y-71831232D01*
X59450500Y-71671595D01*
X59469407Y-71613404D01*
X59518907Y-71577440D01*
X59560084Y-71573162D01*
X59577178Y-71575000D01*
X59699999Y-71575000D01*
X59700000Y-71574999D01*
X59700000Y-71075001D01*
X59699999Y-71075000D01*
X59549500Y-71075000D01*
X59491309Y-71056093D01*
X59455345Y-71006593D01*
X59450500Y-70976000D01*
X59450500Y-70774000D01*
X59469407Y-70715809D01*
X59518907Y-70679845D01*
X59549500Y-70675000D01*
X59699999Y-70675000D01*
X59700000Y-70674999D01*
X59700000Y-70175001D01*
X59699999Y-70175000D01*
X59577168Y-70175000D01*
X59560079Y-70176837D01*
X59500201Y-70164256D01*
X59459154Y-70118883D01*
X59450500Y-70078404D01*
X59450500Y-66849500D01*
X59469407Y-66791309D01*
X59518907Y-66755345D01*
X59549500Y-66750500D01*
X61717853Y-66750500D01*
X61776044Y-66769407D01*
X61812008Y-66818907D01*
X61812008Y-66880093D01*
X61803589Y-66899000D01*
X61753498Y-66985759D01*
X61753497Y-66985762D01*
X61747088Y-67009679D01*
X61713763Y-67060993D01*
X61656641Y-67082918D01*
X61625840Y-67079681D01*
X61601279Y-67073100D01*
X61569183Y-67064500D01*
X61430817Y-67064500D01*
X61297164Y-67100312D01*
X61177335Y-67169495D01*
X61079495Y-67267335D01*
X61010312Y-67387164D01*
X60974500Y-67520817D01*
X60974500Y-67659183D01*
X61010312Y-67792836D01*
X61079495Y-67912665D01*
X61177335Y-68010505D01*
X61276782Y-68067920D01*
X61317721Y-68113388D01*
X61324117Y-68174238D01*
X61293524Y-68227226D01*
X61251060Y-68248519D01*
X61251307Y-68249330D01*
X61246651Y-68250742D01*
X61101059Y-68311048D01*
X61101050Y-68311052D01*
X60970030Y-68398599D01*
X60970026Y-68398602D01*
X60858602Y-68510026D01*
X60858599Y-68510030D01*
X60771052Y-68641050D01*
X60771048Y-68641059D01*
X60710742Y-68786650D01*
X60704108Y-68820000D01*
X61255735Y-68820000D01*
X61239940Y-68835795D01*
X61200444Y-68904204D01*
X61180000Y-68980504D01*
X61180000Y-69059496D01*
X61200444Y-69135796D01*
X61239940Y-69204205D01*
X61255735Y-69220000D01*
X60704109Y-69220000D01*
X60710742Y-69253349D01*
X60771048Y-69398940D01*
X60771052Y-69398949D01*
X60858599Y-69529969D01*
X60858602Y-69529973D01*
X60970026Y-69641397D01*
X60970030Y-69641400D01*
X61101050Y-69728947D01*
X61101059Y-69728951D01*
X61246650Y-69789257D01*
X61401204Y-69819999D01*
X61401208Y-69820000D01*
X61829999Y-69820000D01*
X61830000Y-69819999D01*
X61830000Y-69320000D01*
X62230000Y-69320000D01*
X62230000Y-69819999D01*
X62230001Y-69820000D01*
X62658792Y-69820000D01*
X62658795Y-69819999D01*
X62813349Y-69789257D01*
X62958940Y-69728951D01*
X62958949Y-69728947D01*
X63089969Y-69641400D01*
X63089973Y-69641397D01*
X63201397Y-69529973D01*
X63201400Y-69529969D01*
X63288947Y-69398949D01*
X63288951Y-69398940D01*
X63349257Y-69253349D01*
X63355891Y-69220000D01*
X62804265Y-69220000D01*
X62820060Y-69204205D01*
X62859556Y-69135796D01*
X62880000Y-69059496D01*
X62880000Y-68980504D01*
X62859556Y-68904204D01*
X62820060Y-68835795D01*
X62804265Y-68820000D01*
X63355891Y-68820000D01*
X63349257Y-68786650D01*
X63288951Y-68641059D01*
X63288947Y-68641050D01*
X63201400Y-68510030D01*
X63201397Y-68510026D01*
X63089973Y-68398602D01*
X63089969Y-68398599D01*
X62958949Y-68311052D01*
X62958940Y-68311048D01*
X62813349Y-68250742D01*
X62658795Y-68220000D01*
X62230001Y-68220000D01*
X62230000Y-68220001D01*
X62230000Y-68720000D01*
X61830000Y-68720000D01*
X61830000Y-68235942D01*
X61779511Y-68206580D01*
X61776040Y-68202701D01*
X61771090Y-68201093D01*
X61755918Y-68180210D01*
X61738713Y-68160981D01*
X61738185Y-68155803D01*
X61735126Y-68151593D01*
X61735126Y-68125781D01*
X61732510Y-68100111D01*
X61735126Y-68095612D01*
X61735126Y-68090407D01*
X61750296Y-68069527D01*
X61763269Y-68047220D01*
X61768030Y-68045118D01*
X61771090Y-68040907D01*
X61779767Y-68035271D01*
X61822665Y-68010505D01*
X61920505Y-67912665D01*
X61989688Y-67792836D01*
X62025500Y-67659183D01*
X62025500Y-67659181D01*
X62027179Y-67652915D01*
X62029072Y-67653422D01*
X62051532Y-67606346D01*
X62105306Y-67577156D01*
X62123338Y-67575500D01*
X62206016Y-67575500D01*
X62206018Y-67575500D01*
X62314237Y-67546503D01*
X62314239Y-67546501D01*
X62314241Y-67546501D01*
X62343064Y-67529859D01*
X62411263Y-67490485D01*
X62490485Y-67411263D01*
X62546503Y-67314237D01*
X62575500Y-67206018D01*
X62575500Y-67206014D01*
X62576390Y-67202693D01*
X62602011Y-67158314D01*
X62899860Y-66860465D01*
X62899862Y-66860464D01*
X62960465Y-66799861D01*
X62987233Y-66753497D01*
X63003318Y-66725638D01*
X63025500Y-66642852D01*
X63025500Y-66557146D01*
X63025500Y-62757147D01*
X63003318Y-62674362D01*
X62960465Y-62600138D01*
X62943452Y-62583125D01*
X62899862Y-62539534D01*
X62899862Y-62539535D01*
X62602012Y-62241685D01*
X62576389Y-62197303D01*
X62575500Y-62193985D01*
X62575500Y-62193982D01*
X62546503Y-62085763D01*
X62529618Y-62056518D01*
X62490486Y-61988739D01*
X62490485Y-61988737D01*
X62411263Y-61909515D01*
X62411260Y-61909513D01*
X62314240Y-61853498D01*
X62314242Y-61853498D01*
X62272251Y-61842247D01*
X62206018Y-61824500D01*
X62123338Y-61824500D01*
X62065147Y-61805593D01*
X62029183Y-61756093D01*
X62026956Y-61746255D01*
X62025500Y-61740821D01*
X62025500Y-61740817D01*
X61989688Y-61607164D01*
X61920505Y-61487335D01*
X61822665Y-61389495D01*
X61779779Y-61364734D01*
X61738840Y-61319267D01*
X61732444Y-61258417D01*
X61763037Y-61205429D01*
X61818932Y-61180542D01*
X61829281Y-61180000D01*
X61829999Y-61180000D01*
X61830000Y-61179999D01*
X61830000Y-60680000D01*
X62230000Y-60680000D01*
X62230000Y-61179999D01*
X62230001Y-61180000D01*
X62658792Y-61180000D01*
X62658795Y-61179999D01*
X62813349Y-61149257D01*
X62958940Y-61088951D01*
X62958949Y-61088947D01*
X63089969Y-61001400D01*
X63089973Y-61001397D01*
X63201397Y-60889973D01*
X63201400Y-60889969D01*
X63288947Y-60758949D01*
X63288951Y-60758940D01*
X63349257Y-60613349D01*
X63355891Y-60580000D01*
X62804265Y-60580000D01*
X62820060Y-60564205D01*
X62859556Y-60495796D01*
X62880000Y-60419496D01*
X62880000Y-60340504D01*
X62859556Y-60264204D01*
X62820060Y-60195795D01*
X62804265Y-60180000D01*
X63355891Y-60180000D01*
X63349257Y-60146650D01*
X63288951Y-60001059D01*
X63288947Y-60001050D01*
X63201400Y-59870030D01*
X63201397Y-59870026D01*
X63089973Y-59758602D01*
X63089969Y-59758599D01*
X62958949Y-59671052D01*
X62958940Y-59671048D01*
X62813349Y-59610742D01*
X62658795Y-59580000D01*
X62230001Y-59580000D01*
X62230000Y-59580001D01*
X62230000Y-60080000D01*
X61830000Y-60080000D01*
X61830000Y-59580001D01*
X61829999Y-59580000D01*
X61401204Y-59580000D01*
X61246650Y-59610742D01*
X61101059Y-59671048D01*
X61101050Y-59671052D01*
X60970030Y-59758599D01*
X60970026Y-59758602D01*
X60858602Y-59870026D01*
X60858599Y-59870030D01*
X60771052Y-60001050D01*
X60771048Y-60001059D01*
X60710742Y-60146650D01*
X60704108Y-60180000D01*
X61255735Y-60180000D01*
X61239940Y-60195795D01*
X61200444Y-60264204D01*
X61180000Y-60340504D01*
X61180000Y-60419496D01*
X61200444Y-60495796D01*
X61239940Y-60564205D01*
X61255735Y-60580000D01*
X60704109Y-60580000D01*
X60710742Y-60613349D01*
X60771048Y-60758940D01*
X60771052Y-60758949D01*
X60858599Y-60889969D01*
X60858602Y-60889973D01*
X60970026Y-61001397D01*
X60970030Y-61001400D01*
X61101050Y-61088947D01*
X61101059Y-61088951D01*
X61246651Y-61149257D01*
X61251307Y-61150670D01*
X61250991Y-61151708D01*
X61299980Y-61179145D01*
X61325594Y-61234710D01*
X61313656Y-61294720D01*
X61276780Y-61332080D01*
X61177337Y-61389493D01*
X61177335Y-61389495D01*
X61079495Y-61487335D01*
X61010312Y-61607164D01*
X60974500Y-61740817D01*
X60974500Y-61879183D01*
X61010312Y-62012836D01*
X61079495Y-62132665D01*
X61177335Y-62230505D01*
X61193373Y-62239764D01*
X61234313Y-62285233D01*
X61240709Y-62346083D01*
X61210116Y-62399071D01*
X61154221Y-62423958D01*
X61143872Y-62424500D01*
X55313744Y-62424500D01*
X55264244Y-62411236D01*
X55164240Y-62353498D01*
X55164242Y-62353498D01*
X55122251Y-62342247D01*
X55056018Y-62324500D01*
X54943982Y-62324500D01*
X54877748Y-62342247D01*
X54835758Y-62353498D01*
X54738739Y-62409513D01*
X54659513Y-62488739D01*
X54603498Y-62585758D01*
X54592983Y-62625001D01*
X54574500Y-62693982D01*
X54574500Y-62806018D01*
X54595874Y-62885788D01*
X54603498Y-62914241D01*
X54659054Y-63010465D01*
X54659515Y-63011263D01*
X54738737Y-63090485D01*
X54738739Y-63090486D01*
X54835759Y-63146501D01*
X54835757Y-63146501D01*
X54835761Y-63146502D01*
X54835763Y-63146503D01*
X54943982Y-63175500D01*
X54943984Y-63175500D01*
X55056016Y-63175500D01*
X55056018Y-63175500D01*
X55164237Y-63146503D01*
X55164239Y-63146501D01*
X55164241Y-63146501D01*
X55264244Y-63088764D01*
X55313744Y-63075500D01*
X61992851Y-63075500D01*
X61992853Y-63075500D01*
X62075638Y-63053318D01*
X62149862Y-63010465D01*
X62205498Y-62954828D01*
X62260013Y-62927053D01*
X62320445Y-62936624D01*
X62363710Y-62979889D01*
X62374500Y-63024834D01*
X62374500Y-63440625D01*
X62355593Y-63498816D01*
X62306093Y-63534780D01*
X62249878Y-63536252D01*
X62232664Y-63531639D01*
X62206018Y-63524500D01*
X62093982Y-63524500D01*
X62050123Y-63536252D01*
X61985758Y-63553498D01*
X61888739Y-63609513D01*
X61809513Y-63688739D01*
X61753498Y-63785758D01*
X61737917Y-63843907D01*
X61731129Y-63869244D01*
X61724500Y-63893983D01*
X61724500Y-63927228D01*
X61705593Y-63985419D01*
X61656093Y-64021383D01*
X61612822Y-64022520D01*
X61612450Y-64025347D01*
X61606018Y-64024500D01*
X61606017Y-64024500D01*
X61586949Y-64024500D01*
X61537449Y-64011237D01*
X61534512Y-64009541D01*
X61534511Y-64009540D01*
X61511308Y-63996144D01*
X61511307Y-63996143D01*
X61511306Y-63996143D01*
X61482575Y-63979555D01*
X61465988Y-63969978D01*
X61389564Y-63949500D01*
X61389562Y-63949500D01*
X51395456Y-63949500D01*
X51337265Y-63930593D01*
X51301301Y-63881093D01*
X51301301Y-63819907D01*
X51337265Y-63770407D01*
X51369830Y-63754873D01*
X51375638Y-63753318D01*
X51449862Y-63710465D01*
X51510465Y-63649862D01*
X51553318Y-63575638D01*
X51575500Y-63492853D01*
X51575500Y-62524499D01*
X51594407Y-62466308D01*
X51643907Y-62430344D01*
X51674500Y-62425499D01*
X51806521Y-62425499D01*
X51806522Y-62425498D01*
X51853411Y-62418072D01*
X51900299Y-62410647D01*
X51900299Y-62410646D01*
X51900304Y-62410646D01*
X52013342Y-62353050D01*
X52103050Y-62263342D01*
X52160646Y-62150304D01*
X52175500Y-62056519D01*
X52175499Y-61443482D01*
X52160646Y-61349699D01*
X52160646Y-61349698D01*
X52160646Y-61349696D01*
X52103050Y-61236658D01*
X52013342Y-61146950D01*
X51900304Y-61089354D01*
X51900305Y-61089354D01*
X51806522Y-61074500D01*
X51343479Y-61074500D01*
X51343476Y-61074501D01*
X51249700Y-61089352D01*
X51249694Y-61089354D01*
X51208720Y-61110231D01*
X51148287Y-61119802D01*
X51093771Y-61092023D01*
X51093770Y-61092022D01*
X51079494Y-61077745D01*
X51051718Y-61023228D01*
X51050500Y-61007744D01*
X51050500Y-59794390D01*
X51069407Y-59736199D01*
X51118907Y-59700235D01*
X51163773Y-59696425D01*
X51191740Y-59700500D01*
X51191741Y-59700500D01*
X52433257Y-59700500D01*
X52433260Y-59700500D01*
X52501393Y-59690573D01*
X52606483Y-59639198D01*
X52606483Y-59639197D01*
X52613853Y-59635595D01*
X52615519Y-59639003D01*
X52657383Y-59625500D01*
X52739812Y-59625500D01*
X52798003Y-59644407D01*
X52833967Y-59693907D01*
X52833967Y-59755093D01*
X52814833Y-59786315D01*
X52815569Y-59786841D01*
X52810801Y-59793518D01*
X52759427Y-59898604D01*
X52754540Y-59932147D01*
X52749500Y-59966740D01*
X52749500Y-60333260D01*
X52756118Y-60378682D01*
X52759427Y-60401395D01*
X52805577Y-60495796D01*
X52810802Y-60506483D01*
X52893517Y-60589198D01*
X52942919Y-60613349D01*
X52998604Y-60640572D01*
X52998605Y-60640572D01*
X52998607Y-60640573D01*
X53066740Y-60650500D01*
X53244030Y-60650500D01*
X53302221Y-60669407D01*
X53338185Y-60718907D01*
X53338185Y-60780093D01*
X53315447Y-60818061D01*
X53168198Y-60971444D01*
X53166787Y-60972884D01*
X53139534Y-61000137D01*
X53138402Y-61001614D01*
X53138135Y-61001924D01*
X53138080Y-61002000D01*
X53136903Y-61003567D01*
X53136832Y-61003659D01*
X53136608Y-61004002D01*
X53135510Y-61005495D01*
X53125740Y-61023243D01*
X53081114Y-61065102D01*
X53039015Y-61074500D01*
X52993479Y-61074500D01*
X52993476Y-61074501D01*
X52899700Y-61089352D01*
X52899695Y-61089354D01*
X52786659Y-61146949D01*
X52696949Y-61236659D01*
X52639354Y-61349695D01*
X52624500Y-61443477D01*
X52624500Y-62056520D01*
X52624501Y-62056523D01*
X52639352Y-62150299D01*
X52639354Y-62150304D01*
X52696950Y-62263342D01*
X52786658Y-62353050D01*
X52899696Y-62410646D01*
X52993481Y-62425500D01*
X53456518Y-62425499D01*
X53456520Y-62425499D01*
X53456521Y-62425498D01*
X53503411Y-62418072D01*
X53550299Y-62410647D01*
X53550299Y-62410646D01*
X53550304Y-62410646D01*
X53663342Y-62353050D01*
X53753050Y-62263342D01*
X53810646Y-62150304D01*
X53825500Y-62056519D01*
X53825499Y-61443482D01*
X53810647Y-61349700D01*
X53810647Y-61349699D01*
X53810646Y-61349697D01*
X53810646Y-61349696D01*
X53806843Y-61342233D01*
X53797270Y-61281804D01*
X53823633Y-61228729D01*
X53919849Y-61128503D01*
X53921168Y-61127158D01*
X53948465Y-61099862D01*
X53948466Y-61099859D01*
X53949572Y-61098419D01*
X53949827Y-61098122D01*
X53949865Y-61098071D01*
X53951084Y-61096448D01*
X53951188Y-61096311D01*
X53951428Y-61095945D01*
X53952478Y-61094515D01*
X53952488Y-61094506D01*
X53971088Y-61060714D01*
X53972019Y-61059062D01*
X53991318Y-61025638D01*
X53991321Y-61025623D01*
X53992015Y-61023953D01*
X53992192Y-61023583D01*
X53992232Y-61023483D01*
X53992998Y-61021580D01*
X53993029Y-61021505D01*
X53993152Y-61021130D01*
X53993817Y-61019426D01*
X53993817Y-61019425D01*
X53993818Y-61019424D01*
X54003035Y-60981982D01*
X54003534Y-60980042D01*
X54005453Y-60972884D01*
X54013500Y-60942853D01*
X54013500Y-60942848D01*
X54013738Y-60941041D01*
X54013814Y-60940635D01*
X54013827Y-60940524D01*
X54014072Y-60938506D01*
X54014081Y-60938432D01*
X54014104Y-60938029D01*
X54014305Y-60936207D01*
X54014307Y-60936203D01*
X54013520Y-60897693D01*
X54013500Y-60895673D01*
X54013500Y-60749500D01*
X54032407Y-60691309D01*
X54081907Y-60655345D01*
X54112500Y-60650500D01*
X54308257Y-60650500D01*
X54308260Y-60650500D01*
X54376393Y-60640573D01*
X54481483Y-60589198D01*
X54564198Y-60506483D01*
X54615573Y-60401393D01*
X54625500Y-60333260D01*
X54625500Y-59966740D01*
X54615573Y-59898607D01*
X54564198Y-59793517D01*
X54564195Y-59793514D01*
X54559431Y-59786841D01*
X54560786Y-59785873D01*
X54537407Y-59739987D01*
X54546978Y-59679555D01*
X54590243Y-59636290D01*
X54635188Y-59625500D01*
X56934121Y-59625500D01*
X56992312Y-59644407D01*
X57028276Y-59693907D01*
X57028276Y-59755093D01*
X57004125Y-59794504D01*
X56928602Y-59870026D01*
X56928599Y-59870030D01*
X56841052Y-60001050D01*
X56841048Y-60001059D01*
X56780742Y-60146650D01*
X56774108Y-60180000D01*
X57325735Y-60180000D01*
X57309940Y-60195795D01*
X57270444Y-60264204D01*
X57250000Y-60340504D01*
X57250000Y-60419496D01*
X57270444Y-60495796D01*
X57309940Y-60564205D01*
X57325735Y-60580000D01*
X56774109Y-60580000D01*
X56780742Y-60613349D01*
X56841048Y-60758940D01*
X56841052Y-60758949D01*
X56928599Y-60889969D01*
X56928602Y-60889973D01*
X57040026Y-61001397D01*
X57040030Y-61001400D01*
X57171050Y-61088947D01*
X57171059Y-61088951D01*
X57316650Y-61149257D01*
X57471204Y-61179999D01*
X57471208Y-61180000D01*
X57649999Y-61180000D01*
X57650000Y-61179999D01*
X57650000Y-60680000D01*
X58050000Y-60680000D01*
X58050000Y-61179999D01*
X58050001Y-61180000D01*
X58228792Y-61180000D01*
X58228795Y-61179999D01*
X58383349Y-61149257D01*
X58528940Y-61088951D01*
X58528949Y-61088947D01*
X58659969Y-61001400D01*
X58659973Y-61001397D01*
X58771397Y-60889973D01*
X58771400Y-60889969D01*
X58858947Y-60758949D01*
X58858951Y-60758940D01*
X58919257Y-60613349D01*
X58925891Y-60580000D01*
X58374265Y-60580000D01*
X58390060Y-60564205D01*
X58429556Y-60495796D01*
X58450000Y-60419496D01*
X58450000Y-60340504D01*
X58429556Y-60264204D01*
X58390060Y-60195795D01*
X58374265Y-60180000D01*
X58925891Y-60180000D01*
X58919257Y-60146650D01*
X58858951Y-60001059D01*
X58858947Y-60001050D01*
X58771400Y-59870030D01*
X58771397Y-59870026D01*
X58659973Y-59758602D01*
X58659969Y-59758599D01*
X58528949Y-59671052D01*
X58528940Y-59671048D01*
X58383349Y-59610742D01*
X58228795Y-59580000D01*
X58035670Y-59580000D01*
X57977479Y-59561093D01*
X57941515Y-59511593D01*
X57941515Y-59450407D01*
X57949933Y-59431501D01*
X57953317Y-59425639D01*
X57953318Y-59425638D01*
X57975500Y-59342853D01*
X57975500Y-57573321D01*
X57994407Y-57515130D01*
X58004490Y-57503323D01*
X58050500Y-57457314D01*
X58083590Y-57400001D01*
X58116390Y-57343190D01*
X58116390Y-57343188D01*
X58116392Y-57343186D01*
X58150500Y-57215892D01*
X58150500Y-57084108D01*
X58116392Y-56956814D01*
X58116390Y-56956811D01*
X58116390Y-56956809D01*
X58050503Y-56842690D01*
X58050499Y-56842684D01*
X58004496Y-56796681D01*
X57976719Y-56742164D01*
X57975500Y-56726678D01*
X57975500Y-56282148D01*
X57975500Y-56282147D01*
X57953318Y-56199362D01*
X57910465Y-56125138D01*
X57849862Y-56064535D01*
X57775638Y-56021682D01*
X57692853Y-55999500D01*
X57692851Y-55999500D01*
X57221213Y-55999500D01*
X57163022Y-55980593D01*
X57133004Y-55945445D01*
X57103051Y-55886660D01*
X57103050Y-55886658D01*
X57013342Y-55796950D01*
X56900304Y-55739354D01*
X56900305Y-55739354D01*
X56806522Y-55724500D01*
X56193479Y-55724500D01*
X56193476Y-55724501D01*
X56099700Y-55739352D01*
X56099695Y-55739354D01*
X55986659Y-55796949D01*
X55896949Y-55886659D01*
X55839354Y-55999695D01*
X55824500Y-56093477D01*
X55824500Y-56556520D01*
X55824501Y-56556523D01*
X55839352Y-56650299D01*
X55839354Y-56650304D01*
X55896950Y-56763342D01*
X55986658Y-56853050D01*
X56099696Y-56910646D01*
X56193481Y-56925500D01*
X56806518Y-56925499D01*
X56806520Y-56925499D01*
X56806521Y-56925498D01*
X56853411Y-56918072D01*
X56900299Y-56910647D01*
X56900299Y-56910646D01*
X56900304Y-56910646D01*
X57013342Y-56853050D01*
X57026209Y-56840182D01*
X57080722Y-56812405D01*
X57141155Y-56821975D01*
X57184420Y-56865239D01*
X57193994Y-56925670D01*
X57185221Y-56950455D01*
X57186092Y-56950816D01*
X57183609Y-56956808D01*
X57169432Y-57009719D01*
X57149500Y-57084108D01*
X57149500Y-57215892D01*
X57173314Y-57304767D01*
X57183609Y-57343190D01*
X57249496Y-57457309D01*
X57249498Y-57457311D01*
X57249500Y-57457314D01*
X57295505Y-57503319D01*
X57323281Y-57557834D01*
X57324500Y-57573321D01*
X57324500Y-58875500D01*
X57305593Y-58933691D01*
X57256093Y-58969655D01*
X57225500Y-58974500D01*
X52815030Y-58974500D01*
X52756839Y-58955593D01*
X52726089Y-58918980D01*
X52689198Y-58843518D01*
X52689198Y-58843517D01*
X52606483Y-58760802D01*
X52574499Y-58745166D01*
X52501395Y-58709427D01*
X52474139Y-58705456D01*
X52433260Y-58699500D01*
X51191740Y-58699500D01*
X51163772Y-58703574D01*
X51103464Y-58693254D01*
X51060740Y-58649457D01*
X51050500Y-58605609D01*
X51050500Y-56234108D01*
X52649500Y-56234108D01*
X52649500Y-56365892D01*
X52665338Y-56425000D01*
X52683609Y-56493190D01*
X52749496Y-56607309D01*
X52749498Y-56607311D01*
X52749500Y-56607314D01*
X52820505Y-56678319D01*
X52848281Y-56732834D01*
X52849500Y-56748321D01*
X52849500Y-57813811D01*
X52830593Y-57872002D01*
X52820506Y-57883812D01*
X52810804Y-57893514D01*
X52810801Y-57893518D01*
X52759427Y-57998604D01*
X52759427Y-57998607D01*
X52749500Y-58066740D01*
X52749500Y-58433260D01*
X52753897Y-58463436D01*
X52759427Y-58501395D01*
X52807484Y-58599696D01*
X52810802Y-58606483D01*
X52893517Y-58689198D01*
X52947285Y-58715483D01*
X52998604Y-58740572D01*
X52998605Y-58740572D01*
X52998607Y-58740573D01*
X53066740Y-58750500D01*
X53066743Y-58750500D01*
X54308257Y-58750500D01*
X54308260Y-58750500D01*
X54376393Y-58740573D01*
X54481483Y-58689198D01*
X54564198Y-58606483D01*
X54615573Y-58501393D01*
X54625500Y-58433260D01*
X54625500Y-58066740D01*
X54615573Y-57998607D01*
X54564198Y-57893517D01*
X54481483Y-57810802D01*
X54470828Y-57805593D01*
X54376395Y-57759427D01*
X54349139Y-57755456D01*
X54308260Y-57749500D01*
X54308257Y-57749500D01*
X53549500Y-57749500D01*
X53491309Y-57730593D01*
X53455345Y-57681093D01*
X53450500Y-57650500D01*
X53450500Y-56748321D01*
X53469407Y-56690130D01*
X53479490Y-56678323D01*
X53550500Y-56607314D01*
X53577088Y-56561263D01*
X53616390Y-56493190D01*
X53616390Y-56493188D01*
X53616392Y-56493186D01*
X53650500Y-56365892D01*
X53650500Y-56234108D01*
X53616392Y-56106814D01*
X53616390Y-56106811D01*
X53616390Y-56106809D01*
X53550503Y-55992690D01*
X53550501Y-55992688D01*
X53550500Y-55992686D01*
X53457314Y-55899500D01*
X53457311Y-55899498D01*
X53457309Y-55899496D01*
X53343189Y-55833609D01*
X53343191Y-55833609D01*
X53293799Y-55820375D01*
X53215892Y-55799500D01*
X53084108Y-55799500D01*
X53006200Y-55820375D01*
X52956809Y-55833609D01*
X52842690Y-55899496D01*
X52749496Y-55992690D01*
X52683609Y-56106809D01*
X52675851Y-56135763D01*
X52649500Y-56234108D01*
X51050500Y-56234108D01*
X51050500Y-45449500D01*
X51069407Y-45391309D01*
X51118907Y-45355345D01*
X51149500Y-45350500D01*
X58589563Y-45350500D01*
X58589563Y-45350499D01*
X58665989Y-45330021D01*
X58734511Y-45290460D01*
X58762485Y-45262485D01*
X58790461Y-45234511D01*
X59045473Y-44979497D01*
X59099990Y-44951719D01*
X59115477Y-44950500D01*
X59215890Y-44950500D01*
X59215892Y-44950500D01*
X59343186Y-44916392D01*
X59343188Y-44916390D01*
X59343190Y-44916390D01*
X59451000Y-44854146D01*
X59510848Y-44841424D01*
X59566744Y-44866310D01*
X59597337Y-44919298D01*
X59599500Y-44939882D01*
X59599500Y-45271679D01*
X59580593Y-45329870D01*
X59570509Y-45341676D01*
X59520877Y-45391309D01*
X59499497Y-45412689D01*
X59499496Y-45412690D01*
X59433609Y-45526809D01*
X59426020Y-45555132D01*
X59399500Y-45654108D01*
X59399500Y-45785892D01*
X59418138Y-45855451D01*
X59433609Y-45913190D01*
X59499496Y-46027309D01*
X59499498Y-46027311D01*
X59499500Y-46027314D01*
X59592686Y-46120500D01*
X59592688Y-46120501D01*
X59592690Y-46120503D01*
X59706810Y-46186390D01*
X59706808Y-46186390D01*
X59706812Y-46186391D01*
X59706814Y-46186392D01*
X59834108Y-46220500D01*
X59834110Y-46220500D01*
X59965890Y-46220500D01*
X59965892Y-46220500D01*
X60093186Y-46186392D01*
X60093187Y-46186391D01*
X60099454Y-46184712D01*
X60100263Y-46187731D01*
X60148458Y-46183862D01*
X60200678Y-46215748D01*
X60224182Y-46272239D01*
X60224500Y-46280163D01*
X60224500Y-53274165D01*
X60205593Y-53332356D01*
X60195504Y-53344169D01*
X60169169Y-53370504D01*
X60114652Y-53398281D01*
X60099165Y-53399500D01*
X60034108Y-53399500D01*
X59956200Y-53420375D01*
X59906809Y-53433609D01*
X59792690Y-53499496D01*
X59792684Y-53499500D01*
X59746681Y-53545504D01*
X59692164Y-53573281D01*
X59676678Y-53574500D01*
X56542853Y-53574500D01*
X56457147Y-53574500D01*
X56374362Y-53596682D01*
X56300138Y-53639535D01*
X56239535Y-53700138D01*
X56196682Y-53774362D01*
X56178387Y-53842643D01*
X56174500Y-53857148D01*
X56174500Y-53993121D01*
X56155593Y-54051312D01*
X56106093Y-54087276D01*
X56106092Y-54087276D01*
X56099693Y-54089354D01*
X55986659Y-54146949D01*
X55896949Y-54236659D01*
X55839354Y-54349695D01*
X55824500Y-54443477D01*
X55824500Y-54906520D01*
X55824501Y-54906523D01*
X55839352Y-55000299D01*
X55839354Y-55000304D01*
X55896950Y-55113342D01*
X55986658Y-55203050D01*
X56099696Y-55260646D01*
X56193481Y-55275500D01*
X56806518Y-55275499D01*
X56806520Y-55275499D01*
X56806521Y-55275498D01*
X56853411Y-55268072D01*
X56900299Y-55260647D01*
X56900299Y-55260646D01*
X56900304Y-55260646D01*
X57013342Y-55203050D01*
X57103050Y-55113342D01*
X57160646Y-55000304D01*
X57175500Y-54906519D01*
X57175499Y-54443482D01*
X57168692Y-54400500D01*
X57159428Y-54341999D01*
X57162397Y-54341528D01*
X57162406Y-54293891D01*
X57198378Y-54244397D01*
X57256555Y-54225500D01*
X59676678Y-54225500D01*
X59734869Y-54244407D01*
X59746681Y-54254496D01*
X59792684Y-54300499D01*
X59792690Y-54300503D01*
X59906810Y-54366390D01*
X59906808Y-54366390D01*
X59906812Y-54366391D01*
X59906814Y-54366392D01*
X60034108Y-54400500D01*
X60034110Y-54400500D01*
X60165890Y-54400500D01*
X60165892Y-54400500D01*
X60293186Y-54366392D01*
X60293188Y-54366390D01*
X60293190Y-54366390D01*
X60407309Y-54300503D01*
X60407309Y-54300502D01*
X60407314Y-54300500D01*
X60500500Y-54207314D01*
X60566392Y-54093186D01*
X60600500Y-53965892D01*
X60600500Y-53900834D01*
X60619407Y-53842643D01*
X60629490Y-53830836D01*
X60810465Y-53649862D01*
X60833642Y-53609719D01*
X60853316Y-53575643D01*
X60853316Y-53575641D01*
X60853318Y-53575639D01*
X60875500Y-53492853D01*
X60875500Y-53407147D01*
X60875500Y-41457147D01*
X60853318Y-41374362D01*
X60810465Y-41300138D01*
X60749862Y-41239535D01*
X60675638Y-41196682D01*
X60592853Y-41174500D01*
X60592851Y-41174500D01*
X48648932Y-41174500D01*
X48648916Y-41174499D01*
X48642853Y-41174499D01*
X48557148Y-41174499D01*
X48557145Y-41174499D01*
X48474365Y-41196680D01*
X48474362Y-41196682D01*
X48409537Y-41234109D01*
X48400135Y-41239537D01*
X48339534Y-41300137D01*
X48339535Y-41300138D01*
X48339533Y-41300140D01*
X48339532Y-41300140D01*
X47786804Y-41852866D01*
X47732288Y-41880643D01*
X47671856Y-41871072D01*
X47637917Y-41842681D01*
X47624723Y-41825282D01*
X47624717Y-41825276D01*
X47509729Y-41738077D01*
X47375468Y-41685132D01*
X47291104Y-41675000D01*
X47200001Y-41675000D01*
X47200000Y-41675001D01*
X47200000Y-42326000D01*
X47181093Y-42384191D01*
X47131593Y-42420155D01*
X47101000Y-42425000D01*
X47000001Y-42425000D01*
X47000000Y-42425001D01*
X47000000Y-42526000D01*
X46981093Y-42584191D01*
X46931593Y-42620155D01*
X46901000Y-42625000D01*
X46225001Y-42625000D01*
X46225000Y-42625001D01*
X46225000Y-42691104D01*
X46235132Y-42775468D01*
X46288077Y-42909729D01*
X46375276Y-43024717D01*
X46375282Y-43024723D01*
X46490270Y-43111922D01*
X46609936Y-43159112D01*
X46657133Y-43198049D01*
X46672430Y-43257291D01*
X46649984Y-43314211D01*
X46618563Y-43339419D01*
X46496781Y-43401471D01*
X46401470Y-43496782D01*
X46340283Y-43616867D01*
X46340281Y-43616874D01*
X46324500Y-43716510D01*
X46324500Y-43900500D01*
X46305593Y-43958691D01*
X46256093Y-43994655D01*
X46225500Y-43999500D01*
X46021213Y-43999500D01*
X45963022Y-43980593D01*
X45933004Y-43945445D01*
X45903051Y-43886660D01*
X45903050Y-43886658D01*
X45813342Y-43796950D01*
X45700304Y-43739354D01*
X45700305Y-43739354D01*
X45606522Y-43724500D01*
X44993479Y-43724500D01*
X44993476Y-43724501D01*
X44899700Y-43739352D01*
X44899695Y-43739354D01*
X44786659Y-43796949D01*
X44696949Y-43886659D01*
X44639354Y-43999695D01*
X44624500Y-44093477D01*
X44624500Y-44556520D01*
X44624501Y-44556523D01*
X44639352Y-44650299D01*
X44639354Y-44650304D01*
X44696950Y-44763342D01*
X44786658Y-44853050D01*
X44866336Y-44893648D01*
X44909599Y-44936911D01*
X44919170Y-44997343D01*
X44902232Y-45036770D01*
X44902744Y-45037066D01*
X44900247Y-45041389D01*
X44899934Y-45042120D01*
X44899497Y-45042688D01*
X44833609Y-45156809D01*
X44833608Y-45156814D01*
X44799500Y-45284108D01*
X44799500Y-45415892D01*
X44833608Y-45543186D01*
X44833608Y-45543187D01*
X44835288Y-45549454D01*
X44832302Y-45550253D01*
X44836091Y-45598652D01*
X44804099Y-45650808D01*
X44747561Y-45674198D01*
X44739836Y-45674500D01*
X42957147Y-45674500D01*
X42915754Y-45685591D01*
X42874360Y-45696682D01*
X42834786Y-45719529D01*
X42834787Y-45719530D01*
X42800139Y-45739534D01*
X42769168Y-45770505D01*
X42714651Y-45798281D01*
X42699165Y-45799500D01*
X41980252Y-45799500D01*
X41980251Y-45799500D01*
X41980241Y-45799501D01*
X41921772Y-45811132D01*
X41921766Y-45811134D01*
X41855451Y-45855445D01*
X41855445Y-45855451D01*
X41811134Y-45921766D01*
X41811132Y-45921772D01*
X41801575Y-45969816D01*
X41771678Y-46023199D01*
X41716112Y-46048814D01*
X41704478Y-46049500D01*
X37295522Y-46049500D01*
X37237331Y-46030593D01*
X37201367Y-45981093D01*
X37198425Y-45969816D01*
X37191321Y-45934108D01*
X37188867Y-45921769D01*
X37144552Y-45855448D01*
X37144548Y-45855445D01*
X37078233Y-45811134D01*
X37078231Y-45811133D01*
X37078228Y-45811132D01*
X37078227Y-45811132D01*
X37019758Y-45799501D01*
X37019748Y-45799500D01*
X35980252Y-45799500D01*
X35980251Y-45799500D01*
X35980241Y-45799501D01*
X35921772Y-45811132D01*
X35921766Y-45811134D01*
X35855451Y-45855445D01*
X35855445Y-45855451D01*
X35811134Y-45921766D01*
X35811132Y-45921772D01*
X35799501Y-45980241D01*
X35799500Y-45980253D01*
X35152500Y-45980253D01*
X35152500Y-42825001D01*
X35700001Y-42825001D01*
X35700001Y-43044791D01*
X35702909Y-43069874D01*
X35748213Y-43172477D01*
X35827522Y-43251786D01*
X35930127Y-43297090D01*
X35955203Y-43299999D01*
X36299998Y-43299999D01*
X36300000Y-43299998D01*
X36300000Y-42825001D01*
X36700000Y-42825001D01*
X36700000Y-43299998D01*
X36700001Y-43299999D01*
X37044790Y-43299999D01*
X37044791Y-43299998D01*
X37069874Y-43297090D01*
X37172477Y-43251786D01*
X37251786Y-43172477D01*
X37297090Y-43069872D01*
X37299999Y-43044797D01*
X37300000Y-43044795D01*
X37300000Y-42825001D01*
X41700001Y-42825001D01*
X41700001Y-43044791D01*
X41702909Y-43069874D01*
X41748213Y-43172477D01*
X41827522Y-43251786D01*
X41930127Y-43297090D01*
X41955203Y-43299999D01*
X42299998Y-43299999D01*
X42300000Y-43299998D01*
X42300000Y-42825001D01*
X42700000Y-42825001D01*
X42700000Y-43299998D01*
X42700001Y-43299999D01*
X43044790Y-43299999D01*
X43044791Y-43299998D01*
X43069874Y-43297090D01*
X43172477Y-43251786D01*
X43251786Y-43172477D01*
X43297090Y-43069872D01*
X43299999Y-43044797D01*
X43300000Y-43044795D01*
X43300000Y-42825001D01*
X43299999Y-42825000D01*
X42700001Y-42825000D01*
X42700000Y-42825001D01*
X42300000Y-42825001D01*
X42299999Y-42825000D01*
X41700002Y-42825000D01*
X41700001Y-42825001D01*
X37300000Y-42825001D01*
X37299999Y-42825000D01*
X36700001Y-42825000D01*
X36700000Y-42825001D01*
X36300000Y-42825001D01*
X36299999Y-42825000D01*
X35700002Y-42825000D01*
X35700001Y-42825001D01*
X35152500Y-42825001D01*
X35152500Y-42205202D01*
X35700000Y-42205202D01*
X35700000Y-42424999D01*
X35700001Y-42425000D01*
X36299999Y-42425000D01*
X36300000Y-42424999D01*
X36300000Y-41950001D01*
X36700000Y-41950001D01*
X36700000Y-42424999D01*
X36700001Y-42425000D01*
X37299998Y-42425000D01*
X37299999Y-42424999D01*
X37299999Y-42205211D01*
X37299998Y-42205207D01*
X37299997Y-42205202D01*
X41700000Y-42205202D01*
X41700000Y-42424999D01*
X41700001Y-42425000D01*
X42299999Y-42425000D01*
X42300000Y-42424999D01*
X42300000Y-41950001D01*
X42700000Y-41950001D01*
X42700000Y-42424999D01*
X42700001Y-42425000D01*
X43299998Y-42425000D01*
X43299999Y-42424999D01*
X43299999Y-42205210D01*
X43299998Y-42205208D01*
X43297090Y-42180125D01*
X43251786Y-42077522D01*
X43172477Y-41998213D01*
X43069872Y-41952909D01*
X43044797Y-41950000D01*
X42700001Y-41950000D01*
X42700000Y-41950001D01*
X42300000Y-41950001D01*
X42299999Y-41950000D01*
X41955210Y-41950000D01*
X41955207Y-41950001D01*
X41930125Y-41952909D01*
X41827522Y-41998213D01*
X41748213Y-42077522D01*
X41702909Y-42180127D01*
X41700000Y-42205202D01*
X37299997Y-42205202D01*
X37297090Y-42180125D01*
X37251786Y-42077522D01*
X37172477Y-41998213D01*
X37069872Y-41952909D01*
X37044797Y-41950000D01*
X36700001Y-41950000D01*
X36700000Y-41950001D01*
X36300000Y-41950001D01*
X36299999Y-41950000D01*
X35955210Y-41950000D01*
X35955207Y-41950001D01*
X35930125Y-41952909D01*
X35827522Y-41998213D01*
X35748213Y-42077522D01*
X35702909Y-42180127D01*
X35700000Y-42205202D01*
X35152500Y-42205202D01*
X35152500Y-41234108D01*
X43899500Y-41234108D01*
X43899500Y-41365892D01*
X43923952Y-41457148D01*
X43933609Y-41493190D01*
X43999496Y-41607309D01*
X43999498Y-41607311D01*
X43999500Y-41607314D01*
X44092686Y-41700500D01*
X44092688Y-41700501D01*
X44092690Y-41700503D01*
X44206810Y-41766390D01*
X44206808Y-41766390D01*
X44206812Y-41766391D01*
X44206814Y-41766392D01*
X44334108Y-41800500D01*
X44399165Y-41800500D01*
X44457356Y-41819407D01*
X44469169Y-41829496D01*
X44716636Y-42076963D01*
X44744413Y-42131480D01*
X44734842Y-42191912D01*
X44716638Y-42216968D01*
X44696952Y-42236654D01*
X44696950Y-42236658D01*
X44639354Y-42349695D01*
X44624500Y-42443477D01*
X44624500Y-42906520D01*
X44624501Y-42906523D01*
X44639352Y-43000299D01*
X44639354Y-43000304D01*
X44696950Y-43113342D01*
X44786658Y-43203050D01*
X44899696Y-43260646D01*
X44993481Y-43275500D01*
X45606518Y-43275499D01*
X45606520Y-43275499D01*
X45606521Y-43275498D01*
X45653411Y-43268072D01*
X45700299Y-43260647D01*
X45700299Y-43260646D01*
X45700304Y-43260646D01*
X45813342Y-43203050D01*
X45903050Y-43113342D01*
X45960646Y-43000304D01*
X45975500Y-42906519D01*
X45975499Y-42443482D01*
X45960646Y-42349696D01*
X45903050Y-42236658D01*
X45825287Y-42158895D01*
X46225000Y-42158895D01*
X46225000Y-42224999D01*
X46225001Y-42225000D01*
X46799999Y-42225000D01*
X46800000Y-42224999D01*
X46800000Y-41675001D01*
X46799999Y-41675000D01*
X46708895Y-41675000D01*
X46624531Y-41685132D01*
X46490270Y-41738077D01*
X46375282Y-41825276D01*
X46375276Y-41825282D01*
X46288077Y-41940270D01*
X46235132Y-42074531D01*
X46225000Y-42158895D01*
X45825287Y-42158895D01*
X45813342Y-42146950D01*
X45700304Y-42089354D01*
X45700305Y-42089354D01*
X45649722Y-42081342D01*
X45595205Y-42053564D01*
X45579474Y-42033061D01*
X45560468Y-42000142D01*
X45560467Y-42000141D01*
X45560466Y-42000140D01*
X45560465Y-42000138D01*
X44929496Y-41369169D01*
X44901719Y-41314652D01*
X44900500Y-41299165D01*
X44900500Y-41234109D01*
X44900500Y-41234108D01*
X44866392Y-41106814D01*
X44866390Y-41106811D01*
X44866390Y-41106809D01*
X44800503Y-40992690D01*
X44800501Y-40992688D01*
X44800500Y-40992686D01*
X44707314Y-40899500D01*
X44707311Y-40899498D01*
X44707309Y-40899496D01*
X44593189Y-40833609D01*
X44593191Y-40833609D01*
X44543799Y-40820375D01*
X44465892Y-40799500D01*
X44334108Y-40799500D01*
X44256200Y-40820375D01*
X44206809Y-40833609D01*
X44092690Y-40899496D01*
X43999496Y-40992690D01*
X43933609Y-41106809D01*
X43933608Y-41106814D01*
X43899500Y-41234108D01*
X35152500Y-41234108D01*
X35152500Y-39439000D01*
X35171407Y-39380809D01*
X35220907Y-39344845D01*
X35251500Y-39340000D01*
X40301000Y-39340000D01*
X40359191Y-39358907D01*
G37*
%TD.AperFunction*%
%TD*%
M02*
