%TF.GenerationSoftware,KiCad,Pcbnew,10.0.5*%
%TF.CreationDate,2026-08-09T04:42:05+01:00*%
%TF.ProjectId,toshiba_hvac_esp32_integrated,746f7368-6962-4615-9f68-7661635f6573,rev?*%
%TF.SameCoordinates,Original*%
%TF.FileFunction,Soldermask,Bot*%
%TF.FilePolarity,Negative*%
%FSLAX46Y46*%
G04 Gerber Fmt 4.6, Leading zero omitted, Abs format (unit mm)*
G04 Created by KiCad (PCBNEW 10.0.5) date 2026-08-09 04:42:05*
%MOMM*%
%LPD*%
G01*
G04 APERTURE LIST*
G04 Aperture macros list*
%AMRoundRect*
0 Rectangle with rounded corners*
0 $1 Rounding radius*
0 $2 $3 $4 $5 $6 $7 $8 $9 X,Y pos of 4 corners*
0 Add a 4 corners polygon primitive as box body*
4,1,4,$2,$3,$4,$5,$6,$7,$8,$9,$2,$3,0*
0 Add four circle primitives for the rounded corners*
1,1,$1+$1,$2,$3*
1,1,$1+$1,$4,$5*
1,1,$1+$1,$6,$7*
1,1,$1+$1,$8,$9*
0 Add four rect primitives between the rounded corners*
20,1,$1+$1,$2,$3,$4,$5,0*
20,1,$1+$1,$4,$5,$6,$7,0*
20,1,$1+$1,$6,$7,$8,$9,0*
20,1,$1+$1,$8,$9,$2,$3,0*%
G04 Aperture macros list end*
%ADD10C,0.650000*%
%ADD11O,2.100000X1.000000*%
%ADD12O,1.600000X1.000000*%
%ADD13C,1.219200*%
%ADD14C,0.600000*%
%ADD15RoundRect,0.250000X0.475000X-0.250000X0.475000X0.250000X-0.475000X0.250000X-0.475000X-0.250000X0*%
%ADD16RoundRect,0.225000X-0.250000X0.225000X-0.250000X-0.225000X0.250000X-0.225000X0.250000X0.225000X0*%
%ADD17RoundRect,0.200000X0.275000X-0.200000X0.275000X0.200000X-0.275000X0.200000X-0.275000X-0.200000X0*%
%ADD18RoundRect,0.200000X-0.275000X0.200000X-0.275000X-0.200000X0.275000X-0.200000X0.275000X0.200000X0*%
%ADD19RoundRect,0.200000X-0.200000X-0.275000X0.200000X-0.275000X0.200000X0.275000X-0.200000X0.275000X0*%
%ADD20RoundRect,0.150000X-0.150000X0.587500X-0.150000X-0.587500X0.150000X-0.587500X0.150000X0.587500X0*%
%ADD21R,1.000000X0.750000*%
%ADD22RoundRect,0.150000X0.587500X0.150000X-0.587500X0.150000X-0.587500X-0.150000X0.587500X-0.150000X0*%
%ADD23RoundRect,0.225000X0.250000X-0.225000X0.250000X0.225000X-0.250000X0.225000X-0.250000X-0.225000X0*%
%ADD24RoundRect,0.225000X-0.225000X-0.250000X0.225000X-0.250000X0.225000X0.250000X-0.225000X0.250000X0*%
%ADD25RoundRect,0.250000X-0.475000X0.250000X-0.475000X-0.250000X0.475000X-0.250000X0.475000X0.250000X0*%
%ADD26RoundRect,0.200000X0.200000X0.275000X-0.200000X0.275000X-0.200000X-0.275000X0.200000X-0.275000X0*%
G04 APERTURE END LIST*
D10*
%TO.C,J2*%
X61500000Y-61810000D03*
X61500000Y-67590000D03*
D11*
X62030000Y-60380000D03*
D12*
X57850000Y-60380000D03*
D11*
X62030000Y-69020000D03*
D12*
X57850000Y-69020000D03*
%TD*%
D13*
%TO.C,J1*%
X45847000Y-74353000D03*
X47846999Y-74353000D03*
X49847000Y-74353000D03*
X51847001Y-74353000D03*
X53846999Y-74353000D03*
%TD*%
D14*
%TO.C,U1*%
X46630000Y-47660000D03*
X46630000Y-49060000D03*
X47330000Y-46960000D03*
X47330000Y-48360000D03*
X47330000Y-49760000D03*
X48030000Y-47660000D03*
X48030000Y-49060000D03*
X48730000Y-46960000D03*
X48730000Y-48360000D03*
X48730000Y-49760000D03*
X49430000Y-47660000D03*
X49430000Y-49060000D03*
%TD*%
D15*
%TO.C,C9*%
X44300000Y-49550000D03*
X44300000Y-47650000D03*
%TD*%
D16*
%TO.C,C3*%
X42500000Y-62225000D03*
X42500000Y-63775000D03*
%TD*%
D17*
%TO.C,R6*%
X59900000Y-72525000D03*
X59900000Y-70875000D03*
%TD*%
%TO.C,R7*%
X58200000Y-72525000D03*
X58200000Y-70875000D03*
%TD*%
D18*
%TO.C,R1*%
X45300000Y-42675000D03*
X45300000Y-44325000D03*
%TD*%
D19*
%TO.C,R9*%
X47775000Y-69300000D03*
X49425000Y-69300000D03*
%TD*%
D20*
%TO.C,Q1*%
X46550000Y-54062500D03*
X48450000Y-54062500D03*
X47500000Y-55937500D03*
%TD*%
D17*
%TO.C,R8*%
X40500000Y-69325000D03*
X40500000Y-67675000D03*
%TD*%
D15*
%TO.C,C12*%
X62600000Y-78950000D03*
X62600000Y-77050000D03*
%TD*%
D21*
%TO.C,SW1*%
X36500000Y-46375000D03*
X42500000Y-46375000D03*
X36500000Y-42625000D03*
X42500000Y-42625000D03*
%TD*%
D22*
%TO.C,Q2*%
X53687500Y-58250000D03*
X53687500Y-60150000D03*
X51812500Y-59200000D03*
%TD*%
D15*
%TO.C,C11*%
X44900000Y-71250000D03*
X44900000Y-69350000D03*
%TD*%
D23*
%TO.C,C5*%
X44000000Y-56375000D03*
X44000000Y-54825000D03*
%TD*%
%TO.C,C8*%
X44200000Y-64175000D03*
X44200000Y-62625000D03*
%TD*%
D18*
%TO.C,R2*%
X56500000Y-54675000D03*
X56500000Y-56325000D03*
%TD*%
D19*
%TO.C,R5*%
X51575000Y-61750000D03*
X53225000Y-61750000D03*
%TD*%
D23*
%TO.C,C7*%
X47000000Y-43975000D03*
X47000000Y-42425000D03*
%TD*%
D24*
%TO.C,C2*%
X37725000Y-57200000D03*
X39275000Y-57200000D03*
%TD*%
D23*
%TO.C,C1*%
X44300000Y-52975000D03*
X44300000Y-51425000D03*
%TD*%
%TO.C,C4*%
X44200000Y-60475000D03*
X44200000Y-58925000D03*
%TD*%
D24*
%TO.C,C6*%
X60125000Y-75500000D03*
X61675000Y-75500000D03*
%TD*%
D17*
%TO.C,R4*%
X48600000Y-59525000D03*
X48600000Y-57875000D03*
%TD*%
D25*
%TO.C,C10*%
X60600000Y-78850000D03*
X60600000Y-80750000D03*
%TD*%
D19*
%TO.C,R3*%
X37675000Y-59000000D03*
X39325000Y-59000000D03*
%TD*%
D21*
%TO.C,SW2*%
X36500000Y-53375000D03*
X42500000Y-53375000D03*
X36500000Y-49625000D03*
X42500000Y-49625000D03*
%TD*%
D26*
%TO.C,R10*%
X49425000Y-71050000D03*
X47775000Y-71050000D03*
%TD*%
M02*
